SplineFontDB: 3.0
FontName: Norican-Regular
FullName: Norican Regular
FamilyName: Norican
Weight: Book
Copyright: Copyright (c) 2011 by vernon adams (www.newtypography.co.uk), with Reserved Font Names "Norican"
Version: 1.001
ItalicAngle: 0
UnderlinePosition: -103
UnderlineWidth: 102
Ascent: 1638
Descent: 410
sfntRevision: 0x00010042
LayerCount: 2
Layer: 0 1 "Back"  1
Layer: 1 1 "Fore"  0
XUID: [1021 457 271027907 509505]
FSType: 0
OS2Version: 2
OS2_WeightWidthSlopeOnly: 0
OS2_UseTypoMetrics: 1
CreationTime: 1322389253
ModificationTime: 1322418146
PfmFamily: 17
TTFWeight: 400
TTFWidth: 5
LineGap: 0
VLineGap: 0
Panose: 2 0 5 4 0 0 0 2 0 4
OS2TypoAscent: 457
OS2TypoAOffset: 1
OS2TypoDescent: -381
OS2TypoDOffset: 1
OS2TypoLinegap: 0
OS2WinAscent: 0
OS2WinAOffset: 1
OS2WinDescent: 0
OS2WinDOffset: 1
HheadAscent: 0
HheadAOffset: 1
HheadDescent: 0
HheadDOffset: 1
OS2SubXSize: 1331
OS2SubYSize: 1229
OS2SubXOff: 0
OS2SubYOff: 154
OS2SupXSize: 1331
OS2SupYSize: 1229
OS2SupXOff: 0
OS2SupYOff: 717
OS2StrikeYSize: 102
OS2StrikeYPos: 512
OS2Vendor: 'newt'
OS2CodePages: 20000111.40000000
OS2UnicodeRanges: 8000006f.50000003.00000000.00000000
Lookup: 258 0 0 "'kern' Horizontal Kerning in Latin lookup 0"  {"'kern' Horizontal Kerning in Latin lookup 0 subtable"  } ['kern' ('latn' <'dflt' > ) ]
MarkAttachClasses: 1
DEI: 91125
TtTable: prep
PUSHW_1
 511
SCANCTRL
PUSHB_1
 4
SCANTYPE
EndTTInstrs
ShortTable: maxp 16
  1
  0
  273
  136
  6
  114
  4
  2
  0
  1
  1
  0
  64
  0
  2
  1
EndShort
LangName: 1033 "" "" "" "vernonadams: Norican Regular: 2011" "" "Version 1.001" "" "Norican is a trademark of vernon adams." "vernon adams" "vernon adams" "" "www.newtypography.co.uk" "www.newtypography.co.uk" "This Font Software is licensed under the SIL Open Font License, Version 1.1. This license is available with a FAQ at: http://scripts.sil.org/OFL" "http://scripts.sil.org/OFL" 
GaspTable: 1 65535 15 1
Encoding: UnicodeBmp
UnicodeInterp: none
NameList: Adobe Glyph List
DisplaySize: -24

StartChar: exclam
Encoding: 33 33 5
Width: 608
GlyphClass: 2
Flags: W
LayerCount: 2
Fore
SplineSet
371 379 m 1,0,1
 346 369 346 369 317 369 c 0,2,3
 295 369 295 369 295 395.5 c 128,-1,4
 295 422 295 422 297 434 c 2,5,-1
 449 1296 l 1,6,7
 471 1457 471 1457 490.5 1487.5 c 128,-1,8
 510 1518 510 1518 526 1518 c 2,9,-1
 709 1518 l 2,10,11
 741 1518 741 1518 741 1464 c 256,12,13
 741 1410 741 1410 615 1058 c 128,-1,14
 489 706 489 706 430.5 544 c 128,-1,15
 372 382 372 382 371 379 c 1,0,1
342 22.5 m 128,-1,17
 290 -29 290 -29 236 -29 c 0,18,19
 144 -29 144 -29 144 49 c 0,20,21
 144 104 144 104 185 155.5 c 128,-1,22
 226 207 226 207 282.5 207 c 128,-1,23
 339 207 339 207 366.5 185 c 128,-1,24
 394 163 394 163 394 118.5 c 128,-1,16
 394 74 394 74 342 22.5 c 128,-1,17
EndSplineSet
EndChar

StartChar: quotedbl
Encoding: 34 34 6
Width: 678
GlyphClass: 2
Flags: W
LayerCount: 2
Fore
SplineSet
130 1235 m 1,0,1
 130 1538 130 1538 201 1538 c 0,2,3
 279 1538 279 1538 304.5 1527.5 c 128,-1,4
 330 1517 330 1517 330 1486.5 c 128,-1,5
 330 1456 330 1456 304 1393.5 c 128,-1,6
 278 1331 278 1331 234.5 1213 c 128,-1,7
 191 1095 191 1095 186 1083 c 1,8,-1
 131 1083 l 1,9,10
 132 1104 132 1104 132 1130 c 2,11,-1
 130 1235 l 1,0,1
398 1235 m 1,12,13
 398 1538 398 1538 469 1538 c 0,14,15
 547 1538 547 1538 572.5 1527.5 c 128,-1,16
 598 1517 598 1517 598 1487.5 c 128,-1,17
 598 1458 598 1458 578 1403 c 1,18,19
 543 1325 543 1325 502 1212 c 128,-1,20
 461 1099 461 1099 455 1083 c 1,21,-1
 399 1083 l 1,22,23
 400 1104 400 1104 400 1130 c 2,24,-1
 398 1235 l 1,12,13
EndSplineSet
EndChar

StartChar: numbersign
Encoding: 35 35 7
Width: 1069
GlyphClass: 2
Flags: W
LayerCount: 2
Fore
SplineSet
885 512 m 2,0,-1
 748 514 l 1,1,-1
 707 514 l 1,2,-1
 551 39 l 2,3,4
 547 28 547 28 539.5 -0.5 c 128,-1,5
 532 -29 532 -29 525 -49.5 c 128,-1,6
 518 -70 518 -70 508 -93 c 0,7,8
 487 -141 487 -141 459.5 -141 c 128,-1,9
 432 -141 432 -141 425 -126 c 128,-1,10
 418 -111 418 -111 418 -81.5 c 128,-1,11
 418 -52 418 -52 430 -2.5 c 128,-1,12
 442 47 442 47 442 49 c 0,13,14
 486 175 486 175 567 512 c 1,15,-1
 350 506 l 1,16,-1
 223 39 l 2,17,18
 220 29 220 29 212 -1 c 128,-1,19
 204 -31 204 -31 197.5 -50.5 c 128,-1,20
 191 -70 191 -70 180 -94 c 0,21,22
 159 -141 159 -141 131.5 -141 c 128,-1,23
 104 -141 104 -141 97 -126 c 128,-1,24
 90 -111 90 -111 90 -74.5 c 128,-1,25
 90 -38 90 -38 121 77.5 c 128,-1,26
 152 193 152 193 209 500 c 1,27,28
 180 500 180 500 94 496 c 1,29,30
 37 496 37 496 37 537 c 0,31,32
 37 606 37 606 86 623 c 1,33,-1
 233 633 l 1,34,-1
 264 807 l 1,35,36
 233 807 233 807 139 803 c 1,37,38
 82 803 82 803 82 844 c 0,39,40
 82 911 82 911 113 925 c 0,41,42
 139 937 139 937 175 937 c 0,43,44
 220 937 220 937 289 940 c 1,45,46
 366 1373 366 1373 369 1381 c 128,-1,47
 372 1389 372 1389 382 1418.5 c 128,-1,48
 392 1448 392 1448 397.5 1462.5 c 128,-1,49
 403 1477 403 1477 412.5 1499 c 128,-1,50
 422 1521 422 1521 428 1529 c 128,-1,51
 434 1537 434 1537 446 1549 c 128,-1,52
 458 1561 458 1561 470 1564.5 c 128,-1,53
 482 1568 482 1568 501 1572 c 0,54,55
 528 1579 528 1579 594 1579 c 0,56,57
 606 1579 606 1579 618.5 1562 c 128,-1,58
 631 1545 631 1545 631 1526 c 1,59,-1
 473 948 l 1,60,61
 665 954 665 954 676 954 c 1,62,63
 774 1369 774 1369 793.5 1430.5 c 128,-1,64
 813 1492 813 1492 833 1527 c 128,-1,65
 853 1562 853 1562 896 1570.5 c 128,-1,66
 939 1579 939 1579 1004 1579 c 0,67,68
 1016 1579 1016 1579 1028 1562 c 128,-1,69
 1040 1545 1040 1545 1040 1526 c 1,70,-1
 1038 1513 l 1,71,-1
 854 956 l 1,72,73
 1030 952 1030 952 1030 915 c 0,74,75
 1030 885 1030 885 998.5 852 c 128,-1,76
 967 819 967 819 930 819 c 2,77,-1
 809 821 l 1,78,-1
 752 649 l 1,79,-1
 776 649 l 2,80,81
 985 649 985 649 985 608 c 0,82,83
 985 578 985 578 954 545 c 128,-1,84
 923 512 923 512 885 512 c 2,0,-1
602 647 m 1,85,86
 639 802 639 802 643 819 c 1,87,88
 571 819 571 819 436 813 c 1,89,-1
 387 647 l 1,90,-1
 602 647 l 1,85,86
EndSplineSet
EndChar

StartChar: dollar
Encoding: 36 36 8
Width: 1069
GlyphClass: 2
Flags: W
LayerCount: 2
Fore
SplineSet
756 1423 m 1,0,-1
 721 1421 l 1,1,-1
 594 872 l 1,2,3
 731 772 731 772 779 728 c 0,4,5
 925 592 925 592 926 446 c 1,6,7
 926 206 926 206 688 61 c 0,8,9
 553 -22 553 -22 379 -47 c 1,10,-1
 373 -80 l 2,11,12
 370 -94 370 -94 366 -126 c 128,-1,13
 362 -158 362 -158 358.5 -172 c 128,-1,14
 355 -186 355 -186 342 -199.5 c 128,-1,15
 329 -213 329 -213 307 -213 c 0,16,17
 279 -213 279 -213 279 -184 c 0,18,19
 279 -166 279 -166 289 -109 c 1,20,-1
 297 -55 l 1,21,22
 283 -57 283 -57 239.5 -57 c 128,-1,23
 196 -57 196 -57 141 -42.5 c 128,-1,24
 86 -28 86 -28 38 0 c 128,-1,25
 -10 28 -10 28 -40 75.5 c 128,-1,26
 -70 123 -70 123 -70 185 c 128,-1,27
 -70 247 -70 247 -21.5 287 c 128,-1,28
 27 327 27 327 96 330 c 2,29,-1
 139 332 l 1,30,31
 135 278 135 278 135 240.5 c 128,-1,32
 135 203 135 203 135.5 190 c 128,-1,33
 136 177 136 177 139 151.5 c 128,-1,34
 142 126 142 126 148.5 113.5 c 128,-1,35
 155 101 155 101 168 83.5 c 128,-1,36
 181 66 181 66 200 58 c 0,37,38
 246 37 246 37 315 35 c 1,39,40
 364 268 364 268 461 664 c 1,41,42
 319 782 319 782 273 830 c 0,43,44
 170 937 170 937 170 1028 c 128,-1,45
 170 1119 170 1119 213 1203 c 128,-1,46
 256 1287 256 1287 328 1346 c 0,47,48
 475 1468 475 1468 670 1503 c 1,49,-1
 678 1550 l 2,50,51
 700 1676 700 1676 714.5 1711.5 c 128,-1,52
 729 1747 729 1747 754 1747 c 0,53,54
 768 1747 768 1747 778 1736 c 128,-1,55
 788 1725 788 1725 788 1710 c 1,56,-1
 741 1513 l 1,57,58
 776 1518 776 1518 818.5 1518 c 128,-1,59
 861 1518 861 1518 917 1503 c 128,-1,60
 973 1488 973 1488 1026 1456.5 c 128,-1,61
 1079 1425 1079 1425 1112 1365.5 c 128,-1,62
 1145 1306 1145 1306 1145 1227 c 0,63,64
 1145 1207 1145 1207 948 1092 c 128,-1,65
 751 977 751 977 698 958 c 1,66,-1
 698 1057 l 1,67,68
 712 1065 712 1065 790 1102 c 0,69,70
 965 1184 965 1184 965 1225 c 0,71,72
 965 1423 965 1423 756 1423 c 1,0,-1
709 343 m 0,73,74
 709 404 709 404 662.5 467 c 128,-1,75
 616 530 616 530 530 604 c 1,76,-1
 399 41 l 1,77,78
 516 64 516 64 608 139 c 0,79,80
 709 221 709 221 709 343 c 0,73,74
463 1303.5 m 128,-1,82
 387 1229 387 1229 387 1131 c 128,-1,83
 387 1033 387 1033 526 924 c 1,84,-1
 647 1407 l 1,85,81
 539 1378 539 1378 463 1303.5 c 128,-1,82
EndSplineSet
EndChar

StartChar: percent
Encoding: 37 37 9
Width: 1401
GlyphClass: 2
Flags: W
LayerCount: 2
Fore
SplineSet
403 890.5 m 128,-1,1
 342 858 342 858 277 858 c 128,-1,2
 212 858 212 858 168.5 886.5 c 128,-1,3
 125 915 125 915 101 960 c 0,4,5
 53 1050 53 1050 53 1124.5 c 128,-1,6
 53 1199 53 1199 64 1249.5 c 128,-1,7
 75 1300 75 1300 98.5 1348.5 c 128,-1,8
 122 1397 122 1397 156 1434 c 0,9,10
 232 1518 232 1518 348 1518 c 0,11,12
 520 1518 520 1518 568 1322 c 0,13,14
 580 1272 580 1272 580 1213 c 128,-1,15
 580 1154 580 1154 559.5 1090.5 c 128,-1,16
 539 1027 539 1027 501.5 975 c 128,-1,0
 464 923 464 923 403 890.5 c 128,-1,1
423.5 1355 m 128,-1,18
 405 1393 405 1393 365 1393 c 128,-1,19
 325 1393 325 1393 291 1358.5 c 128,-1,20
 257 1324 257 1324 238 1273 c 0,21,22
 201 1170 201 1170 201 1071.5 c 128,-1,23
 201 973 201 973 248 973 c 0,24,25
 304 973 304 973 351 1028.5 c 128,-1,26
 398 1084 398 1084 420 1152 c 128,-1,27
 442 1220 442 1220 442 1268.5 c 128,-1,17
 442 1317 442 1317 423.5 1355 c 128,-1,18
1154.5 -7.5 m 128,-1,29
 1103 -29 1103 -29 1045 -29 c 128,-1,30
 987 -29 987 -29 943.5 0 c 128,-1,31
 900 29 900 29 876 74 c 0,32,33
 827 166 827 166 827 245.5 c 128,-1,34
 827 325 827 325 845 389 c 128,-1,35
 863 453 863 453 897.5 509 c 128,-1,36
 932 565 932 565 990.5 600 c 128,-1,37
 1049 635 1049 635 1117 635 c 128,-1,38
 1185 635 1185 635 1232 607.5 c 128,-1,39
 1279 580 1279 580 1304.5 534 c 128,-1,40
 1330 488 1330 488 1342 438.5 c 128,-1,41
 1354 389 1354 389 1354 336 c 128,-1,42
 1354 283 1354 283 1342 231.5 c 128,-1,43
 1330 180 1330 180 1304 133 c 128,-1,44
 1278 86 1278 86 1242 50 c 128,-1,28
 1206 14 1206 14 1154.5 -7.5 c 128,-1,29
1187.5 488 m 128,-1,46
 1169 510 1169 510 1134 510 c 128,-1,47
 1099 510 1099 510 1065.5 475 c 128,-1,48
 1032 440 1032 440 1014 388 c 0,49,50
 977 283 977 283 977 184.5 c 128,-1,51
 977 86 977 86 1022 86 c 0,52,53
 1078 86 1078 86 1125 141.5 c 128,-1,54
 1172 197 1172 197 1194.5 265 c 128,-1,55
 1217 333 1217 333 1217 374 c 128,-1,56
 1217 415 1217 415 1211.5 440.5 c 128,-1,45
 1206 466 1206 466 1187.5 488 c 128,-1,46
944 1374 m 1,57,58
 993 1445 993 1445 1005.5 1464 c 128,-1,59
 1018 1483 1018 1483 1034.5 1504 c 128,-1,60
 1051 1525 1051 1525 1059 1531.5 c 128,-1,61
 1067 1538 1067 1538 1082.5 1550 c 128,-1,62
 1098 1562 1098 1562 1110 1565 c 128,-1,63
 1122 1568 1122 1568 1142 1572 c 0,64,65
 1172 1579 1172 1579 1235 1579 c 0,66,67
 1243 1579 1243 1579 1249 1569 c 128,-1,68
 1255 1559 1255 1559 1255 1546.5 c 128,-1,69
 1255 1534 1255 1534 1249 1513 c 1,70,-1
 348 39 l 2,71,72
 341 28 341 28 325.5 -1 c 128,-1,73
 310 -30 310 -30 297.5 -50 c 128,-1,74
 285 -70 285 -70 268 -93 c 0,75,76
 233 -141 233 -141 201.5 -141 c 128,-1,77
 170 -141 170 -141 170 -117 c 0,78,79
 170 -69 170 -69 242 49 c 1,80,81
 673 869 673 869 944 1374 c 1,57,58
EndSplineSet
EndChar

StartChar: ampersand
Encoding: 38 38 10
Width: 1442
GlyphClass: 2
Flags: W
LayerCount: 2
Fore
SplineSet
811 -526 m 1,0,1
 799 -510 799 -510 799 -493.5 c 128,-1,2
 799 -477 799 -477 824 -454.5 c 128,-1,3
 849 -432 849 -432 884.5 -403 c 128,-1,4
 920 -374 920 -374 956 -336 c 0,5,6
 1042 -247 1042 -247 1042 -104 c 0,7,8
 1042 -29 1042 -29 998 68 c 0,9,10
 984 98 984 98 956 154 c 1,11,12
 826 68 826 68 711 19.5 c 128,-1,13
 596 -29 596 -29 485.5 -29 c 128,-1,14
 375 -29 375 -29 283 11 c 128,-1,15
 191 51 191 51 130.5 132 c 128,-1,16
 70 213 70 213 70 319 c 0,17,18
 70 455 70 455 147 558 c 0,19,20
 206 638 206 638 254 677.5 c 128,-1,21
 302 717 302 717 328.5 737.5 c 128,-1,22
 355 758 355 758 403 788 c 0,23,24
 477 835 477 835 529.5 865.5 c 128,-1,25
 582 896 582 896 596 905 c 1,26,27
 567 1014 567 1014 567 1083 c 0,28,29
 567 1195 567 1195 641 1297 c 128,-1,30
 715 1399 715 1399 826 1458.5 c 128,-1,31
 937 1518 937 1518 1047 1518 c 0,32,33
 1175 1518 1175 1518 1286 1449 c 0,34,35
 1340 1416 1340 1416 1373.5 1361.5 c 128,-1,36
 1407 1307 1407 1307 1407 1241 c 0,37,38
 1407 1192 1407 1192 1299 1136 c 0,39,40
 1222 1096 1222 1096 1141 1063 c 128,-1,41
 1060 1030 1060 1030 1047 1024 c 1,42,43
 1025 1048 1025 1048 1018 1081 c 1,44,45
 1028 1087 1028 1087 1068.5 1105 c 128,-1,46
 1109 1123 1109 1123 1138 1138 c 128,-1,47
 1167 1153 1167 1153 1193 1176.5 c 128,-1,48
 1219 1200 1219 1200 1219 1223 c 0,49,50
 1219 1297 1219 1297 1161 1346 c 128,-1,51
 1103 1395 1103 1395 1038.5 1395 c 128,-1,52
 974 1395 974 1395 933 1373 c 128,-1,53
 892 1351 892 1351 870 1313 c 0,54,55
 825 1238 825 1238 825 1156 c 128,-1,56
 825 1074 825 1074 841.5 1007 c 128,-1,57
 858 940 858 940 879 885.5 c 128,-1,58
 900 831 900 831 939 757.5 c 128,-1,59
 978 684 978 684 1004.5 640.5 c 128,-1,60
 1031 597 1031 597 1078 522.5 c 128,-1,61
 1125 448 1125 448 1143 418 c 1,62,63
 1218 466 1218 466 1292 556.5 c 128,-1,64
 1366 647 1366 647 1413 733 c 0,65,66
 1425 755 1425 755 1443 855.5 c 128,-1,67
 1461 956 1461 956 1483 973 c 1,68,-1
 1522 975 l 2,69,70
 1525 975 1525 975 1527 975 c 0,71,72
 1565 975 1565 975 1565 932 c 0,73,74
 1565 850 1565 850 1509.5 727 c 128,-1,75
 1454 604 1454 604 1366.5 491.5 c 128,-1,76
 1279 379 1279 379 1196 328 c 1,77,78
 1238 266 1238 266 1268 186 c 128,-1,79
 1298 106 1298 106 1298 41 c 0,80,81
 1298 -78 1298 -78 1231 -209.5 c 128,-1,82
 1164 -341 1164 -341 1048.5 -433.5 c 128,-1,83
 933 -526 933 -526 811 -526 c 1,0,1
911 238 m 1,84,-1
 618 805 l 1,85,86
 413 684 413 684 364 579 c 0,87,88
 342 530 342 530 342 475 c 0,89,90
 342 345 342 345 439 245 c 128,-1,91
 536 145 536 145 666 145 c 0,92,93
 728 145 728 145 783 167.5 c 128,-1,94
 838 190 838 190 911 238 c 1,84,-1
EndSplineSet
EndChar

StartChar: quotesingle
Encoding: 39 39 11
Width: 354
GlyphClass: 2
Flags: W
LayerCount: 2
Fore
SplineSet
295 1403 m 128,-1,1
 275 1348 275 1348 254.5 1283 c 128,-1,2
 234 1218 234 1218 216 1157.5 c 128,-1,3
 198 1097 198 1097 193 1083 c 1,4,-1
 137 1083 l 1,5,6
 119 1187 119 1187 119 1315 c 0,7,8
 119 1538 119 1538 186 1538 c 0,9,10
 265 1538 265 1538 290 1527.5 c 128,-1,11
 315 1517 315 1517 315 1487.5 c 128,-1,0
 315 1458 315 1458 295 1403 c 128,-1,1
EndSplineSet
EndChar

StartChar: parenleft
Encoding: 40 40 12
Width: 934
GlyphClass: 2
Flags: W
LayerCount: 2
Fore
SplineSet
666 -23 m 1,0,-1
 662 -100 l 1,1,2
 582 -117 582 -117 502.5 -117 c 128,-1,3
 423 -117 423 -117 345 -84 c 128,-1,4
 267 -51 267 -51 212.5 7.5 c 128,-1,5
 158 66 158 66 121 149 c 0,6,7
 49 311 49 311 49 541 c 0,8,9
 49 839 49 839 168 1100 c 0,10,11
 303 1397 303 1397 528 1512 c 0,12,13
 654 1577 654 1577 801 1577 c 0,14,15
 852 1577 852 1577 920 1567 c 1,16,-1
 915 1464 l 1,17,18
 879 1470 879 1470 844 1470 c 0,19,20
 747 1470 747 1470 661.5 1426 c 128,-1,21
 576 1382 576 1382 514.5 1307.5 c 128,-1,22
 453 1233 453 1233 404 1138 c 128,-1,23
 355 1043 355 1043 326 936 c 0,24,25
 266 722 266 722 266 530 c 0,26,27
 266 219 266 219 401 66 c 0,28,29
 481 -25 481 -25 621 -25 c 0,30,31
 649 -25 649 -25 666 -23 c 1,0,-1
EndSplineSet
EndChar

StartChar: parenright
Encoding: 41 41 13
Width: 932
GlyphClass: 2
Flags: W
LayerCount: 2
Fore
SplineSet
268 1483 m 1,0,-1
 272 1561 l 1,1,2
 355 1577 355 1577 432.5 1577 c 128,-1,3
 510 1577 510 1577 588.5 1544 c 128,-1,4
 667 1511 667 1511 721.5 1452.5 c 128,-1,5
 776 1394 776 1394 813 1311 c 0,6,7
 885 1149 885 1149 885 920 c 0,8,9
 885 632 885 632 766 365 c 0,10,11
 632 65 632 65 410 -54 c 0,12,13
 287 -121 287 -121 145 -121 c 0,14,15
 75 -121 75 -121 14 -106 c 1,16,-1
 18 -4 l 1,17,18
 55 -10 55 -10 90 -10 c 0,19,20
 187 -10 187 -10 272.5 34 c 128,-1,21
 358 78 358 78 419.5 152.5 c 128,-1,22
 481 227 481 227 530 322 c 128,-1,23
 579 417 579 417 608 524 c 0,24,25
 668 738 668 738 668 930 c 0,26,27
 668 1206 668 1206 562 1360 c 0,28,29
 523 1415 523 1415 459 1450 c 128,-1,30
 395 1485 395 1485 313 1485 c 0,31,32
 285 1485 285 1485 268 1483 c 1,0,-1
EndSplineSet
EndChar

StartChar: asterisk
Encoding: 42 42 14
Width: 870
GlyphClass: 2
Flags: W
LayerCount: 2
Fore
SplineSet
469 1462 m 2,0,1
 545 1462 545 1462 545 1409 c 0,2,3
 545 1339 545 1339 459 1081 c 1,4,5
 494 1098 494 1098 562 1144 c 0,6,7
 725 1253 725 1253 757.5 1253 c 128,-1,8
 790 1253 790 1253 814 1210.5 c 128,-1,9
 838 1168 838 1168 838 1145 c 128,-1,10
 838 1122 838 1122 817 1107.5 c 128,-1,11
 796 1093 796 1093 755.5 1082 c 128,-1,12
 715 1071 715 1071 674 1063 c 0,13,14
 527 1034 527 1034 479 1022 c 1,15,16
 509 988 509 988 575 928.5 c 128,-1,17
 641 869 641 869 680 826 c 128,-1,18
 719 783 719 783 719 756 c 128,-1,19
 719 729 719 729 684.5 698.5 c 128,-1,20
 650 668 650 668 627.5 668 c 128,-1,21
 605 668 605 668 573 708.5 c 128,-1,22
 541 749 541 749 509 808 c 0,23,24
 445 928 445 928 420 987 c 1,25,26
 386 908 386 908 316 789 c 128,-1,27
 246 670 246 670 211 670 c 0,28,29
 186 670 186 670 154.5 699.5 c 128,-1,30
 123 729 123 729 123 757 c 128,-1,31
 123 785 123 785 160 828 c 128,-1,32
 197 871 197 871 266 933 c 128,-1,33
 335 995 335 995 362 1024 c 1,34,35
 176 1067 176 1067 129 1083 c 0,36,37
 35 1116 35 1116 35 1153 c 0,38,39
 35 1181 35 1181 57 1223.5 c 128,-1,40
 79 1266 79 1266 100 1266 c 128,-1,41
 121 1266 121 1266 166.5 1241 c 128,-1,42
 212 1216 212 1216 256 1186 c 0,43,44
 383 1100 383 1100 391 1094 c 1,45,-1
 393 1137 l 1,46,-1
 383 1352 l 1,47,48
 383 1406 383 1406 394.5 1434 c 128,-1,49
 406 1462 406 1462 430 1462 c 2,50,-1
 469 1462 l 2,0,1
EndSplineSet
EndChar

StartChar: plus
Encoding: 43 43 15
Width: 1120
GlyphClass: 2
Flags: W
LayerCount: 2
Fore
SplineSet
799 416 m 2,0,-1
 662 418 l 1,1,-1
 584 418 l 1,2,-1
 516 145 l 2,3,4
 512 127 512 127 487.5 111.5 c 128,-1,5
 463 96 463 96 425 96 c 128,-1,6
 387 96 387 96 387 129 c 0,7,8
 387 146 387 146 391 154 c 1,9,-1
 453 412 l 1,10,-1
 209 399 l 1,11,12
 160 399 160 399 160 426 c 128,-1,13
 160 453 160 453 168 472.5 c 128,-1,14
 176 492 176 492 188 502 c 0,15,16
 211 522 211 522 229 526 c 1,17,18
 308 539 308 539 483 547 c 1,19,-1
 498 602 l 1,20,21
 504 634 504 634 519 700 c 128,-1,22
 534 766 534 766 541 801 c 0,23,24
 544 815 544 815 578 827.5 c 128,-1,25
 612 840 612 840 641 840 c 0,26,27
 662 840 662 840 662 784 c 128,-1,28
 662 728 662 728 639 631 c 1,29,-1
 618 551 l 1,30,31
 651 553 651 553 719 553 c 0,32,33
 920 553 920 553 920 516 c 0,34,35
 920 487 920 487 878 451.5 c 128,-1,36
 836 416 836 416 799 416 c 2,0,-1
EndSplineSet
EndChar

StartChar: comma
Encoding: 44 44 16
Width: 483
GlyphClass: 2
Flags: W
LayerCount: 2
Fore
SplineSet
154 155.5 m 128,-1,1
 195 207 195 207 251.5 207 c 128,-1,2
 308 207 308 207 332 177 c 128,-1,3
 356 147 356 147 356 107 c 128,-1,4
 356 67 356 67 342.5 29.5 c 128,-1,5
 329 -8 329 -8 303.5 -56 c 128,-1,6
 278 -104 278 -104 260 -137 c 0,7,8
 194 -254 194 -254 184 -264 c 1,9,-1
 127 -244 l 1,10,11
 166 -137 166 -137 190 -29 c 1,12,13
 151 -29 151 -29 132 -7 c 128,-1,14
 113 15 113 15 113 59.5 c 128,-1,0
 113 104 113 104 154 155.5 c 128,-1,1
EndSplineSet
EndChar

StartChar: hyphen
Encoding: 45 45 17
Width: 862
GlyphClass: 2
Flags: W
LayerCount: 2
Fore
SplineSet
655 614 m 2,0,-1
 518 616 l 1,1,2
 440 616 440 616 213 598 c 1,3,4
 156 598 156 598 156 639 c 0,5,6
 156 711 156 711 205 725 c 1,7,8
 235 731 235 731 366 741.5 c 128,-1,9
 497 752 497 752 547 752 c 0,10,11
 756 752 756 752 756 711 c 0,12,13
 756 681 756 681 724.5 647.5 c 128,-1,14
 693 614 693 614 655 614 c 2,0,-1
EndSplineSet
EndChar

StartChar: period
Encoding: 46 46 18
Width: 422
GlyphClass: 2
Flags: W
LayerCount: 2
Fore
SplineSet
276 22.5 m 128,-1,1
 224 -29 224 -29 170 -29 c 0,2,3
 78 -29 78 -29 78 49 c 0,4,5
 78 104 78 104 119 155.5 c 128,-1,6
 160 207 160 207 216.5 207 c 128,-1,7
 273 207 273 207 300.5 185 c 128,-1,8
 328 163 328 163 328 118.5 c 128,-1,0
 328 74 328 74 276 22.5 c 128,-1,1
EndSplineSet
EndChar

StartChar: slash
Encoding: 47 47 19
Width: 1014
GlyphClass: 2
Flags: W
LayerCount: 2
Fore
SplineSet
778 1374 m 0,0,1
 817 1500 817 1500 856.5 1539.5 c 128,-1,2
 896 1579 896 1579 987 1579 c 0,3,4
 995 1579 995 1579 1001.5 1569 c 128,-1,5
 1008 1559 1008 1559 1008 1544 c 128,-1,6
 1008 1529 1008 1529 1001 1513 c 2,7,-1
 223 -43 l 2,8,9
 217 -54 217 -54 204.5 -84 c 128,-1,10
 192 -114 192 -114 180.5 -133.5 c 128,-1,11
 169 -153 169 -153 150 -176 c 0,12,13
 110 -223 110 -223 29 -223 c 0,14,15
 6 -223 6 -223 6 -191 c 128,-1,16
 6 -159 6 -159 39 -101.5 c 128,-1,17
 72 -44 72 -44 94.5 16 c 128,-1,18
 117 76 117 76 290 418.5 c 128,-1,19
 463 761 463 761 618.5 1060 c 128,-1,20
 774 1359 774 1359 778 1374 c 0,0,1
EndSplineSet
EndChar

StartChar: zero
Encoding: 48 48 20
Width: 1210
GlyphClass: 2
Flags: W
LayerCount: 2
Fore
SplineSet
80 547 m 0,0,1
 80 785 80 785 190 1052 c 0,2,3
 270 1246 270 1246 406 1379 c 0,4,5
 548 1518 548 1518 727 1518 c 0,6,7
 961 1518 961 1518 1060 1313 c 0,8,9
 1128 1174 1128 1174 1128 977 c 0,10,11
 1128 790 1128 790 1081.5 624 c 128,-1,12
 1035 458 1035 458 976.5 349.5 c 128,-1,13
 918 241 918 241 842.5 156 c 128,-1,14
 767 71 767 71 662.5 21 c 128,-1,15
 558 -29 558 -29 459.5 -29 c 128,-1,16
 361 -29 361 -29 300 6 c 0,17,18
 192 67 192 67 136 219.5 c 128,-1,19
 80 372 80 372 80 547 c 0,0,1
890.5 1305 m 128,-1,21
 859 1327 859 1327 821.5 1327 c 128,-1,22
 784 1327 784 1327 750 1314 c 0,23,24
 704 1295 704 1295 641 1247 c 1,25,26
 456 1096 456 1096 354.5 853 c 128,-1,27
 253 610 253 610 253 383 c 0,28,29
 253 357 253 357 254 332 c 0,30,31
 263 143 263 143 383 143 c 0,32,33
 465 143 465 143 546 193.5 c 128,-1,34
 627 244 627 244 691.5 325.5 c 128,-1,35
 756 407 756 407 811 510 c 0,36,37
 916 709 916 709 956 924 c 0,38,39
 972 1005 972 1005 972 1044 c 128,-1,40
 972 1083 972 1083 970.5 1109.5 c 128,-1,41
 969 1136 969 1136 961.5 1172.5 c 128,-1,42
 954 1209 954 1209 938 1246 c 128,-1,20
 922 1283 922 1283 890.5 1305 c 128,-1,21
EndSplineSet
EndChar

StartChar: one
Encoding: 49 49 21
Width: 709
GlyphClass: 2
Flags: W
LayerCount: 2
Fore
SplineSet
649 1518 m 0,0,1
 674 1518 674 1518 674 1490 c 128,-1,2
 674 1462 674 1462 672 1452 c 2,3,-1
 395 221 l 1,4,5
 379 78 379 78 363 39 c 128,-1,6
 347 0 347 0 326 0 c 2,7,-1
 123 0 l 2,8,9
 96 0 96 0 96 46 c 128,-1,10
 96 92 96 92 118 192.5 c 128,-1,11
 140 293 140 293 164 385.5 c 128,-1,12
 188 478 188 478 219 590.5 c 128,-1,13
 250 703 250 703 328 1006.5 c 128,-1,14
 406 1310 406 1310 408 1313 c 1,15,16
 316 1240 316 1240 202 1162.5 c 128,-1,17
 88 1085 88 1085 49 1085 c 1,18,19
 23 1095 23 1095 23 1124.5 c 128,-1,20
 23 1154 23 1154 84 1192 c 0,21,22
 596 1518 596 1518 649 1518 c 0,0,1
EndSplineSet
EndChar

StartChar: two
Encoding: 50 50 22
Width: 1149
GlyphClass: 2
Flags: W
LayerCount: 2
Fore
SplineSet
339.5 -15.5 m 128,-1,1
 198 -29 198 -29 127.5 -29 c 128,-1,2
 57 -29 57 -29 57 18 c 0,3,4
 57 46 57 46 109.5 95 c 128,-1,5
 162 144 162 144 230 206 c 2,6,-1
 349 314 l 2,7,8
 666 603 666 603 778 827 c 0,9,10
 854 980 854 980 854 1125 c 128,-1,11
 854 1270 854 1270 812 1339.5 c 128,-1,12
 770 1409 770 1409 676 1409 c 0,13,14
 567 1409 567 1409 461 1311 c 0,15,16
 409 1263 409 1263 375.5 1181.5 c 128,-1,17
 342 1100 342 1100 342 999 c 1,18,19
 383 941 383 941 440 914 c 1,20,21
 487 890 487 890 487 852 c 0,22,23
 487 835 487 835 475 820 c 128,-1,24
 463 805 463 805 435.5 805 c 128,-1,25
 408 805 408 805 281 894 c 128,-1,26
 154 983 154 983 154 1006 c 0,27,28
 154 1125 154 1125 193 1223 c 128,-1,29
 232 1321 232 1321 298 1385 c 0,30,31
 437 1518 437 1518 641 1518 c 0,32,33
 863 1518 863 1518 980 1395 c 0,34,35
 1085 1286 1085 1286 1085 1137 c 0,36,37
 1085 880 1085 880 830 588 c 1,38,39
 690 426 690 426 575 329 c 0,40,41
 390 174 390 174 334 137 c 1,42,43
 355 140 355 140 526.5 176.5 c 128,-1,44
 698 213 698 213 786 213 c 0,45,46
 934 213 934 213 934 145 c 0,47,48
 934 100 934 100 905 35.5 c 128,-1,49
 876 -29 876 -29 832.5 -29 c 128,-1,50
 789 -29 789 -29 694.5 -15.5 c 128,-1,51
 600 -2 600 -2 540.5 -2 c 128,-1,0
 481 -2 481 -2 339.5 -15.5 c 128,-1,1
EndSplineSet
EndChar

StartChar: three
Encoding: 51 51 23
Width: 1188
GlyphClass: 2
Flags: W
LayerCount: 2
Fore
SplineSet
543 1030 m 1,0,1
 538 977 538 977 504 977 c 0,2,3
 477 977 477 977 360.5 1054.5 c 128,-1,4
 244 1132 244 1132 244 1151 c 0,5,6
 244 1239 244 1239 309.5 1324 c 128,-1,7
 375 1409 375 1409 483 1463.5 c 128,-1,8
 591 1518 591 1518 684 1518 c 128,-1,9
 777 1518 777 1518 835 1510 c 128,-1,10
 893 1502 893 1502 948.5 1481.5 c 128,-1,11
 1004 1461 1004 1461 1042 1428 c 0,12,13
 1126 1353 1126 1353 1126 1212 c 128,-1,14
 1126 1071 1126 1071 1025.5 956.5 c 128,-1,15
 925 842 925 842 788 784 c 1,16,17
 893 755 893 755 958.5 667.5 c 128,-1,18
 1024 580 1024 580 1024 475.5 c 128,-1,19
 1024 371 1024 371 971.5 274 c 128,-1,20
 919 177 919 177 835.5 112 c 128,-1,21
 752 47 752 47 647.5 9 c 128,-1,22
 543 -29 543 -29 461 -29 c 128,-1,23
 379 -29 379 -29 314 -12 c 128,-1,24
 249 5 249 5 188.5 36 c 128,-1,25
 128 67 128 67 88.5 120.5 c 128,-1,26
 49 174 49 174 49 238 c 128,-1,27
 49 302 49 302 94.5 345.5 c 128,-1,28
 140 389 140 389 205 389 c 0,29,30
 266 389 266 389 284 308 c 1,31,32
 301 225 301 225 321 173 c 0,33,34
 359 76 359 76 450.5 76 c 128,-1,35
 542 76 542 76 618.5 142.5 c 128,-1,36
 695 209 695 209 736.5 305 c 128,-1,37
 778 401 778 401 778 493.5 c 128,-1,38
 778 586 778 586 732.5 643 c 128,-1,39
 687 700 687 700 592 700 c 1,40,-1
 549 698 l 1,41,42
 520 698 520 698 504.5 710 c 128,-1,43
 489 722 489 722 489 749.5 c 128,-1,44
 489 777 489 777 495.5 790 c 128,-1,45
 502 803 502 803 515.5 808 c 128,-1,46
 529 813 529 813 541.5 814.5 c 128,-1,47
 554 816 554 816 573 816 c 0,48,49
 671 816 671 816 747 891.5 c 128,-1,50
 823 967 823 967 862 1060.5 c 128,-1,51
 901 1154 901 1154 901 1240.5 c 128,-1,52
 901 1327 901 1327 859 1379.5 c 128,-1,53
 817 1432 817 1432 731 1432 c 0,54,55
 686 1432 686 1432 612.5 1383 c 128,-1,56
 539 1334 539 1334 481.5 1264.5 c 128,-1,57
 424 1195 424 1195 424 1145 c 1,58,59
 438 1122 438 1122 484.5 1082 c 128,-1,60
 531 1042 531 1042 543 1030 c 1,0,1
EndSplineSet
EndChar

StartChar: four
Encoding: 52 52 24
Width: 1264
GlyphClass: 2
Flags: W
LayerCount: 2
Fore
SplineSet
403 494 m 1,0,1
 503 463 503 463 608 444 c 1,2,3
 670 603 670 603 756 811 c 1,4,5
 773 838 773 838 860 838 c 2,6,-1
 952 838 l 1,7,8
 935 765 935 765 799 428 c 1,9,10
 930 428 930 428 1008 471 c 1,11,12
 1022 475 1022 475 1085.5 515 c 128,-1,13
 1149 555 1149 555 1196 594 c 1,14,-1
 1245 508 l 1,15,16
 1194 471 1194 471 1141 426.5 c 128,-1,17
 1088 382 1088 382 1060 358.5 c 128,-1,18
 1032 335 1032 335 994 312 c 0,19,20
 923 270 923 270 801 270 c 0,21,22
 760 270 760 270 737 272 c 1,23,-1
 666 96 l 1,24,25
 656 61 656 61 639 30.5 c 128,-1,26
 622 0 622 0 608 0 c 2,27,-1
 455 0 l 1,28,-1
 449 20 l 1,29,30
 515 204 515 204 549 291 c 1,31,32
 421 311 421 311 266 340 c 1,33,34
 185 297 185 297 129 297 c 0,35,36
 84 297 84 297 52 327 c 128,-1,37
 20 357 20 357 20 388.5 c 128,-1,38
 20 420 20 420 25.5 435.5 c 128,-1,39
 31 451 31 451 46 462 c 0,40,41
 68 477 68 477 104 489 c 2,42,-1
 215 528 l 1,43,-1
 508 1208 l 1,44,45
 575 1396 575 1396 597.5 1424 c 128,-1,46
 620 1452 620 1452 641 1472 c 128,-1,47
 662 1492 662 1492 687 1500 c 0,48,49
 743 1518 743 1518 799 1518 c 128,-1,50
 855 1518 855 1518 866 1499 c 1,51,52
 747 1228 747 1228 403 494 c 1,0,1
EndSplineSet
EndChar

StartChar: five
Encoding: 53 53 25
Width: 1327
GlyphClass: 2
Flags: W
LayerCount: 2
Fore
SplineSet
253 119 m 128,-1,1
 225 164 225 164 225 212.5 c 128,-1,2
 225 261 225 261 274.5 307.5 c 128,-1,3
 324 354 324 354 401 354 c 1,4,5
 401 259 401 259 432 195 c 1,6,7
 488 74 488 74 618 74 c 0,8,9
 857 74 857 74 956 282 c 0,10,11
 1006 387 1006 387 1006 494.5 c 128,-1,12
 1006 602 1006 602 917.5 683 c 128,-1,13
 829 764 829 764 709 764 c 128,-1,14
 589 764 589 764 475 633 c 1,15,16
 445 637 445 637 434 659 c 1,17,18
 461 772 461 772 550.5 1108 c 128,-1,19
 640 1444 640 1444 655 1458.5 c 128,-1,20
 670 1473 670 1473 680 1473 c 2,21,-1
 686 1473 l 1,22,23
 943 1448 943 1448 1068.5 1448 c 128,-1,24
 1194 1448 1194 1448 1364 1468 c 1,25,-1
 1421 1450 l 1,26,27
 1417 1409 1417 1409 1397.5 1374.5 c 128,-1,28
 1378 1340 1378 1340 1354 1295.5 c 128,-1,29
 1330 1251 1330 1251 1304.5 1228.5 c 128,-1,30
 1279 1206 1279 1206 1203 1203 c 1,31,-1
 1149 1202 l 1,32,33
 973 1202 973 1202 879 1249 c 0,34,35
 868 1255 868 1255 840 1272 c 0,36,37
 785 1307 785 1307 745 1307 c 1,38,39
 730 1259 730 1259 695 1157 c 0,40,41
 612 914 612 914 600 866 c 1,42,43
 745 946 745 946 888.5 946 c 128,-1,44
 1032 946 1032 946 1135.5 844.5 c 128,-1,45
 1239 743 1239 743 1239 602 c 128,-1,46
 1239 461 1239 461 1182 346 c 128,-1,47
 1125 231 1125 231 1033 149.5 c 128,-1,48
 941 68 941 68 821.5 19.5 c 128,-1,49
 702 -29 702 -29 580 -29 c 0,50,51
 504 -29 504 -29 434 -4 c 128,-1,52
 364 21 364 21 322.5 47.5 c 128,-1,0
 281 74 281 74 253 119 c 128,-1,1
EndSplineSet
EndChar

StartChar: six
Encoding: 54 54 26
Width: 1094
GlyphClass: 2
Flags: W
LayerCount: 2
Fore
SplineSet
128.5 112 m 128,-1,1
 90 177 90 177 77.5 244 c 128,-1,2
 65 311 65 311 65 398.5 c 128,-1,3
 65 486 65 486 103 597.5 c 128,-1,4
 141 709 141 709 181.5 787 c 128,-1,5
 222 865 222 865 289 962 c 0,6,7
 380 1093 380 1093 496 1235 c 128,-1,8
 612 1377 612 1377 663.5 1419.5 c 128,-1,9
 715 1462 715 1462 767 1462 c 2,10,-1
 923 1462 l 1,11,12
 673 1205 673 1205 549 1036 c 1,13,14
 402 833 402 833 353 714 c 1,15,16
 253 477 253 477 253 295 c 0,17,18
 253 217 253 217 263.5 189 c 128,-1,19
 274 161 274 161 286.5 143 c 128,-1,20
 299 125 299 125 317 114 c 0,21,22
 358 88 358 88 419.5 88 c 128,-1,23
 481 88 481 88 548 144 c 128,-1,24
 615 200 615 200 666 278.5 c 128,-1,25
 717 357 717 357 752 441 c 128,-1,26
 787 525 787 525 789.5 565 c 128,-1,27
 792 605 792 605 792 634.5 c 128,-1,28
 792 664 792 664 784 700.5 c 128,-1,29
 776 737 776 737 760 761.5 c 128,-1,30
 744 786 744 786 702 798 c 0,31,32
 645 813 645 813 519 813 c 1,33,34
 547 867 547 867 583.5 885 c 128,-1,35
 620 903 620 903 683 903 c 0,36,37
 856 903 856 903 936.5 834.5 c 128,-1,38
 1017 766 1017 766 1017 629 c 0,39,40
 1017 494 1017 494 959.5 372.5 c 128,-1,41
 902 251 902 251 821 164.5 c 128,-1,42
 740 78 740 78 629 24.5 c 128,-1,43
 518 -29 518 -29 412.5 -29 c 128,-1,44
 307 -29 307 -29 237 9 c 128,-1,0
 167 47 167 47 128.5 112 c 128,-1,1
EndSplineSet
EndChar

StartChar: seven
Encoding: 55 55 27
Width: 1022
GlyphClass: 2
Flags: W
LayerCount: 2
Fore
SplineSet
1004 1354 m 1,0,1
 935 1206 935 1206 810 978 c 0,2,3
 510 427 510 427 403 139 c 0,4,5
 392 109 392 109 367.5 54.5 c 128,-1,6
 343 0 343 0 344 0 c 2,7,-1
 115 0 l 1,8,9
 181 309 181 309 412 686 c 1,10,11
 525 868 525 868 642 1038.5 c 128,-1,12
 759 1209 759 1209 770 1225 c 1,13,14
 694 1182 694 1182 545 1157.5 c 128,-1,15
 396 1133 396 1133 283 1133 c 128,-1,16
 170 1133 170 1133 125 1141 c 128,-1,17
 80 1149 80 1149 80 1176 c 0,18,19
 80 1197 80 1197 94 1221 c 128,-1,20
 108 1245 108 1245 112 1252 c 0,21,22
 129 1284 129 1284 134 1293 c 128,-1,23
 139 1302 139 1302 146.5 1322 c 128,-1,24
 154 1342 154 1342 160 1355.5 c 128,-1,25
 166 1369 166 1369 175 1386 c 0,26,27
 194 1421 194 1421 215 1421 c 1,28,29
 403 1399 403 1399 513 1399 c 128,-1,30
 623 1399 623 1399 749.5 1411 c 128,-1,31
 876 1423 876 1423 956 1423 c 0,32,33
 966 1423 966 1423 987 1407 c 128,-1,34
 1008 1391 1008 1391 1008 1378.5 c 128,-1,35
 1008 1366 1008 1366 1004 1354 c 1,0,1
EndSplineSet
EndChar

StartChar: eight
Encoding: 56 56 28
Width: 1286
GlyphClass: 2
Flags: W
LayerCount: 2
Fore
SplineSet
580 -38.5 m 128,-1,1
 495 -57 495 -57 418.5 -57 c 128,-1,2
 342 -57 342 -57 278 -38 c 128,-1,3
 214 -19 214 -19 163 18 c 0,4,5
 53 99 53 99 53 262 c 0,6,7
 53 329 53 329 86 393 c 128,-1,8
 119 457 119 457 167 504 c 128,-1,9
 215 551 215 551 263.5 589 c 128,-1,10
 312 627 312 627 348.5 654 c 128,-1,11
 385 681 385 681 389 692 c 1,12,13
 221 837 221 837 221 956.5 c 128,-1,14
 221 1076 221 1076 279.5 1178 c 128,-1,15
 338 1280 338 1280 433 1354 c 128,-1,16
 528 1428 528 1428 654 1473 c 128,-1,17
 780 1518 780 1518 911 1518 c 0,18,19
 967 1518 967 1518 1030 1506 c 0,20,21
 1149 1482 1149 1482 1149 1429.5 c 128,-1,22
 1149 1377 1149 1377 1111.5 1323.5 c 128,-1,23
 1074 1270 1074 1270 1036 1270 c 1,24,25
 1029 1281 1029 1281 1003.5 1305.5 c 128,-1,26
 978 1330 978 1330 954 1346 c 0,27,28
 893 1386 893 1386 819 1386 c 0,29,30
 687 1386 687 1386 593.5 1308.5 c 128,-1,31
 500 1231 500 1231 500 1128 c 0,32,33
 500 990 500 990 674 895 c 1,34,35
 688 902 688 902 820 978 c 0,36,37
 1102 1138 1102 1138 1210 1143 c 1,38,-1
 1243 1096 l 1,39,40
 1209 1077 1209 1077 1134 1036 c 128,-1,41
 1059 995 1059 995 1016 970 c 0,42,43
 902 906 902 906 786 811 c 1,44,45
 942 671 942 671 987 588 c 0,46,47
 1038 494 1038 494 1038 403.5 c 128,-1,48
 1038 313 1038 313 998.5 238 c 128,-1,49
 959 163 959 163 894 110 c 128,-1,50
 829 57 829 57 747 18.5 c 128,-1,0
 665 -20 665 -20 580 -38.5 c 128,-1,1
508 590 m 1,51,52
 272 405 272 405 272 215 c 0,53,54
 272 140 272 140 322 90.5 c 128,-1,55
 372 41 372 41 472.5 41 c 128,-1,56
 573 41 573 41 664.5 113.5 c 128,-1,57
 756 186 756 186 756 284.5 c 128,-1,58
 756 383 756 383 684 460.5 c 128,-1,59
 612 538 612 538 508 590 c 1,51,52
EndSplineSet
EndChar

StartChar: nine
Encoding: 57 57 29
Width: 1094
GlyphClass: 2
Flags: W
LayerCount: 2
Fore
SplineSet
825 1174 m 0,0,1
 825 1403 825 1403 662 1403 c 0,2,3
 590 1403 590 1403 518.5 1352 c 128,-1,4
 447 1301 447 1301 395.5 1224 c 128,-1,5
 344 1147 344 1147 311.5 1054 c 128,-1,6
 279 961 279 961 279 869 c 128,-1,7
 279 777 279 777 332 714 c 128,-1,8
 385 651 385 651 496 651 c 0,9,10
 539 651 539 651 563 653 c 1,11,12
 553 550 553 550 460 540 c 0,13,14
 445 539 445 539 424 539 c 0,15,16
 262 539 262 539 152.5 635 c 128,-1,17
 43 731 43 731 43 895 c 0,18,19
 43 1010 43 1010 90 1123 c 128,-1,20
 137 1236 137 1236 215.5 1322.5 c 128,-1,21
 294 1409 294 1409 406.5 1462.5 c 128,-1,22
 519 1516 519 1516 641 1516 c 0,23,24
 830 1516 830 1516 933 1401.5 c 128,-1,25
 1036 1287 1036 1287 1036 1092 c 0,26,27
 1036 1066 1036 1066 1026.5 966.5 c 128,-1,28
 1017 867 1017 867 959 686 c 128,-1,29
 901 505 901 505 822.5 346 c 128,-1,30
 744 187 744 187 644 79 c 128,-1,31
 544 -29 544 -29 455 -29 c 2,32,-1
 315 -29 l 1,33,34
 825 750 825 750 825 1174 c 0,0,1
EndSplineSet
EndChar

StartChar: colon
Encoding: 58 58 30
Width: 422
GlyphClass: 2
Flags: W
LayerCount: 2
Fore
SplineSet
276 780.5 m 128,-1,1
 224 729 224 729 170 729 c 0,2,3
 78 729 78 729 78 807 c 0,4,5
 78 861 78 861 119 913 c 128,-1,6
 160 965 160 965 216.5 965 c 128,-1,7
 273 965 273 965 300.5 943 c 128,-1,8
 328 921 328 921 328 876.5 c 128,-1,0
 328 832 328 832 276 780.5 c 128,-1,1
276 22.5 m 128,-1,10
 224 -29 224 -29 170 -29 c 0,11,12
 78 -29 78 -29 78 49 c 0,13,14
 78 104 78 104 119 155.5 c 128,-1,15
 160 207 160 207 216.5 207 c 128,-1,16
 273 207 273 207 300.5 185 c 128,-1,17
 328 163 328 163 328 118.5 c 128,-1,9
 328 74 328 74 276 22.5 c 128,-1,10
EndSplineSet
EndChar

StartChar: semicolon
Encoding: 59 59 31
Width: 483
GlyphClass: 2
Flags: W
LayerCount: 2
Fore
SplineSet
154 155.5 m 128,-1,1
 195 207 195 207 251.5 207 c 128,-1,2
 308 207 308 207 332 177 c 128,-1,3
 356 147 356 147 356 107 c 128,-1,4
 356 67 356 67 342.5 29.5 c 128,-1,5
 329 -8 329 -8 303.5 -56 c 128,-1,6
 278 -104 278 -104 260 -137 c 0,7,8
 194 -254 194 -254 184 -264 c 1,9,-1
 127 -244 l 1,10,11
 166 -137 166 -137 190 -29 c 1,12,13
 151 -29 151 -29 132 -7 c 128,-1,14
 113 15 113 15 113 59.5 c 128,-1,0
 113 104 113 104 154 155.5 c 128,-1,1
360 780.5 m 128,-1,16
 308 729 308 729 254 729 c 0,17,18
 162 729 162 729 162 807 c 0,19,20
 162 861 162 861 203 913 c 128,-1,21
 244 965 244 965 300.5 965 c 128,-1,22
 357 965 357 965 384.5 943 c 128,-1,23
 412 921 412 921 412 876.5 c 128,-1,15
 412 832 412 832 360 780.5 c 128,-1,16
EndSplineSet
EndChar

StartChar: less
Encoding: 60 60 32
Width: 1544
GlyphClass: 2
Flags: W
LayerCount: 2
Fore
SplineSet
1067 397 m 1,0,1
 1197 194 1197 194 1326 52 c 1,2,3
 1432 -67 1432 -67 1432 -113 c 0,4,5
 1432 -140 1432 -140 1405.5 -154 c 128,-1,6
 1379 -168 1379 -168 1337.5 -168 c 128,-1,7
 1296 -168 1296 -168 1261 -143 c 128,-1,8
 1226 -118 1226 -118 1182 -78 c 128,-1,9
 1138 -38 1138 -38 1097.5 10 c 128,-1,10
 1057 58 1057 58 1025.5 99 c 128,-1,11
 994 140 994 140 956 199.5 c 128,-1,12
 918 259 918 259 894 297 c 128,-1,13
 870 335 870 335 830.5 402.5 c 128,-1,14
 791 470 791 470 757 523.5 c 128,-1,15
 723 577 723 577 723 604.5 c 128,-1,16
 723 632 723 632 727.5 645 c 128,-1,17
 732 658 732 658 744.5 674.5 c 128,-1,18
 757 691 757 691 768.5 704 c 128,-1,19
 780 717 780 717 805 744 c 128,-1,20
 830 771 830 771 876 823 c 128,-1,21
 922 875 922 875 1000 963.5 c 128,-1,22
 1078 1052 1078 1052 1116 1096 c 128,-1,23
 1154 1140 1154 1140 1197.5 1188 c 128,-1,24
 1241 1236 1241 1236 1260 1256 c 128,-1,25
 1279 1276 1279 1276 1303 1299 c 0,26,27
 1337 1331 1337 1331 1374.5 1352.5 c 128,-1,28
 1412 1374 1412 1374 1449.5 1374 c 128,-1,29
 1487 1374 1487 1374 1513.5 1360 c 128,-1,30
 1540 1346 1540 1346 1540 1322 c 128,-1,31
 1540 1298 1540 1298 1509 1271.5 c 128,-1,32
 1478 1245 1478 1245 1433.5 1218 c 128,-1,33
 1389 1191 1389 1191 1325 1137 c 128,-1,34
 1261 1083 1261 1083 1210 1018 c 0,35,36
 1095 869 1095 869 893 649 c 1,37,-1
 1067 397 l 1,0,1
EndSplineSet
EndChar

StartChar: equal
Encoding: 61 61 33
Width: 1120
GlyphClass: 2
Flags: W
LayerCount: 2
Fore
SplineSet
852 614 m 2,0,-1
 715 616 l 1,1,2
 594 616 594 616 266 598 c 1,3,4
 209 598 209 598 209 639 c 0,5,6
 209 710 209 710 258 725 c 1,7,8
 294 732 294 732 447 742 c 128,-1,9
 600 752 600 752 776 752 c 128,-1,10
 952 752 952 752 952 711 c 0,11,12
 952 681 952 681 920.5 647.5 c 128,-1,13
 889 614 889 614 852 614 c 2,0,-1
811 389 m 2,14,-1
 674 391 l 1,15,16
 553 391 553 391 225 373 c 1,17,18
 168 373 168 373 168 414 c 0,19,20
 168 485 168 485 217 500 c 1,21,22
 252 507 252 507 405.5 516.5 c 128,-1,23
 559 526 559 526 735 526 c 128,-1,24
 911 526 911 526 911 485 c 0,25,26
 911 455 911 455 879.5 422 c 128,-1,27
 848 389 848 389 811 389 c 2,14,-1
EndSplineSet
EndChar

StartChar: greater
Encoding: 62 62 34
Width: 1544
GlyphClass: 2
Flags: W
LayerCount: 2
Fore
SplineSet
1145 397 m 1,0,-1
 1380 649 l 1,1,2
 1232 870 1232 870 1175.5 975 c 128,-1,3
 1119 1080 1119 1080 1071 1133 c 128,-1,4
 1023 1186 1023 1186 986 1212 c 0,5,6
 895 1278 895 1278 895 1310 c 128,-1,7
 895 1342 895 1342 926.5 1358 c 128,-1,8
 958 1374 958 1374 991 1374 c 128,-1,9
 1024 1374 1024 1374 1042 1370 c 128,-1,10
 1060 1366 1060 1366 1081 1351 c 128,-1,11
 1102 1336 1102 1336 1118.5 1318.5 c 128,-1,12
 1135 1301 1135 1301 1163.5 1259.5 c 128,-1,13
 1192 1218 1192 1218 1218 1176.5 c 128,-1,14
 1244 1135 1244 1135 1272.5 1090 c 128,-1,15
 1301 1045 1301 1045 1321 1007.5 c 128,-1,16
 1341 970 1341 970 1403.5 875 c 128,-1,17
 1466 780 1466 780 1505 718.5 c 128,-1,18
 1544 657 1544 657 1544 635 c 0,19,20
 1544 590 1544 590 1468 504 c 0,21,22
 1444 476 1444 476 1370 387.5 c 128,-1,23
 1296 299 1296 299 1264 262 c 128,-1,24
 1232 225 1232 225 1164.5 151.5 c 128,-1,25
 1097 78 1097 78 1050 35 c 0,26,27
 923 -79 923 -79 805 -152 c 0,28,29
 778 -168 778 -168 733 -168 c 0,30,31
 655 -168 655 -168 655 -125 c 0,32,33
 655 -92 655 -92 710.5 -37 c 128,-1,34
 766 18 766 18 897 140.5 c 128,-1,35
 1028 263 1028 263 1145 397 c 1,0,-1
EndSplineSet
EndChar

StartChar: question
Encoding: 63 63 35
Width: 999
GlyphClass: 2
Flags: W
LayerCount: 2
Fore
SplineSet
334 424 m 0,0,1
 258 424 258 424 258 465 c 0,2,3
 258 585 258 585 362 702 c 0,4,5
 424 771 424 771 528 861 c 128,-1,6
 632 951 632 951 678 998 c 0,7,8
 782 1106 782 1106 782 1206 c 0,9,10
 782 1273 782 1273 738 1324 c 1,11,12
 654 1425 654 1425 502 1425 c 0,13,14
 418 1425 418 1425 381.5 1407 c 128,-1,15
 345 1389 345 1389 325 1376.5 c 128,-1,16
 305 1364 305 1364 289 1342 c 128,-1,17
 273 1320 273 1320 262 1304 c 128,-1,18
 251 1288 251 1288 241 1260 c 128,-1,19
 231 1232 231 1232 225.5 1216.5 c 128,-1,20
 220 1201 220 1201 211.5 1170.5 c 128,-1,21
 203 1140 203 1140 199 1128 c 1,22,-1
 156 1130 l 2,23,24
 37 1135 37 1135 37 1227 c 0,25,26
 37 1256 37 1256 47 1278 c 1,27,28
 77 1356 77 1356 150 1413 c 0,29,30
 286 1518 286 1518 461 1518 c 0,31,32
 661 1518 661 1518 812 1430 c 0,33,34
 884 1387 884 1387 927.5 1317.5 c 128,-1,35
 971 1248 971 1248 971 1167 c 128,-1,36
 971 1086 971 1086 941 1019 c 128,-1,37
 911 952 911 952 863 904.5 c 128,-1,38
 815 857 815 857 756 815 c 128,-1,39
 697 773 697 773 637 736.5 c 128,-1,40
 577 700 577 700 526 665 c 0,41,42
 412 586 412 586 401 498 c 1,43,44
 391 461 391 461 372 442.5 c 128,-1,45
 353 424 353 424 334 424 c 0,0,1
403 22.5 m 128,-1,47
 351 -29 351 -29 298 -29 c 0,48,49
 205 -29 205 -29 205 49 c 0,50,51
 205 104 205 104 246 155.5 c 128,-1,52
 287 207 287 207 343.5 207 c 128,-1,53
 400 207 400 207 427.5 185 c 128,-1,54
 455 163 455 163 455 118.5 c 128,-1,46
 455 74 455 74 403 22.5 c 128,-1,47
EndSplineSet
EndChar

StartChar: at
Encoding: 64 64 36
Width: 1587
GlyphClass: 2
Flags: W
LayerCount: 2
Fore
SplineSet
1495 748.5 m 128,-1,1
 1526 643 1526 643 1526 534.5 c 128,-1,2
 1526 426 1526 426 1500.5 337.5 c 128,-1,3
 1475 249 1475 249 1428 172.5 c 128,-1,4
 1381 96 1381 96 1305 48 c 128,-1,5
 1229 0 1229 0 1131 0 c 128,-1,6
 1033 0 1033 0 966 55 c 128,-1,7
 899 110 899 110 899 199 c 1,8,9
 870 103 870 103 771.5 36 c 128,-1,10
 673 -31 673 -31 574.5 -31 c 128,-1,11
 476 -31 476 -31 415 32 c 128,-1,12
 354 95 354 95 354 214.5 c 128,-1,13
 354 334 354 334 408 445 c 128,-1,14
 462 556 462 556 550.5 643 c 128,-1,15
 639 730 639 730 762.5 785 c 128,-1,16
 886 840 886 840 1016 840 c 0,17,18
 1078 840 1078 840 1184 807 c 1,19,20
 1181 789 1181 789 1130.5 554 c 128,-1,21
 1080 319 1080 319 1072.5 279 c 128,-1,22
 1065 239 1065 239 1065 201 c 0,23,24
 1065 86 1065 86 1145 86 c 0,25,26
 1224 86 1224 86 1308 206 c 0,27,28
 1397 332 1397 332 1397 512 c 0,29,30
 1397 885 1397 885 1114 988 c 0,31,32
 1033 1018 1033 1018 922.5 1018 c 128,-1,33
 812 1018 812 1018 681.5 967.5 c 128,-1,34
 551 917 551 917 444.5 831.5 c 128,-1,35
 338 746 338 746 270.5 619 c 128,-1,36
 203 492 203 492 203 352 c 0,37,38
 203 98 203 98 354.5 -46 c 128,-1,39
 506 -190 506 -190 757.5 -190 c 128,-1,40
 1009 -190 1009 -190 1290 -76 c 1,41,-1
 1350 -199 l 1,42,43
 1101 -313 1101 -313 780 -313 c 0,44,45
 548 -313 548 -313 369 -218 c 0,46,47
 171 -113 171 -113 96 89 c 0,48,49
 55 199 55 199 55 335.5 c 128,-1,50
 55 472 55 472 107 599.5 c 128,-1,51
 159 727 159 727 248.5 823.5 c 128,-1,52
 338 920 338 920 452 992 c 0,53,54
 683 1139 683 1139 946 1139 c 0,55,56
 1253 1139 1253 1139 1411 926 c 0,57,0
 1464 854 1464 854 1495 748.5 c 128,-1,1
995 764 m 1,58,59
 887 764 887 764 786 687 c 128,-1,60
 685 610 685 610 626 498 c 128,-1,61
 567 386 567 386 567 289 c 128,-1,62
 567 192 567 192 597.5 146 c 128,-1,63
 628 100 628 100 678 100 c 128,-1,64
 728 100 728 100 783 146 c 128,-1,65
 838 192 838 192 881 272 c 1,66,-1
 995 764 l 1,58,59
EndSplineSet
EndChar

StartChar: A
Encoding: 65 65 37
Width: 1391
GlyphClass: 2
Flags: W
LayerCount: 2
Fore
SplineSet
1319 1272 m 0,0,1
 1346 1272 1346 1272 1346 1239 c 0,2,3
 1346 1227 1346 1227 1343 1223 c 1,4,5
 1255 987 1255 987 1130 329 c 0,6,7
 1105 198 1105 198 1134 174 c 0,8,9
 1143 166 1143 166 1157 166 c 0,10,11
 1211 166 1211 166 1253 198 c 0,12,13
 1320 249 1320 249 1513 442 c 1,14,-1
 1513 330 l 1,15,16
 1483 299 1483 299 1433.5 245.5 c 128,-1,17
 1384 192 1384 192 1356.5 163 c 128,-1,18
 1329 134 1329 134 1288 93.5 c 128,-1,19
 1247 53 1247 53 1218 30.5 c 128,-1,20
 1189 8 1189 8 1154 -15 c 0,21,22
 1090 -57 1090 -57 1034 -57 c 128,-1,23
 978 -57 978 -57 949 -36 c 0,24,25
 891 4 891 4 891 135 c 0,26,27
 891 164 891 164 895 193 c 1,28,29
 787 81 787 81 657 12 c 128,-1,30
 527 -57 527 -57 422 -57 c 0,31,32
 244 -57 244 -57 162 39.5 c 128,-1,33
 80 136 80 136 80 328 c 0,34,35
 80 466 80 466 131.5 612.5 c 128,-1,36
 183 759 183 759 271 889 c 128,-1,37
 359 1019 359 1019 480 1135.5 c 128,-1,38
 601 1252 601 1252 736 1336 c 0,39,40
 1028 1518 1028 1518 1313 1518 c 0,41,42
 1414 1518 1414 1518 1518 1486 c 0,43,44
 1716 1426 1716 1426 1716 1321 c 0,45,46
 1716 1279 1716 1279 1652.5 1221 c 128,-1,47
 1589 1163 1589 1163 1544 1151 c 1,48,49
 1486 1421 1486 1421 1253 1421 c 0,50,51
 1075 1421 1075 1421 854 1268 c 0,52,53
 643 1122 643 1122 494 903 c 0,54,55
 338 672 338 672 338 463 c 0,56,57
 338 304 338 304 414.5 219.5 c 128,-1,58
 491 135 491 135 625 135 c 0,59,60
 714 135 714 135 806 208.5 c 128,-1,61
 898 282 898 282 918.5 390 c 128,-1,62
 939 498 939 498 1013.5 818 c 128,-1,63
 1088 1138 1088 1138 1109.5 1205 c 128,-1,64
 1131 1272 1131 1272 1319 1272 c 0,0,1
EndSplineSet
EndChar

StartChar: B
Encoding: 66 66 38
Width: 1706
GlyphClass: 2
Flags: W
LayerCount: 2
Fore
SplineSet
211 303 m 1,0,-1
 209 213 l 1,1,2
 209 115 209 115 235 78 c 0,3,4
 262 41 262 41 312.5 41 c 128,-1,5
 363 41 363 41 401.5 68.5 c 128,-1,6
 440 96 440 96 468.5 145.5 c 128,-1,7
 497 195 497 195 519 249 c 128,-1,8
 541 303 541 303 558 372 c 0,9,10
 582 465 582 465 596 540.5 c 128,-1,11
 610 616 610 616 612 625 c 2,12,-1
 719 1192 l 1,13,14
 728 1249 728 1249 948 1249 c 1,15,16
 918 1020 918 1020 881 889 c 1,17,18
 881 885 881 885 844 709 c 0,19,20
 774 370 774 370 735 266 c 1,21,22
 764 186 764 186 849 132 c 128,-1,23
 934 78 934 78 1047.5 78 c 128,-1,24
 1161 78 1161 78 1226.5 156 c 128,-1,25
 1292 234 1292 234 1292 349 c 128,-1,26
 1292 464 1292 464 1227 581.5 c 128,-1,27
 1162 699 1162 699 1059 756 c 1,28,-1
 1059 872 l 1,29,30
 1195 879 1195 879 1281.5 943 c 128,-1,31
 1368 1007 1368 1007 1368 1106 c 0,32,33
 1368 1391 1368 1391 893 1391 c 0,34,35
 738 1391 738 1391 581 1322 c 0,36,37
 403 1245 403 1245 334 1135 c 0,38,39
 295 1072 295 1072 295 1004 c 0,40,41
 295 891 295 891 457 834 c 1,42,43
 457 745 457 745 434 668 c 1,44,45
 322 703 322 703 232 780 c 1,46,47
 133 867 133 867 133 985 c 128,-1,48
 133 1103 133 1103 204 1204 c 128,-1,49
 275 1305 275 1305 392 1373 c 0,50,51
 643 1518 643 1518 977 1518 c 0,52,53
 1275 1518 1275 1518 1432 1383 c 0,54,55
 1546 1286 1546 1286 1546 1126 c 0,56,57
 1546 1048 1546 1048 1512 991 c 128,-1,58
 1478 934 1478 934 1440 901 c 0,59,60
 1354 825 1354 825 1196 823 c 1,61,62
 1388 725 1388 725 1482.5 592 c 128,-1,63
 1577 459 1577 459 1577 346 c 128,-1,64
 1577 233 1577 233 1538 158.5 c 128,-1,65
 1499 84 1499 84 1432 38 c 0,66,67
 1296 -57 1296 -57 1118.5 -57 c 128,-1,68
 941 -57 941 -57 839.5 -4.5 c 128,-1,69
 738 48 738 48 674 156 c 1,70,71
 580 35 580 35 492.5 -11 c 128,-1,72
 405 -57 405 -57 301 -57 c 0,73,74
 202 -57 202 -57 112 -2 c 0,75,76
 69 24 69 24 41.5 70 c 128,-1,77
 14 116 14 116 14 172 c 0,78,79
 14 303 14 303 211 303 c 1,0,-1
EndSplineSet
EndChar

StartChar: C
Encoding: 67 67 39
Width: 1268
GlyphClass: 2
Flags: W
LayerCount: 2
Fore
SplineSet
1096 1149 m 1,0,1
 1042 1417 1042 1417 926 1417 c 1,2,3
 816 1413 816 1413 715.5 1366 c 128,-1,4
 615 1319 615 1319 540 1243 c 128,-1,5
 465 1167 465 1167 410 1071 c 0,6,7
 297 876 297 876 297 637 c 128,-1,8
 297 398 297 398 417.5 261.5 c 128,-1,9
 538 125 538 125 735 125 c 0,10,11
 890 125 890 125 1064 208.5 c 128,-1,12
 1238 292 1238 292 1403 451 c 1,13,-1
 1403 340 l 1,14,15
 983 -57 983 -57 616 -57 c 0,16,17
 308 -57 308 -57 164 210 c 1,18,19
 82 365 82 365 82 561 c 0,20,21
 82 842 82 842 237 1104 c 0,22,23
 342 1283 342 1283 521 1398 c 0,24,25
 707 1518 707 1518 956 1518 c 0,26,27
 1105 1518 1105 1518 1210 1415 c 128,-1,28
 1315 1312 1315 1312 1315 1178 c 0,29,30
 1315 1120 1315 1120 1270 1097.5 c 128,-1,31
 1225 1075 1225 1075 1048 978 c 1,32,33
 800 840 800 840 780 840 c 0,34,35
 741 840 741 840 741 881 c 0,36,37
 741 930 741 930 918 1007 c 0,38,39
 985 1036 985 1036 1040.5 1075 c 128,-1,40
 1096 1114 1096 1114 1096 1149 c 1,0,1
EndSplineSet
EndChar

StartChar: D
Encoding: 68 68 40
Width: 1726
GlyphClass: 2
Flags: W
LayerCount: 2
Fore
SplineSet
152 326 m 1,0,-1
 145 221 l 1,1,2
 145 139 145 139 170.5 90 c 128,-1,3
 196 41 196 41 264 41 c 0,4,5
 303 41 303 41 339 67.5 c 128,-1,6
 375 94 375 94 397 143 c 1,7,8
 471 295 471 295 543 594 c 1,9,-1
 662 1208 l 1,10,11
 675 1247 675 1247 791 1247 c 2,12,-1
 885 1247 l 1,13,14
 872 1173 872 1173 851 1017.5 c 128,-1,15
 830 862 830 862 814.5 767 c 128,-1,16
 799 672 799 672 757.5 531 c 128,-1,17
 716 390 716 390 655 264 c 1,18,19
 684 176 684 176 768 117.5 c 128,-1,20
 852 59 852 59 941.5 59 c 128,-1,21
 1031 59 1031 59 1117.5 109.5 c 128,-1,22
 1204 160 1204 160 1272.5 248 c 128,-1,23
 1341 336 1341 336 1383 468 c 128,-1,24
 1425 600 1425 600 1425 728.5 c 128,-1,25
 1425 857 1425 857 1404.5 950 c 128,-1,26
 1384 1043 1384 1043 1338.5 1125 c 128,-1,27
 1293 1207 1293 1207 1226 1266 c 0,28,29
 1082 1393 1082 1393 840 1393 c 0,30,31
 695 1393 695 1393 551.5 1335 c 128,-1,32
 408 1277 408 1277 318.5 1188 c 128,-1,33
 229 1099 229 1099 229 1014 c 0,34,35
 229 897 229 897 393 834 c 1,36,37
 393 788 393 788 384 737.5 c 128,-1,38
 375 687 375 687 367 672 c 1,39,40
 218 719 218 719 143 806.5 c 128,-1,41
 68 894 68 894 68 984.5 c 128,-1,42
 68 1075 68 1075 101 1147.5 c 128,-1,43
 134 1220 134 1220 206.5 1287.5 c 128,-1,44
 279 1355 279 1355 382 1406 c 0,45,46
 610 1518 610 1518 971 1518 c 0,47,48
 1115 1518 1115 1518 1235.5 1476 c 128,-1,49
 1356 1434 1356 1434 1437 1365 c 128,-1,50
 1518 1296 1518 1296 1575 1206 c 0,51,52
 1683 1034 1683 1034 1683 841.5 c 128,-1,53
 1683 649 1683 649 1626.5 485.5 c 128,-1,54
 1570 322 1570 322 1473.5 203 c 128,-1,55
 1377 84 1377 84 1240.5 13.5 c 128,-1,56
 1104 -57 1104 -57 950 -57 c 0,57,58
 722 -57 722 -57 584 133 c 1,59,60
 506 21 506 21 416 -17 c 128,-1,61
 326 -55 326 -55 211 -55 c 128,-1,62
 96 -55 96 -55 21.5 20.5 c 128,-1,63
 -53 96 -53 96 -53 184 c 0,64,65
 -53 326 -53 326 152 326 c 1,0,-1
EndSplineSet
EndChar

StartChar: E
Encoding: 69 69 41
Width: 1403
GlyphClass: 2
Flags: W
LayerCount: 2
Fore
SplineSet
616 240 m 1,0,-1
 674 238 l 2,1,2
 698 238 698 238 711 240 c 1,3,4
 718 238 718 238 804 205 c 0,5,6
 1030 119 1030 119 1071 119 c 128,-1,7
 1112 119 1112 119 1163 145 c 1,8,9
 1189 149 1189 149 1309.5 244.5 c 128,-1,10
 1430 340 1430 340 1524 438 c 1,11,-1
 1524 328 l 1,12,13
 1494 301 1494 301 1436 248.5 c 128,-1,14
 1378 196 1378 196 1351.5 173 c 128,-1,15
 1325 150 1325 150 1277 110 c 128,-1,16
 1229 70 1229 70 1201 51.5 c 128,-1,17
 1173 33 1173 33 1130 7.5 c 128,-1,18
 1087 -18 1087 -18 1054 -29 c 0,19,20
 968 -57 968 -57 893 -57 c 0,21,22
 887 -57 887 -57 873.5 -49 c 128,-1,23
 860 -41 860 -41 844 -33 c 128,-1,24
 828 -25 828 -25 795 -11.5 c 128,-1,25
 762 2 762 2 718 18 c 0,26,27
 640 48 640 48 442 109 c 1,28,29
 351 37 351 37 258.5 -10 c 128,-1,30
 166 -57 166 -57 100 -57 c 0,31,32
 77 -57 77 -57 49 -44 c 0,33,34
 -8 -18 -8 -18 -8 43 c 0,35,36
 -8 96 -8 96 114 148 c 0,37,38
 139 159 139 159 145 162 c 2,39,-1
 401 279 l 1,40,41
 427 317 427 317 514 631 c 1,42,43
 447 622 447 622 387 609 c 128,-1,44
 327 596 327 596 314 595.5 c 128,-1,45
 301 595 301 595 287.5 606 c 128,-1,46
 274 617 274 617 274 644 c 0,47,48
 274 689 274 689 326 702 c 1,49,50
 393 728 393 728 551 760 c 1,51,52
 666 1165 666 1165 737 1262 c 0,53,54
 774 1314 774 1314 842 1360 c 1,55,56
 741 1368 741 1368 635 1368 c 0,57,58
 385 1368 385 1368 267.5 1308 c 128,-1,59
 150 1248 150 1248 150 1143 c 0,60,61
 150 1087 150 1087 201 1037 c 128,-1,62
 252 987 252 987 346 952 c 1,63,64
 346 917 346 917 337 875.5 c 128,-1,65
 328 834 328 834 317 825 c 1,66,67
 163 879 163 879 82.5 957.5 c 128,-1,68
 2 1036 2 1036 2 1120 c 0,69,70
 2 1299 2 1299 178 1408.5 c 128,-1,71
 354 1518 354 1518 657 1518 c 2,72,-1
 948 1518 l 2,73,74
 1569 1518 1569 1518 1569 1491 c 0,75,76
 1569 1479 1569 1479 1550 1460 c 1,77,-1
 1450 1346 l 1,78,79
 1398 1311 1398 1311 1345.5 1311 c 128,-1,80
 1293 1311 1293 1311 1158.5 1332 c 128,-1,81
 1024 1353 1024 1353 963 1356 c 1,82,83
 955 1326 955 1326 900.5 1119.5 c 128,-1,84
 846 913 846 913 809 795 c 1,85,86
 939 805 939 805 1047 805 c 128,-1,87
 1155 805 1155 805 1272 799 c 1,88,89
 1309 799 1309 799 1309 767.5 c 128,-1,90
 1309 736 1309 736 1277.5 703 c 128,-1,91
 1246 670 1246 670 1208 670 c 0,92,93
 913 670 913 670 774 659 c 1,94,-1
 774 657 l 1,95,96
 723 470 723 470 584 238 c 1,97,-1
 616 240 l 1,0,-1
EndSplineSet
EndChar

StartChar: F
Encoding: 70 70 42
Width: 1313
GlyphClass: 2
Flags: W
LayerCount: 2
Fore
SplineSet
899 1339 m 1,0,-1
 854 1341 l 1,1,2
 738 1341 738 1341 625.5 1312 c 128,-1,3
 513 1283 513 1283 431 1237.5 c 128,-1,4
 349 1192 349 1192 298.5 1134.5 c 128,-1,5
 248 1077 248 1077 248 1022 c 0,6,7
 248 900 248 900 408 829 c 1,8,9
 408 787 408 787 398 730.5 c 128,-1,10
 388 674 388 674 379 662 c 1,11,12
 220 727 220 727 141.5 820 c 128,-1,13
 63 913 63 913 63 1016 c 0,14,15
 63 1203 63 1203 266 1340.5 c 128,-1,16
 469 1478 469 1478 813 1507 c 1,17,18
 971 1518 971 1518 1127 1518 c 128,-1,19
 1283 1518 1283 1518 1374 1517 c 128,-1,20
 1465 1516 1465 1516 1509 1516 c 1,21,-1
 1368 1305 l 1,22,23
 1274 1305 1274 1305 1154 1318.5 c 128,-1,24
 1034 1332 1034 1332 989 1335 c 1,25,26
 968 1225 968 1225 934 1034 c 128,-1,27
 900 843 900 843 891 795 c 1,28,29
 976 805 976 805 1065.5 805 c 128,-1,30
 1155 805 1155 805 1272 799 c 1,31,32
 1309 799 1309 799 1309 764 c 128,-1,33
 1309 729 1309 729 1277.5 689 c 128,-1,34
 1246 649 1246 649 1208 649 c 0,35,36
 973 649 973 649 860 639 c 1,37,38
 787 285 787 285 696 112 c 0,39,40
 617 -38 617 -38 519 -104 c 0,41,42
 405 -180 405 -180 252 -180 c 0,43,44
 65 -180 65 -180 -1 -28 c 0,45,46
 -18 11 -18 11 -18 49 c 0,47,48
 -18 205 -18 205 195 205 c 1,49,50
 184 145 184 145 184 72.5 c 128,-1,51
 184 0 184 0 208 -39 c 128,-1,52
 232 -78 232 -78 288 -80 c 128,-1,53
 344 -82 344 -82 392 -26 c 128,-1,54
 440 30 440 30 482 135 c 0,55,56
 553 313 553 313 623 600 c 1,57,-1
 537 575 l 1,58,59
 532 575 532 575 519 574.5 c 128,-1,60
 506 574 506 574 492.5 585 c 128,-1,61
 479 596 479 596 479 621 c 128,-1,62
 479 646 479 646 488 665 c 0,63,64
 501 691 501 691 541 708.5 c 128,-1,65
 581 726 581 726 657 750 c 1,66,67
 672 812 672 812 683.5 863.5 c 128,-1,68
 695 915 695 915 704 954 c 128,-1,69
 713 993 713 993 719 1016 c 128,-1,70
 725 1039 725 1039 732.5 1070 c 128,-1,71
 740 1101 740 1101 746 1120.5 c 128,-1,72
 752 1140 752 1140 759 1161 c 0,73,74
 773 1202 773 1202 784 1221 c 1,75,76
 837 1300 837 1300 899 1339 c 1,0,-1
EndSplineSet
EndChar

StartChar: G
Encoding: 71 71 43
Width: 1458
GlyphClass: 2
Flags: W
LayerCount: 2
Fore
SplineSet
743 -467 m 0,0,1
 677 -467 677 -467 609.5 -437.5 c 128,-1,2
 542 -408 542 -408 494 -349.5 c 128,-1,3
 446 -291 446 -291 446 -232 c 0,4,5
 446 -108 446 -108 528 -88 c 1,6,-1
 985 45 l 1,7,8
 1026 199 1026 199 1038 285 c 1,9,-1
 1055 371 l 1,10,11
 952 271 952 271 804 194 c 128,-1,12
 656 117 656 117 551 117 c 0,13,14
 316 117 316 117 190 453 c 1,15,-1
 70 383 l 2,16,17
 14 351 14 351 -6 339 c 128,-1,18
 -26 327 -26 327 -44 318 c 0,19,20
 -78 299 -78 299 -89.5 299 c 128,-1,21
 -101 299 -101 299 -109 317.5 c 128,-1,22
 -117 336 -117 336 -117 365.5 c 128,-1,23
 -117 395 -117 395 -96 403 c 1,24,25
 -75 416 -75 416 -4 454 c 0,26,27
 168 545 168 545 172 559 c 1,28,29
 172 747 172 747 241.5 922.5 c 128,-1,30
 311 1098 311 1098 429.5 1229 c 128,-1,31
 548 1360 548 1360 717 1439 c 128,-1,32
 886 1518 886 1518 1073 1518 c 0,33,34
 1149 1518 1149 1518 1219.5 1488 c 128,-1,35
 1290 1458 1290 1458 1338 1411 c 0,36,37
 1444 1307 1444 1307 1444 1188 c 0,38,39
 1444 1106 1444 1106 1402 1079 c 0,40,41
 1384 1068 1384 1068 1362.5 1059.5 c 128,-1,42
 1341 1051 1341 1051 1337 1049 c 2,43,-1
 1274 1020 l 1,44,-1
 444 586 l 1,45,46
 471 469 471 469 549 381 c 128,-1,47
 627 293 627 293 729 293 c 0,48,49
 885 293 885 293 1061 434 c 1,50,51
 1065 443 1065 443 1084 518.5 c 128,-1,52
 1103 594 1103 594 1108 621 c 1,53,-1
 1307 621 l 1,54,-1
 1188 119 l 1,55,56
 1317 179 1317 179 1583 440 c 1,57,-1
 1583 330 l 1,58,59
 1500 241 1500 241 1358.5 127.5 c 128,-1,60
 1217 14 1217 14 1157 -10 c 1,61,62
 1111 -234 1111 -234 1001.5 -350.5 c 128,-1,63
 892 -467 892 -467 743 -467 c 0,0,1
954 -74 m 1,64,65
 916 -90 916 -90 848 -107.5 c 128,-1,66
 780 -125 780 -125 736 -137 c 128,-1,67
 692 -149 692 -149 656.5 -176 c 128,-1,68
 621 -203 621 -203 621 -254.5 c 128,-1,69
 621 -306 621 -306 660 -357 c 128,-1,70
 699 -408 699 -408 752 -408 c 128,-1,71
 805 -408 805 -408 840 -367 c 128,-1,72
 875 -326 875 -326 898 -264 c 0,73,74
 941 -149 941 -149 954 -74 c 1,64,65
1160 1046 m 0,75,76
 1231 1077 1231 1077 1231 1130 c 0,77,78
 1231 1237 1231 1237 1169.5 1333.5 c 128,-1,79
 1108 1430 1108 1430 1042 1430 c 0,80,81
 941 1430 941 1430 845 1385.5 c 128,-1,82
 749 1341 749 1341 674.5 1265.5 c 128,-1,83
 600 1190 600 1190 543 1094 c 0,84,85
 426 897 426 897 426 678 c 1,86,-1
 844 887 l 2,87,88
 898 914 898 914 969 950 c 0,89,90
 1123 1030 1123 1030 1160 1046 c 0,75,76
EndSplineSet
EndChar

StartChar: H
Encoding: 72 72 44
Width: 1870
GlyphClass: 2
Flags: W
LayerCount: 2
Fore
SplineSet
322 819 m 1,0,1
 203 865 203 865 133 923 c 0,2,3
 4 1030 4 1030 4 1149 c 0,4,5
 4 1360 4 1360 244 1462 c 0,6,7
 372 1516 372 1516 495 1516 c 128,-1,8
 618 1516 618 1516 801 1480 c 128,-1,9
 984 1444 984 1444 1054 1444 c 128,-1,10
 1124 1444 1124 1444 1197 1465.5 c 128,-1,11
 1270 1487 1270 1487 1303 1489 c 1,12,13
 1293 1426 1293 1426 1262.5 1370.5 c 128,-1,14
 1232 1315 1232 1315 1186 1286 c 1,15,16
 1132 1206 1132 1206 1111 1163 c 128,-1,17
 1090 1120 1090 1120 1081.5 1104 c 128,-1,18
 1073 1088 1073 1088 1059.5 1054 c 128,-1,19
 1046 1020 1046 1020 1040.5 1007.5 c 128,-1,20
 1035 995 1035 995 1021 956 c 128,-1,21
 1007 917 1007 917 1004 908 c 0,22,23
 977 839 977 839 967 805 c 1,24,25
 1092 817 1092 817 1245 823 c 1,26,27
 1325 1036 1325 1036 1453 1207 c 0,28,29
 1597 1400 1597 1400 1765 1475 c 0,30,31
 1857 1516 1857 1516 1928.5 1516 c 128,-1,32
 2000 1516 2000 1516 2064 1497.5 c 128,-1,33
 2128 1479 2128 1479 2182 1436.5 c 128,-1,34
 2236 1394 2236 1394 2236 1349 c 128,-1,35
 2236 1304 2236 1304 2167.5 1238.5 c 128,-1,36
 2099 1173 2099 1173 2062 1171 c 1,37,-1
 2054 1192 l 1,38,39
 2008 1348 2008 1348 1903 1348 c 0,40,41
 1720 1348 1720 1348 1552 1102 c 0,42,43
 1470 982 1470 982 1403 829 c 1,44,-1
 1477 829 l 2,45,46
 1708 829 1708 829 1720.5 816.5 c 128,-1,47
 1733 804 1733 804 1733 782.5 c 128,-1,48
 1733 761 1733 761 1701.5 727.5 c 128,-1,49
 1670 694 1670 694 1632 694 c 0,50,51
 1494 694 1494 694 1362 688 c 1,52,53
 1319 540 1319 540 1319 393 c 128,-1,54
 1319 246 1319 246 1360 168 c 128,-1,55
 1401 90 1401 90 1471.5 90 c 128,-1,56
 1542 90 1542 90 1638 144 c 0,57,58
 1798 234 1798 234 1995 442 c 1,59,-1
 1993 328 l 1,60,61
 1845 164 1845 164 1673.5 54.5 c 128,-1,62
 1502 -55 1502 -55 1368 -55 c 0,63,64
 1274 -55 1274 -55 1217.5 28.5 c 128,-1,65
 1161 112 1161 112 1161 304 c 128,-1,66
 1161 496 1161 496 1206 680 c 1,67,68
 1089 672 1089 672 932 657 c 1,69,70
 874 438 874 438 857 386 c 0,71,72
 772 124 772 124 633 22 c 0,73,74
 528 -55 528 -55 383 -55 c 0,75,76
 300 -55 300 -55 233 -28 c 128,-1,77
 166 -1 166 -1 130 39 c 0,78,79
 55 121 55 121 55 195 c 0,80,81
 55 295 55 295 206 311 c 0,82,83
 242 315 242 315 291 315 c 1,84,-1
 291 256 l 2,85,86
 291 109 291 109 338 71 c 0,87,88
 360 53 360 53 397 53 c 128,-1,89
 434 53 434 53 469 71.5 c 128,-1,90
 504 90 504 90 531 121.5 c 128,-1,91
 558 153 558 153 580.5 195.5 c 128,-1,92
 603 238 603 238 619.5 286.5 c 128,-1,93
 636 335 636 335 650 388 c 0,94,95
 675 488 675 488 687 552.5 c 128,-1,96
 699 617 699 617 702 631 c 1,97,-1
 489 600 l 1,98,99
 432 600 432 600 432 641 c 0,100,101
 432 697 432 697 460 716 c 0,102,103
 469 722 469 722 483 727 c 1,104,105
 587 752 587 752 735 774 c 1,106,107
 775 963 775 963 816.5 1051 c 128,-1,108
 858 1139 858 1139 903.5 1186 c 128,-1,109
 949 1233 949 1233 1012 1266 c 1,110,111
 958 1271 958 1271 809.5 1299 c 128,-1,112
 661 1327 661 1327 593.5 1327 c 128,-1,113
 526 1327 526 1327 464 1319 c 128,-1,114
 402 1311 402 1311 329.5 1292 c 128,-1,115
 257 1273 257 1273 208.5 1233.5 c 128,-1,116
 160 1194 160 1194 160 1141 c 0,117,118
 160 1036 160 1036 352 954 c 1,119,120
 352 858 352 858 322 819 c 1,0,1
EndSplineSet
EndChar

StartChar: I
Encoding: 73 73 45
Width: 1061
GlyphClass: 2
Flags: W
LayerCount: 2
Fore
SplineSet
403 303 m 1,0,-1
 401 213 l 1,1,2
 401 117 401 117 428 78 c 1,3,4
 455 41 455 41 512 41 c 0,5,6
 700 41 700 41 801 604 c 0,7,8
 802 609 802 609 802.5 611.5 c 128,-1,9
 803 614 803 614 803.5 618 c 128,-1,10
 804 622 804 622 805 625 c 2,11,-1
 819 702 l 1,12,13
 546 722 546 722 427 828 c 0,14,15
 362 887 362 887 362 954 c 0,16,17
 362 1072 362 1072 516 1230 c 1,18,19
 618 1333 618 1333 784 1408 c 1,20,21
 958 1485 958 1485 1178 1485 c 0,22,23
 1223 1485 1223 1485 1295.5 1506.5 c 128,-1,24
 1368 1528 1368 1528 1401 1530 c 1,25,26
 1389 1455 1389 1455 1350 1393.5 c 128,-1,27
 1311 1332 1311 1332 1249 1311 c 1,28,29
 1124 1096 1124 1096 1057 793 c 1,30,-1
 1024 647 l 1,31,32
 967 358 967 358 913 244 c 0,33,34
 839 88 839 88 758 29 c 0,35,36
 642 -57 642 -57 494 -57 c 0,37,38
 395 -57 395 -57 306 -2 c 1,39,40
 262 24 262 24 234.5 70 c 128,-1,41
 207 116 207 116 207 172 c 0,42,43
 207 303 207 303 403 303 c 1,0,-1
526 950 m 0,44,45
 526 860 526 860 854 842 c 1,46,47
 899 1010 899 1010 964 1124.5 c 128,-1,48
 1029 1239 1029 1239 1145 1303 c 1,49,50
 1019 1303 1019 1303 910 1272 c 128,-1,51
 801 1241 801 1241 733 1196.5 c 128,-1,52
 665 1152 665 1152 616 1101 c 0,53,54
 526 1007 526 1007 526 950 c 0,44,45
EndSplineSet
EndChar

StartChar: J
Encoding: 74 74 46
Width: 1077
GlyphClass: 2
Flags: W
LayerCount: 2
Fore
SplineSet
1073 1311 m 1,0,1
 968 1128 968 1128 901 840 c 1,2,3
 1034 840 1034 840 1176 862 c 1,4,5
 1176 782 1176 782 1145 748 c 1,6,7
 1015 712 1015 712 872 700 c 1,8,-1
 754 133 l 1,9,10
 779 148 779 148 878.5 202 c 128,-1,11
 978 256 978 256 1050 308 c 128,-1,12
 1122 360 1122 360 1210 446 c 1,13,-1
 1210 334 l 1,14,15
 1133 242 1133 242 976 142 c 128,-1,16
 819 42 819 42 731 10 c 1,17,18
 685 -204 685 -204 579 -316 c 128,-1,19
 473 -428 473 -428 330 -428 c 0,20,21
 265 -428 265 -428 198.5 -398.5 c 128,-1,22
 132 -369 132 -369 85.5 -311 c 128,-1,23
 39 -253 39 -253 39 -194 c 0,24,25
 39 -61 39 -61 123 -39 c 2,26,-1
 541 74 l 1,27,28
 559 185 559 185 613.5 421.5 c 128,-1,29
 668 658 668 658 676 698 c 1,30,-1
 676 700 l 1,31,32
 352 717 352 717 236 848 c 0,33,34
 204 883 204 883 193 922 c 1,35,36
 179 949 179 949 196 1006 c 128,-1,37
 213 1063 213 1063 238 1100.5 c 128,-1,38
 263 1138 263 1138 292 1176 c 128,-1,39
 321 1214 321 1214 364.5 1252 c 128,-1,40
 408 1290 408 1290 456 1324 c 128,-1,41
 504 1358 504 1358 566 1387.5 c 128,-1,42
 628 1417 628 1417 694 1438 c 0,43,44
 837 1485 837 1485 1001 1485 c 0,45,46
 1046 1485 1046 1485 1119 1506.5 c 128,-1,47
 1192 1528 1192 1528 1225 1530 c 1,48,49
 1213 1455 1213 1455 1174 1393.5 c 128,-1,50
 1135 1332 1135 1332 1073 1311 c 1,0,1
350 950 m 0,51,52
 350 906 350 906 438.5 876.5 c 128,-1,53
 527 847 527 847 707 840 c 1,54,55
 746 1005 746 1005 806 1122 c 128,-1,56
 866 1239 866 1239 969 1303 c 1,57,58
 843 1303 843 1303 734 1272 c 128,-1,59
 625 1241 625 1241 557 1196.5 c 128,-1,60
 489 1152 489 1152 440 1101 c 0,61,62
 350 1007 350 1007 350 950 c 0,51,52
524 -66 m 1,63,64
 489 -78 489 -78 407.5 -95.5 c 128,-1,65
 326 -113 326 -113 292 -125 c 0,66,67
 221 -150 221 -150 221 -207 c 128,-1,68
 221 -264 221 -264 255.5 -310 c 128,-1,69
 290 -356 290 -356 338.5 -356 c 128,-1,70
 387 -356 387 -356 417 -325.5 c 128,-1,71
 447 -295 447 -295 468 -244 c 0,72,73
 503 -160 503 -160 524 -66 c 1,63,64
EndSplineSet
EndChar

StartChar: K
Encoding: 75 75 47
Width: 1888
GlyphClass: 2
Flags: W
LayerCount: 2
Fore
SplineSet
317 819 m 1,0,1
 200 864 200 864 130 923 c 1,2,3
 0 1030 0 1030 0 1149 c 0,4,5
 0 1360 0 1360 240 1462 c 0,6,7
 368 1516 368 1516 489 1516 c 128,-1,8
 610 1516 610 1516 786 1480 c 128,-1,9
 962 1444 962 1444 1031 1444 c 128,-1,10
 1100 1444 1100 1444 1172.5 1465.5 c 128,-1,11
 1245 1487 1245 1487 1278 1489 c 1,12,13
 1255 1344 1255 1344 1161 1286 c 1,14,15
 1085 1183 1085 1183 1034.5 1065.5 c 128,-1,16
 984 948 984 948 938 793 c 2,17,-1
 920 731 l 1,18,19
 1056 870 1056 870 1189.5 1026 c 128,-1,20
 1323 1182 1323 1182 1405 1265 c 128,-1,21
 1487 1348 1487 1348 1554 1400 c 0,22,23
 1708 1518 1708 1518 1862 1518 c 0,24,25
 1907 1518 1907 1518 1973.5 1502.5 c 128,-1,26
 2040 1487 2040 1487 2084.5 1469 c 128,-1,27
 2129 1451 2129 1451 2162 1417.5 c 128,-1,28
 2195 1384 2195 1384 2195 1344 c 128,-1,29
 2195 1304 2195 1304 2126.5 1238.5 c 128,-1,30
 2058 1173 2058 1173 2021 1171 c 1,31,-1
 2013 1192 l 1,32,33
 1967 1348 1967 1348 1862 1348 c 0,34,35
 1724 1348 1724 1348 1620 1255 c 0,36,37
 1528 1173 1528 1173 1462 1079 c 0,38,39
 1332 893 1332 893 1233 803 c 1,40,-1
 1442 393 l 1,41,42
 1460 360 1460 360 1491 300.5 c 128,-1,43
 1522 241 1522 241 1537 214.5 c 128,-1,44
 1552 188 1552 188 1574 158 c 0,45,46
 1611 105 1611 105 1650 118 c 128,-1,47
 1689 131 1689 131 1766.5 201 c 128,-1,48
 1844 271 1844 271 2009 436 c 1,49,-1
 2009 324 l 1,50,51
 1666 -53 1666 -53 1573 -53 c 0,52,53
 1505 -53 1505 -53 1436 22.5 c 128,-1,54
 1367 98 1367 98 1284 270 c 1,55,-1
 1085 719 l 1,56,-1
 891 625 l 1,57,58
 814 325 814 325 754 214 c 1,59,60
 679 72 679 72 602 19 c 0,61,62
 493 -55 493 -55 358 -55 c 0,63,64
 275 -55 275 -55 208.5 -28 c 128,-1,65
 142 -1 142 -1 106 39 c 0,66,67
 31 121 31 121 31 195 c 0,68,69
 31 295 31 295 180 311 c 0,70,71
 217 315 217 315 266 315 c 1,72,-1
 266 256 l 2,73,74
 266 109 266 109 313 71 c 0,75,76
 335 53 335 53 376 53 c 128,-1,77
 417 53 417 53 457.5 77.5 c 128,-1,78
 498 102 498 102 527.5 148 c 128,-1,79
 557 194 557 194 579.5 245.5 c 128,-1,80
 602 297 602 297 620 364.5 c 128,-1,81
 638 432 638 432 649.5 485 c 128,-1,82
 661 538 661 538 674 603 c 128,-1,83
 687 668 687 668 694 698 c 2,84,-1
 715 793 l 1,85,86
 777 1083 777 1083 878 1186 c 0,87,88
 924 1233 924 1233 987 1266 c 1,89,90
 945 1271 945 1271 800 1299 c 128,-1,91
 655 1327 655 1327 588.5 1327 c 128,-1,92
 522 1327 522 1327 460 1319 c 128,-1,93
 398 1311 398 1311 325.5 1292 c 128,-1,94
 253 1273 253 1273 204.5 1233.5 c 128,-1,95
 156 1194 156 1194 156 1141 c 0,96,97
 156 1034 156 1034 348 954 c 1,98,99
 348 857 348 857 317 819 c 1,0,1
EndSplineSet
EndChar

StartChar: L
Encoding: 76 76 48
Width: 1255
GlyphClass: 2
Flags: W
LayerCount: 2
Fore
SplineSet
324 117 m 1,0,1
 102 -29 102 -29 -39 -29 c 0,2,3
 -60 -29 -60 -29 -89 -16 c 0,4,5
 -147 11 -147 11 -147 72 c 0,6,7
 -147 109 -147 109 -104 136 c 0,8,9
 -59 164 -59 164 6 190 c 1,10,-1
 268 309 l 1,11,-1
 500 1137 l 1,12,13
 519 1200 519 1200 562 1236 c 0,14,15
 584 1255 584 1255 606 1270.5 c 128,-1,16
 628 1286 628 1286 655 1306 c 128,-1,17
 682 1326 682 1326 749 1371 c 128,-1,18
 816 1416 816 1416 912.5 1467 c 128,-1,19
 1009 1518 1009 1518 1053 1518 c 0,20,21
 1182 1518 1182 1518 1286.5 1413 c 128,-1,22
 1391 1308 1391 1308 1391 1178 c 0,23,24
 1391 1120 1391 1120 1347 1098 c 128,-1,25
 1303 1076 1303 1076 1126 978 c 0,26,27
 876 840 876 840 856 840 c 0,28,29
 817 840 817 840 817 881 c 0,30,31
 817 929 817 929 992 1006 c 0,32,33
 1058 1034 1058 1034 1114 1073 c 128,-1,34
 1170 1112 1170 1112 1171 1147 c 1,35,-1
 1166 1175 l 1,36,37
 1135 1330 1135 1330 1070 1389 c 0,38,39
 1039 1417 1039 1417 1001 1417 c 1,40,41
 953 1411 953 1411 884 1342 c 128,-1,42
 815 1273 815 1273 763.5 1192.5 c 128,-1,43
 712 1112 712 1112 702 1067 c 0,44,45
 603 580 603 580 469 266 c 1,46,47
 482 262 482 262 508.5 253 c 128,-1,48
 535 244 535 244 546.5 241 c 128,-1,49
 558 238 558 238 649 205 c 0,50,51
 886 119 886 119 940 119 c 0,52,53
 1028 119 1028 119 1220 288 c 0,54,55
 1293 351 1293 351 1376 438 c 1,56,-1
 1376 326 l 1,57,58
 1150 100 1150 100 1022 25 c 0,59,60
 881 -57 881 -57 754 -57 c 0,61,62
 746 -57 746 -57 733.5 -50 c 128,-1,63
 721 -43 721 -43 706 -35.5 c 128,-1,64
 691 -28 691 -28 659.5 -14 c 128,-1,65
 628 0 628 0 586 17 c 0,66,67
 467 66 467 66 324 117 c 1,0,1
EndSplineSet
EndChar

StartChar: M
Encoding: 77 77 49
Width: 1712
GlyphClass: 2
Flags: W
LayerCount: 2
Fore
SplineSet
639 -18 m 1,0,1
 586 -3 586 -3 586 41 c 1,2,-1
 614 1128 l 1,3,-1
 600 1128 l 1,4,-1
 121 131 l 1,5,6
 78 54 78 54 -1 -34 c 128,-1,7
 -80 -122 -80 -122 -183 -191 c 128,-1,8
 -286 -260 -286 -260 -365 -260 c 0,9,10
 -412 -260 -412 -260 -412 -123 c 0,11,12
 -412 -62 -412 -62 -322 -26 c 1,13,14
 -216 15 -216 15 -147 46 c 0,15,16
 -11 107 -11 107 49 213 c 1,17,18
 130 388 130 388 334.5 816 c 128,-1,19
 539 1244 539 1244 608 1391 c 1,20,21
 649 1466 649 1466 728.5 1513.5 c 128,-1,22
 808 1561 808 1561 895 1561 c 1,23,24
 895 1560 895 1560 907 1554 c 1,25,26
 872 1288 872 1288 854.5 936.5 c 128,-1,27
 837 585 837 585 831 485 c 1,28,-1
 846 485 l 1,29,30
 864 524 864 524 904 599 c 0,31,32
 1078 931 1078 931 1325 1432 c 1,33,-1
 1323 1430 l 1,34,35
 1350 1474 1350 1474 1454.5 1525.5 c 128,-1,36
 1559 1577 1559 1577 1616 1579 c 1,37,-1
 1624 1575 l 1,38,39
 1487 864 1487 864 1449 610.5 c 128,-1,40
 1411 357 1411 357 1411 249 c 128,-1,41
 1411 141 1411 141 1458 141 c 0,42,43
 1530 141 1530 141 1833 438 c 1,44,-1
 1833 324 l 1,45,46
 1443 -55 1443 -55 1284 -55 c 0,47,48
 1171 -55 1171 -55 1171 154 c 0,49,50
 1171 306 1171 306 1201 488 c 0,51,52
 1244 747 1244 747 1272 903 c 128,-1,53
 1300 1059 1300 1059 1315.5 1132 c 128,-1,54
 1331 1205 1331 1205 1331 1218 c 128,-1,55
 1331 1231 1331 1231 1319 1231 c 128,-1,56
 1307 1231 1307 1231 1303 1219 c 1,57,58
 688 8 688 8 639 -18 c 1,0,1
EndSplineSet
EndChar

StartChar: N
Encoding: 78 78 50
Width: 1473
GlyphClass: 2
Flags: W
LayerCount: 2
Fore
SplineSet
1341 195 m 1,0,-1
 1597 440 l 1,1,-1
 1595 330 l 1,2,3
 1478 206 1478 206 1460 193 c 1,4,5
 1199 -57 1199 -57 1100 -57 c 0,6,7
 963 -57 963 -57 963 275.5 c 128,-1,8
 963 608 963 608 1053 1051 c 0,9,10
 1058 1073 1058 1073 1071 1120 c 0,11,12
 1100 1226 1100 1226 1100 1267.5 c 128,-1,13
 1100 1309 1100 1309 1073 1309 c 0,14,15
 1060 1309 1060 1309 1004 1285.5 c 128,-1,16
 948 1262 948 1262 875.5 1217.5 c 128,-1,17
 803 1173 803 1173 748.5 1128 c 128,-1,18
 694 1083 694 1083 645.5 1028 c 128,-1,19
 597 973 597 973 563.5 925.5 c 128,-1,20
 530 878 530 878 500.5 819 c 128,-1,21
 471 760 471 760 453 716.5 c 128,-1,22
 435 673 435 673 418 618 c 0,23,24
 391 532 391 532 381.5 489 c 128,-1,25
 372 446 372 446 348.5 329 c 128,-1,26
 325 212 325 212 272 0 c 1,27,-1
 66 0 l 1,28,29
 66 93 66 93 102.5 249 c 128,-1,30
 139 405 139 405 201.5 631 c 128,-1,31
 264 857 264 857 295 995 c 1,32,-1
 377 1313 l 1,33,-1
 55 1085 l 1,34,-1
 25 1075 l 1,35,36
 -2 1075 -2 1075 -2 1126 c 0,37,38
 -2 1150 -2 1150 23 1167 c 1,39,-1
 453 1438 l 1,40,41
 574 1516 574 1516 623 1516 c 0,42,43
 643 1516 643 1516 643 1497 c 0,44,45
 643 1439 643 1439 604 1286.5 c 128,-1,46
 565 1134 565 1134 565 1122 c 1,47,-1
 549 1040 l 1,48,49
 876 1429 876 1429 1158 1501 c 0,50,51
 1217 1516 1217 1516 1270 1516 c 0,52,53
 1354 1516 1354 1516 1354 1423 c 0,54,55
 1354 1395 1354 1395 1312 1190 c 0,56,57
 1188 573 1188 573 1188 360 c 128,-1,58
 1188 147 1188 147 1257 147 c 0,59,60
 1294 147 1294 147 1341 195 c 1,0,-1
EndSplineSet
EndChar

StartChar: O
Encoding: 79 79 51
Width: 1653
GlyphClass: 2
Flags: W
LayerCount: 2
Fore
SplineSet
1553 976.5 m 128,-1,1
 1585 884 1585 884 1585 791.5 c 128,-1,2
 1585 699 1585 699 1573 637 c 1,3,4
 1710 658 1710 658 1853 743 c 1,5,-1
 1853 651 l 1,6,7
 1718 545 1718 545 1540 510 c 1,8,9
 1479 342 1479 342 1345.5 211 c 128,-1,10
 1212 80 1212 80 1047 11.5 c 128,-1,11
 882 -57 882 -57 715 -57 c 0,12,13
 393 -57 393 -57 223 190 c 0,14,15
 100 368 100 368 100 664 c 0,16,17
 100 912 100 912 258 1133 c 0,18,19
 429 1373 429 1373 696 1466 c 0,20,21
 843 1518 843 1518 1006 1518 c 0,22,23
 1067 1518 1067 1518 1143 1505 c 1,24,-1
 1139 1403 l 1,25,26
 1092 1411 1092 1411 1002.5 1411 c 128,-1,27
 913 1411 913 1411 798.5 1370.5 c 128,-1,28
 684 1330 684 1330 599.5 1262.5 c 128,-1,29
 515 1195 515 1195 453 1110 c 0,30,31
 328 937 328 937 328 748 c 0,32,33
 328 405 328 405 547 250 c 0,34,35
 675 160 675 160 853 160 c 128,-1,36
 1031 160 1031 160 1173 253.5 c 128,-1,37
 1315 347 1315 347 1395 496 c 1,38,-1
 1382 496 l 2,39,40
 1168 496 1168 496 1018 602 c 0,41,42
 945 654 945 654 901.5 737.5 c 128,-1,43
 858 821 858 821 858 940 c 128,-1,44
 858 1059 858 1059 949 1149 c 128,-1,45
 1040 1239 1040 1239 1217 1239 c 0,46,47
 1359 1239 1359 1239 1468 1125 c 0,48,0
 1521 1069 1521 1069 1553 976.5 c 128,-1,1
1030 999 m 0,49,50
 1030 840 1030 840 1148 735 c 128,-1,51
 1266 630 1266 630 1448 627 c 1,52,53
 1475 712 1475 712 1475 799 c 0,54,55
 1475 942 1475 942 1401.5 1034 c 128,-1,56
 1328 1126 1328 1126 1190 1126 c 0,57,58
 1109 1126 1109 1126 1069.5 1092 c 128,-1,59
 1030 1058 1030 1058 1030 999 c 0,49,50
EndSplineSet
EndChar

StartChar: P
Encoding: 80 80 52
Width: 1317
GlyphClass: 2
Flags: W
LayerCount: 2
Fore
SplineSet
63 176 m 1,0,-1
 61 66 l 1,1,2
 61 -82 61 -82 178 -82 c 0,3,4
 273 -82 273 -82 340 44 c 0,5,6
 404 163 404 163 432 279 c 0,7,8
 482 486 482 486 502 614 c 1,9,-1
 612 1190 l 2,10,11
 618 1219 618 1219 666.5 1233 c 128,-1,12
 715 1247 715 1247 752 1247 c 2,13,-1
 840 1249 l 1,14,15
 829 1171 829 1171 795 993.5 c 128,-1,16
 761 816 761 816 735 711 c 1,17,-1
 760 711 l 2,18,19
 1008 711 1008 711 1145 824 c 1,20,21
 1274 932 1274 932 1274 1068 c 128,-1,22
 1274 1204 1274 1204 1150 1298.5 c 128,-1,23
 1026 1393 1026 1393 799 1393 c 0,24,25
 680 1393 680 1393 545.5 1356.5 c 128,-1,26
 411 1320 411 1320 310 1249 c 128,-1,27
 209 1178 209 1178 209 1099.5 c 128,-1,28
 209 1021 209 1021 250 982.5 c 128,-1,29
 291 944 291 944 373 913 c 1,30,31
 373 809 373 809 346 754 c 1,32,33
 180 805 180 805 94 926 c 0,34,35
 47 993 47 993 47 1083 c 128,-1,36
 47 1173 47 1173 118.5 1260 c 128,-1,37
 190 1347 190 1347 307 1402 c 0,38,39
 550 1518 550 1518 860 1518 c 0,40,41
 1254 1518 1254 1518 1428 1340 c 0,42,43
 1528 1237 1528 1237 1528 1100 c 0,44,45
 1528 1007 1528 1007 1480 916.5 c 128,-1,46
 1432 826 1432 826 1347.5 753 c 128,-1,47
 1263 680 1263 680 1134 635 c 128,-1,48
 1005 590 1005 590 856 590 c 0,49,50
 788 590 788 590 715 602 c 1,51,52
 640 94 640 94 414 -86 c 0,53,54
 297 -180 297 -180 168.5 -180 c 128,-1,55
 40 -180 40 -180 -46.5 -119 c 128,-1,56
 -133 -58 -133 -58 -133 53 c 0,57,58
 -133 176 -133 176 63 176 c 1,0,-1
EndSplineSet
EndChar

StartChar: Q
Encoding: 81 81 53
Width: 1632
GlyphClass: 2
Flags: W
LayerCount: 2
Fore
SplineSet
754 -229 m 1,0,1
 999 -192 999 -192 1055 -152 c 1,2,-1
 1065 -272 l 1,3,4
 1024 -294 1024 -294 908.5 -318 c 128,-1,5
 793 -342 793 -342 729 -348 c 1,6,7
 699 -420 699 -420 618 -469 c 128,-1,8
 537 -518 537 -518 420 -518 c 0,9,10
 310 -518 310 -518 218 -468 c 0,11,12
 170 -443 170 -443 140.5 -396.5 c 128,-1,13
 111 -350 111 -350 111 -289 c 0,14,15
 111 -209 111 -209 178 -209 c 1,16,-1
 563 -236 l 1,17,18
 592 -201 592 -201 650.5 -41 c 128,-1,19
 709 119 709 119 744 216.5 c 128,-1,20
 779 314 779 314 785.5 330.5 c 128,-1,21
 792 347 792 347 826 358 c 0,22,23
 869 371 869 371 977 371 c 1,24,-1
 754 -229 l 1,0,1
422 -334 m 1,25,-1
 301 -324 l 1,26,27
 272 -324 272 -324 264 -327 c 128,-1,28
 256 -330 256 -330 256 -346 c 0,29,30
 256 -370 256 -370 309.5 -397 c 128,-1,31
 363 -424 363 -424 418.5 -424 c 128,-1,32
 474 -424 474 -424 497 -399 c 128,-1,33
 520 -374 520 -374 537 -334 c 1,34,-1
 422 -334 l 1,25,-1
1514 976.5 m 128,-1,36
 1546 884 1546 884 1546 791.5 c 128,-1,37
 1546 699 1546 699 1534 637 c 1,38,39
 1671 658 1671 658 1814 743 c 1,40,-1
 1814 651 l 1,41,42
 1679 545 1679 545 1501 510 c 1,43,44
 1440 342 1440 342 1306.5 211 c 128,-1,45
 1173 80 1173 80 1008 11.5 c 128,-1,46
 843 -57 843 -57 676 -57 c 0,47,48
 354 -57 354 -57 184 190 c 0,49,50
 61 368 61 368 61 664 c 0,51,52
 61 912 61 912 218 1133 c 1,53,54
 390 1373 390 1373 657 1466 c 0,55,56
 804 1518 804 1518 967 1518 c 0,57,58
 1028 1518 1028 1518 1104 1505 c 1,59,-1
 1100 1403 l 1,60,61
 1053 1411 1053 1411 963.5 1411 c 128,-1,62
 874 1411 874 1411 759.5 1370.5 c 128,-1,63
 645 1330 645 1330 560.5 1262.5 c 128,-1,64
 476 1195 476 1195 414 1110 c 0,65,66
 289 937 289 937 289 748 c 0,67,68
 289 405 289 405 508 250 c 0,69,70
 636 160 636 160 814 160 c 128,-1,71
 992 160 992 160 1134 253.5 c 128,-1,72
 1276 347 1276 347 1356 496 c 1,73,-1
 1343 496 l 2,74,75
 1129 496 1129 496 980 602 c 0,76,77
 906 654 906 654 862.5 737.5 c 128,-1,78
 819 821 819 821 819 940 c 128,-1,79
 819 1059 819 1059 910 1149 c 128,-1,80
 1001 1239 1001 1239 1178 1239 c 0,81,82
 1320 1239 1320 1239 1428 1125 c 0,83,35
 1482 1069 1482 1069 1514 976.5 c 128,-1,36
991 999 m 0,84,85
 991 840 991 840 1109 735 c 128,-1,86
 1227 630 1227 630 1409 627 c 1,87,88
 1436 712 1436 712 1436 799 c 0,89,90
 1436 942 1436 942 1362.5 1034 c 128,-1,91
 1289 1126 1289 1126 1151 1126 c 0,92,93
 1070 1126 1070 1126 1030.5 1092 c 128,-1,94
 991 1058 991 1058 991 999 c 0,84,85
EndSplineSet
EndChar

StartChar: R
Encoding: 82 82 54
Width: 1616
GlyphClass: 2
Flags: W
LayerCount: 2
Fore
SplineSet
762 688 m 1,0,1
 876 688 876 688 976 726.5 c 128,-1,2
 1076 765 1076 765 1140.5 824.5 c 128,-1,3
 1205 884 1205 884 1241.5 952.5 c 128,-1,4
 1278 1021 1278 1021 1278 1083 c 0,5,6
 1278 1206 1278 1206 1163 1299.5 c 128,-1,7
 1048 1393 1048 1393 870 1393 c 0,8,9
 642 1393 642 1393 444 1314 c 0,10,11
 350 1276 350 1276 291.5 1216 c 128,-1,12
 233 1156 233 1156 233 1087.5 c 128,-1,13
 233 1019 233 1019 277 981 c 128,-1,14
 321 943 321 943 395 913 c 1,15,16
 395 822 395 822 369 754 c 1,17,18
 250 792 250 792 166 865 c 0,19,20
 72 946 72 946 72 1058.5 c 128,-1,21
 72 1171 72 1171 143.5 1257 c 128,-1,22
 215 1343 215 1343 331 1399 c 0,23,24
 577 1518 577 1518 891 1518 c 0,25,26
 1145 1518 1145 1518 1340 1406 c 0,27,28
 1432 1354 1432 1354 1488 1273.5 c 128,-1,29
 1544 1193 1544 1193 1544 1100 c 128,-1,30
 1544 1007 1544 1007 1506.5 936.5 c 128,-1,31
 1469 866 1469 866 1392 814 c 0,32,33
 1254 719 1254 719 981 649 c 1,34,35
 1035 619 1035 619 1094 526 c 128,-1,36
 1153 433 1153 433 1194 339 c 128,-1,37
 1235 245 1235 245 1274.5 170.5 c 128,-1,38
 1314 96 1314 96 1335 96 c 128,-1,39
 1356 96 1356 96 1395.5 122 c 128,-1,40
 1435 148 1435 148 1484 192 c 128,-1,41
 1533 236 1533 236 1576.5 277.5 c 128,-1,42
 1620 319 1620 319 1669.5 368 c 128,-1,43
 1719 417 1719 417 1737 434 c 1,44,-1
 1739 332 l 1,45,46
 1728 320 1728 320 1679 266 c 128,-1,47
 1630 212 1630 212 1608 189 c 128,-1,48
 1586 166 1586 166 1539 119 c 128,-1,49
 1492 72 1492 72 1460.5 48.5 c 128,-1,50
 1429 25 1429 25 1386 -4 c 0,51,52
 1307 -57 1307 -57 1245 -57 c 128,-1,53
 1183 -57 1183 -57 1145 -44 c 128,-1,54
 1107 -31 1107 -31 1081 -5.5 c 128,-1,55
 1055 20 1055 20 1039 42.5 c 128,-1,56
 1023 65 1023 65 1003.5 100 c 128,-1,57
 984 135 984 135 973 150 c 1,58,59
 859 452 859 452 748 600 c 1,60,61
 745 590 745 590 733 543.5 c 128,-1,62
 721 497 721 497 709.5 456.5 c 128,-1,63
 698 416 698 416 671 340.5 c 128,-1,64
 644 265 644 265 619.5 219 c 128,-1,65
 595 173 595 173 553 114.5 c 128,-1,66
 511 56 511 56 465 23 c 0,67,68
 353 -57 353 -57 215 -57 c 0,69,70
 94 -57 94 -57 -6 8 c 0,71,72
 -115 79 -115 79 -115 205 c 0,73,74
 -115 260 -115 260 -52.5 289.5 c 128,-1,75
 10 319 10 319 102 319 c 0,76,77
 109 319 109 319 117 315 c 1,78,79
 113 275 113 275 113 242 c 0,80,81
 113 53 113 53 238 53 c 0,82,83
 305 53 305 53 366 155.5 c 128,-1,84
 427 258 427 258 469.5 413 c 128,-1,85
 512 568 512 568 544 720 c 128,-1,86
 576 872 576 872 599 1003 c 128,-1,87
 622 1134 622 1134 629 1155.5 c 128,-1,88
 636 1177 636 1177 639 1184.5 c 128,-1,89
 642 1192 642 1192 653.5 1208.5 c 128,-1,90
 665 1225 665 1225 680 1231 c 0,91,92
 725 1249 725 1249 778 1249 c 128,-1,93
 831 1249 831 1249 858 1247 c 1,94,95
 832 1030 832 1030 762 688 c 1,0,1
EndSplineSet
EndChar

StartChar: S
Encoding: 83 83 55
Width: 1069
GlyphClass: 2
Flags: W
LayerCount: 2
Fore
SplineSet
446 1285 m 128,-1,1
 387 1215 387 1215 387 1144 c 128,-1,2
 387 1073 387 1073 416.5 1020 c 128,-1,3
 446 967 446 967 494 920.5 c 128,-1,4
 542 874 542 874 599 825.5 c 128,-1,5
 656 777 656 777 713.5 723.5 c 128,-1,6
 771 670 771 670 819 612 c 0,7,8
 926 483 926 483 926 324 c 0,9,10
 926 227 926 227 885 143.5 c 128,-1,11
 844 60 844 60 776.5 2 c 128,-1,12
 709 -56 709 -56 621 -98 c 0,13,14
 449 -180 449 -180 252 -180 c 0,15,16
 136 -180 136 -180 38 -123 c 0,17,18
 -10 -95 -10 -95 -40 -47.5 c 128,-1,19
 -70 0 -70 0 -70 62 c 128,-1,20
 -70 124 -70 124 -22 164 c 128,-1,21
 26 204 26 204 96 207 c 2,22,-1
 139 209 l 1,23,24
 135 155 135 155 135 118 c 128,-1,25
 135 81 135 81 135.5 67 c 128,-1,26
 136 53 136 53 139.5 27 c 128,-1,27
 143 1 143 1 149.5 -11.5 c 128,-1,28
 156 -24 156 -24 170 -41.5 c 128,-1,29
 184 -59 184 -59 204 -67 c 0,30,31
 258 -88 258 -88 317 -88 c 128,-1,32
 376 -88 376 -88 428 -75 c 128,-1,33
 480 -62 480 -62 530 -36 c 128,-1,34
 580 -10 580 -10 620 26 c 0,35,36
 709 106 709 106 709 219 c 0,37,38
 709 326 709 326 602 451 c 0,39,40
 548 514 548 514 436.5 625.5 c 128,-1,41
 325 737 325 737 277 792 c 0,42,43
 170 916 170 916 170 1015 c 128,-1,44
 170 1114 170 1114 209.5 1195 c 128,-1,45
 249 1276 249 1276 314 1333.5 c 128,-1,46
 379 1391 379 1391 462 1434 c 0,47,48
 626 1518 626 1518 803 1518 c 0,49,50
 923 1518 923 1518 1026 1456 c 0,51,52
 1079 1425 1079 1425 1112 1365.5 c 128,-1,53
 1145 1306 1145 1306 1145 1227 c 0,54,55
 1145 1207 1145 1207 948 1092 c 128,-1,56
 751 977 751 977 698 958 c 1,57,-1
 698 1057 l 1,58,59
 712 1065 712 1065 790 1102 c 0,60,61
 965 1184 965 1184 965 1225 c 0,62,63
 965 1423 965 1423 756 1423 c 0,64,65
 671 1423 671 1423 588 1389 c 128,-1,0
 505 1355 505 1355 446 1285 c 128,-1,1
EndSplineSet
EndChar

StartChar: T
Encoding: 84 84 56
Width: 1085
GlyphClass: 2
Flags: W
LayerCount: 2
Fore
SplineSet
383 672 m 1,0,1
 224 737 224 737 146 829.5 c 128,-1,2
 68 922 68 922 68 1010.5 c 128,-1,3
 68 1099 68 1099 104.5 1171 c 128,-1,4
 141 1243 141 1243 209 1305 c 128,-1,5
 277 1367 277 1367 368 1415 c 0,6,7
 563 1518 563 1518 817 1518 c 0,8,9
 907 1518 907 1518 1110.5 1481 c 128,-1,10
 1314 1444 1314 1444 1389.5 1444 c 128,-1,11
 1465 1444 1465 1444 1519.5 1459 c 128,-1,12
 1574 1474 1574 1474 1627.5 1496.5 c 128,-1,13
 1681 1519 1681 1519 1700 1524 c 1,14,15
 1663 1399 1663 1399 1563.5 1326 c 128,-1,16
 1464 1253 1464 1253 1331 1253 c 0,17,18
 1260 1253 1260 1253 1202 1273 c 128,-1,19
 1144 1293 1144 1293 1091 1314 c 128,-1,20
 1038 1335 1038 1335 1016 1343 c 1,21,22
 1005 1291 1005 1291 984 1181.5 c 128,-1,23
 963 1072 963 1072 951.5 1017 c 128,-1,24
 940 962 940 962 917 856 c 128,-1,25
 894 750 894 750 875 686.5 c 128,-1,26
 856 623 856 623 826 526.5 c 128,-1,27
 796 430 796 430 765.5 370 c 128,-1,28
 735 310 735 310 695 234.5 c 128,-1,29
 655 159 655 159 609.5 113 c 128,-1,30
 564 67 564 67 510 24 c 0,31,32
 406 -57 406 -57 256 -57 c 0,33,34
 69 -57 69 -57 3 95 c 0,35,36
 -14 134 -14 134 -14 172 c 0,37,38
 -14 328 -14 328 199 328 c 1,39,40
 188 268 188 268 188 195 c 128,-1,41
 188 122 188 122 212 83.5 c 128,-1,42
 236 45 236 45 297 41 c 1,43,44
 371 41 371 41 440 153 c 128,-1,45
 509 265 509 265 561 438 c 128,-1,46
 613 611 613 611 653.5 782 c 128,-1,47
 694 953 694 953 727.5 1109 c 128,-1,48
 761 1265 761 1265 776 1305 c 1,49,50
 838 1372 838 1372 932 1372 c 2,51,-1
 934 1372 l 1,52,53
 859 1393 859 1393 797 1393 c 0,54,55
 658 1393 658 1393 530 1338.5 c 128,-1,56
 402 1284 402 1284 327 1200 c 128,-1,57
 252 1116 252 1116 252 1032 c 0,58,59
 252 909 252 909 412 840 c 1,60,61
 412 797 412 797 402 740.5 c 128,-1,62
 392 684 392 684 383 672 c 1,0,1
EndSplineSet
EndChar

StartChar: U
Encoding: 85 85 57
Width: 1645
GlyphClass: 2
Flags: W
LayerCount: 2
Fore
SplineSet
799 1509 m 0,0,1
 799 1498 799 1498 746 1379 c 128,-1,2
 693 1260 693 1260 630 1112.5 c 128,-1,3
 567 965 567 965 514 777.5 c 128,-1,4
 461 590 461 590 461 457 c 0,5,6
 461 147 461 147 745 147 c 0,7,8
 880 147 880 147 1004.5 215.5 c 128,-1,9
 1129 284 1129 284 1217.5 394 c 128,-1,10
 1306 504 1306 504 1361.5 643.5 c 128,-1,11
 1417 783 1417 783 1425 924 c 1,12,13
 1367 933 1367 933 1311.5 971 c 128,-1,14
 1256 1009 1256 1009 1224 1044 c 0,15,16
 1147 1128 1147 1128 1147 1247 c 0,17,18
 1147 1342 1147 1342 1195 1426 c 0,19,20
 1249 1520 1249 1520 1362 1520 c 0,21,22
 1409 1520 1409 1520 1445 1489.5 c 128,-1,23
 1481 1459 1481 1459 1500 1411 c 128,-1,24
 1519 1363 1519 1363 1533 1305.5 c 128,-1,25
 1547 1248 1547 1248 1549 1194 c 128,-1,26
 1551 1140 1551 1140 1554 1096.5 c 128,-1,27
 1557 1053 1557 1053 1555.5 1039.5 c 128,-1,28
 1554 1026 1554 1026 1554 1024 c 1,29,30
 1640 1038 1640 1038 1744 1103 c 0,31,32
 1785 1129 1785 1129 1821 1161 c 1,33,-1
 1821 1047 l 1,34,35
 1678 942 1678 942 1552 920 c 1,36,37
 1513 610 1513 610 1340 360 c 0,38,39
 1157 97 1157 97 904 -4 c 0,40,41
 769 -57 769 -57 643.5 -57 c 128,-1,42
 518 -57 518 -57 439.5 -23.5 c 128,-1,43
 361 10 361 10 314 72 c 0,44,45
 223 195 223 195 223 407 c 128,-1,46
 223 619 223 619 312.5 872.5 c 128,-1,47
 402 1126 402 1126 537 1311 c 1,48,49
 537 1315 537 1315 533 1315 c 128,-1,50
 529 1315 529 1315 520 1309 c 2,51,-1
 406 1221 l 1,52,53
 388 1211 388 1211 318 1167 c 0,54,55
 123 1045 123 1045 -43 946 c 1,56,-1
 -43 1057 l 1,57,58
 67 1121 67 1121 277 1250.5 c 128,-1,59
 487 1380 487 1380 615.5 1455 c 128,-1,60
 744 1530 744 1530 771.5 1530 c 128,-1,61
 799 1530 799 1530 799 1509 c 0,0,1
1430 1028 m 1,62,-1
 1432 1067 l 1,63,64
 1432 1167 1432 1167 1401 1253 c 128,-1,65
 1370 1339 1370 1339 1321 1339 c 0,66,67
 1266 1339 1266 1339 1266 1255.5 c 128,-1,68
 1266 1172 1266 1172 1313.5 1107.5 c 128,-1,69
 1361 1043 1361 1043 1430 1028 c 1,62,-1
EndSplineSet
EndChar

StartChar: V
Encoding: 86 86 58
Width: 1415
GlyphClass: 2
Flags: W
LayerCount: 2
Fore
SplineSet
595.5 1455 m 128,-1,1
 724 1530 724 1530 751 1530 c 128,-1,2
 778 1530 778 1530 778 1509 c 1,3,4
 778 1530 778 1530 719 1333 c 128,-1,5
 660 1136 660 1136 626 1001 c 0,6,7
 543 678 543 678 543 459 c 0,8,9
 543 182 543 182 698 182 c 0,10,11
 760 182 760 182 833 233 c 128,-1,12
 906 284 906 284 972.5 365 c 128,-1,13
 1039 446 1039 446 1102 545 c 0,14,15
 1223 737 1223 737 1286 922 c 1,16,17
 1215 933 1215 933 1120 1007 c 0,18,19
 1073 1044 1073 1044 1040.5 1107 c 128,-1,20
 1008 1170 1008 1170 1008 1230.5 c 128,-1,21
 1008 1291 1008 1291 1020 1336.5 c 128,-1,22
 1032 1382 1032 1382 1056 1424 c 0,23,24
 1110 1518 1110 1518 1223 1518 c 0,25,26
 1425 1518 1425 1518 1425 1022 c 1,27,28
 1533 1037 1533 1037 1672 1114 c 0,29,30
 1726 1143 1726 1143 1774 1180 c 1,31,-1
 1774 1065 l 1,32,33
 1594 948 1594 948 1413 918 c 1,34,35
 1372 726 1372 726 1269 506 c 0,36,37
 1163 279 1163 279 1001 116 c 0,38,39
 922 37 922 37 823 -10 c 128,-1,40
 724 -57 724 -57 623 -57 c 128,-1,41
 522 -57 522 -57 450 -16.5 c 128,-1,42
 378 24 378 24 338 96 c 0,43,44
 260 235 260 235 260 439.5 c 128,-1,45
 260 644 260 644 312.5 848.5 c 128,-1,46
 365 1053 365 1053 430 1151 c 0,47,48
 455 1188 455 1188 484.5 1241 c 128,-1,49
 514 1294 514 1294 514 1304.5 c 128,-1,50
 514 1315 514 1315 511.5 1315 c 128,-1,51
 509 1315 509 1315 500 1309 c 2,52,-1
 385 1221 l 1,53,54
 368 1211 368 1211 297 1167 c 0,55,56
 79 1032 79 1032 -63 946 c 1,57,-1
 -63 1057 l 1,58,59
 47 1121 47 1121 257 1250.5 c 128,-1,0
 467 1380 467 1380 595.5 1455 c 128,-1,1
1296 1028 m 1,60,-1
 1298 1067 l 1,61,62
 1298 1210 1298 1210 1247 1296 c 0,63,64
 1221 1339 1221 1339 1188 1339 c 0,65,66
 1133 1339 1133 1339 1133 1255.5 c 128,-1,67
 1133 1172 1133 1172 1180.5 1107.5 c 128,-1,68
 1228 1043 1228 1043 1296 1028 c 1,60,-1
EndSplineSet
EndChar

StartChar: W
Encoding: 87 87 59
Width: 1978
GlyphClass: 2
Flags: W
LayerCount: 2
Fore
SplineSet
1884 1028 m 1,0,-1
 1886 1067 l 1,1,2
 1886 1210 1886 1210 1835 1296 c 0,3,4
 1809 1339 1809 1339 1776 1339 c 0,5,6
 1720 1339 1720 1339 1720 1255.5 c 128,-1,7
 1720 1172 1720 1172 1768 1107.5 c 128,-1,8
 1816 1043 1816 1043 1884 1028 c 1,0,-1
2003 1047 m 2,9,-1
 2003 1028 l 1,10,-1
 2003 1022 l 1,11,12
 2101 1036 2101 1036 2235 1114 c 0,13,14
 2286 1143 2286 1143 2331 1180 c 1,15,-1
 2331 1065 l 1,16,17
 2158 946 2158 946 2001 918 c 1,18,19
 1986 683 1986 683 1832 416 c 1,20,21
 1664 128 1664 128 1460 9 c 0,22,23
 1346 -57 1346 -57 1235 -57 c 0,24,25
 1099 -57 1099 -57 1012 50 c 0,26,27
 979 91 979 91 961.5 138 c 128,-1,28
 944 185 944 185 938 215 c 1,29,30
 864 114 864 114 735 29.5 c 128,-1,31
 606 -55 606 -55 517 -55 c 128,-1,32
 428 -55 428 -55 363.5 -11 c 128,-1,33
 299 33 299 33 262 103 c 0,34,35
 190 242 190 242 190 417.5 c 128,-1,36
 190 593 190 593 251.5 799.5 c 128,-1,37
 313 1006 313 1006 420 1151 c 1,38,39
 443 1184 443 1184 473.5 1239.5 c 128,-1,40
 504 1295 504 1295 504 1305 c 128,-1,41
 504 1315 504 1315 501.5 1315 c 128,-1,42
 499 1315 499 1315 489 1309 c 1,43,-1
 375 1221 l 1,44,45
 359 1212 359 1212 287 1167 c 0,46,47
 95 1047 95 1047 -74 946 c 1,48,-1
 -74 1057 l 1,49,50
 38 1121 38 1121 247 1250 c 0,51,52
 698 1530 698 1530 741 1530 c 0,53,54
 768 1530 768 1530 768 1509 c 0,55,56
 768 1470 768 1470 666 1227 c 0,57,58
 473 765 473 765 473 553 c 0,59,60
 473 182 473 182 694 182 c 0,61,62
 746 182 746 182 820.5 226.5 c 128,-1,63
 895 271 895 271 928 326 c 1,64,65
 920 366 920 366 920 450.5 c 128,-1,66
 920 535 920 535 929 627 c 128,-1,67
 938 719 938 719 960.5 818.5 c 128,-1,68
 983 918 983 918 1016 995.5 c 128,-1,69
 1049 1073 1049 1073 1102.5 1123.5 c 128,-1,70
 1156 1174 1156 1174 1221 1174 c 0,71,72
 1303 1174 1303 1174 1303 1059 c 0,73,74
 1303 913 1303 913 1180 574 c 0,75,76
 1153 498 1153 498 1134 450 c 2,77,-1
 1114 401 l 1,78,79
 1114 343 1114 343 1149 300 c 0,80,81
 1217 217 1217 217 1352 217 c 0,82,83
 1451 217 1451 217 1550 292 c 128,-1,84
 1649 367 1649 367 1718 476 c 128,-1,85
 1787 585 1787 585 1830.5 706.5 c 128,-1,86
 1874 828 1874 828 1874 922 c 1,87,88
 1816 931 1816 931 1760 969 c 128,-1,89
 1704 1007 1704 1007 1672 1042 c 0,90,91
 1595 1126 1595 1126 1595 1245 c 0,92,93
 1595 1340 1595 1340 1643 1424 c 0,94,95
 1697 1518 1697 1518 1810 1518 c 0,96,97
 2003 1518 2003 1518 2003 1047 c 2,9,-1
EndSplineSet
EndChar

StartChar: X
Encoding: 88 88 60
Width: 1544
GlyphClass: 2
Flags: W
LayerCount: 2
Fore
SplineSet
66 147 m 1,0,-1
 215 135 l 1,1,2
 283 135 283 135 414.5 266.5 c 128,-1,3
 546 398 546 398 731 625 c 1,4,5
 617 896 617 896 543 1050 c 128,-1,6
 469 1204 469 1204 460.5 1222.5 c 128,-1,7
 452 1241 452 1241 447.5 1248 c 128,-1,8
 443 1255 443 1255 435 1266 c 0,9,10
 421 1284 421 1284 386.5 1284 c 128,-1,11
 352 1284 352 1284 308.5 1256.5 c 128,-1,12
 265 1229 265 1229 244.5 1218 c 128,-1,13
 224 1207 224 1207 169.5 1178 c 128,-1,14
 115 1149 115 1149 35 1102 c 1,15,-1
 35 1212 l 1,16,17
 426 1437 426 1437 491 1477.5 c 128,-1,18
 556 1518 556 1518 594 1518 c 0,19,20
 662 1518 662 1518 705 1427 c 1,21,22
 728 1371 728 1371 926 868 c 1,23,24
 1021 988 1021 988 1063 1038 c 1,25,26
 1241 1282 1241 1282 1311 1361 c 128,-1,27
 1381 1440 1381 1440 1464 1501 c 1,28,29
 1490 1518 1490 1518 1529.5 1518 c 128,-1,30
 1569 1518 1569 1518 1595.5 1503.5 c 128,-1,31
 1622 1489 1622 1489 1622 1460 c 128,-1,32
 1622 1431 1622 1431 1583.5 1392 c 128,-1,33
 1545 1353 1545 1353 1490 1313 c 128,-1,34
 1435 1273 1435 1273 1354.5 1193 c 128,-1,35
 1274 1113 1274 1113 1210 1018 c 1,36,37
 1115 891 1115 891 981 727 c 1,38,-1
 1087 459 l 1,39,40
 1168 277 1168 277 1214 206 c 128,-1,41
 1260 135 1260 135 1307 135 c 0,42,43
 1350 135 1350 135 1398.5 178 c 128,-1,44
 1447 221 1447 221 1476 250 c 128,-1,45
 1505 279 1505 279 1563 338 c 128,-1,46
 1621 397 1621 397 1665 440 c 1,47,-1
 1667 328 l 1,48,49
 1485 135 1485 135 1439 91 c 0,50,51
 1285 -57 1285 -57 1189 -57 c 128,-1,52
 1093 -57 1093 -57 1003.5 61 c 128,-1,53
 914 179 914 179 805 451 c 1,54,-1
 786 494 l 1,55,56
 616 292 616 292 535.5 202.5 c 128,-1,57
 455 113 455 113 434.5 91.5 c 128,-1,58
 414 70 414 70 376 37.5 c 128,-1,59
 338 5 338 5 304 -13 c 0,60,61
 219 -59 219 -59 123 -59 c 0,62,63
 15 -59 15 -59 -13 1 c 0,64,65
 -25 27 -25 27 -25 70 c 128,-1,66
 -25 113 -25 113 -1.5 130 c 128,-1,67
 22 147 22 147 66 147 c 1,0,-1
EndSplineSet
EndChar

StartChar: Y
Encoding: 89 89 61
Width: 1554
GlyphClass: 2
Flags: W
LayerCount: 2
Fore
SplineSet
1001 -139 m 1,0,-1
 723 -301 l 1,1,2
 611 -353 611 -353 540 -417.5 c 128,-1,3
 469 -482 469 -482 469 -548.5 c 128,-1,4
 469 -615 469 -615 493.5 -652 c 128,-1,5
 518 -689 518 -689 553 -694 c 1,6,7
 619 -694 619 -694 705 -629.5 c 128,-1,8
 791 -565 791 -565 864 -463 c 128,-1,9
 937 -361 937 -361 965 -260 c 1,10,-1
 1001 -139 l 1,0,-1
764 1518 m 128,-1,12
 829 1518 829 1518 829 1489 c 0,13,14
 829 1472 829 1472 801 1378.5 c 128,-1,15
 773 1285 773 1285 751.5 1200 c 128,-1,16
 730 1115 730 1115 667 912 c 0,17,18
 524 453 524 453 524 358 c 0,19,20
 524 321 524 321 548 284.5 c 128,-1,21
 572 248 572 248 602 248 c 0,22,23
 672 248 672 248 766 286 c 128,-1,24
 860 324 860 324 951.5 387 c 128,-1,25
 1043 450 1043 450 1116.5 544.5 c 128,-1,26
 1190 639 1190 639 1214 739 c 2,27,-1
 1305 1114 l 1,28,29
 1320 1182 1320 1182 1362.5 1331.5 c 128,-1,30
 1405 1481 1405 1481 1423 1487 c 1,31,-1
 1640 1487 l 1,32,-1
 1286 86 l 1,33,-1
 1673 440 l 1,34,-1
 1673 328 l 1,35,-1
 1268 -33 l 1,36,37
 1035 -639 1035 -639 623 -750 c 0,38,39
 536 -774 536 -774 454 -774 c 128,-1,40
 372 -774 372 -774 307.5 -752 c 128,-1,41
 243 -730 243 -730 197.5 -680.5 c 128,-1,42
 152 -631 152 -631 152 -566 c 128,-1,43
 152 -501 152 -501 203 -473 c 2,44,-1
 1012 -41 l 1,45,-1
 1171 457 l 1,46,47
 1008 269 1008 269 787 125.5 c 128,-1,48
 566 -18 566 -18 438 -18 c 0,49,50
 363 -18 363 -18 314.5 44 c 128,-1,51
 266 106 266 106 266 248 c 0,52,53
 266 344 266 344 288 435 c 128,-1,54
 310 526 310 526 320.5 570 c 128,-1,55
 331 614 331 614 358.5 699 c 128,-1,56
 386 784 386 784 396 814 c 0,57,58
 421 895 421 895 477 1053 c 1,59,-1
 584 1364 l 1,60,-1
 276 1151 l 1,61,-1
 266 1145 l 1,62,63
 258 1137 258 1137 249.5 1137 c 128,-1,64
 241 1137 241 1137 231 1146.5 c 128,-1,65
 221 1156 221 1156 221 1180 c 128,-1,66
 221 1204 221 1204 242 1219 c 1,67,-1
 653 1487 l 2,68,11
 699 1518 699 1518 764 1518 c 128,-1,12
EndSplineSet
EndChar

StartChar: Z
Encoding: 90 90 62
Width: 1450
GlyphClass: 2
Flags: W
LayerCount: 2
Fore
SplineSet
236 211 m 1,0,-1
 483 322 l 1,1,2
 643 531 643 531 721 655 c 1,3,-1
 1167 1376 l 1,4,5
 990 1393 990 1393 813.5 1393 c 128,-1,6
 637 1393 637 1393 498.5 1354 c 128,-1,7
 360 1315 360 1315 360 1280 c 0,8,9
 360 1154 360 1154 422 1100 c 1,10,11
 422 1075 422 1075 354 1061 c 1,12,13
 236 1105 236 1105 176.5 1187.5 c 128,-1,14
 117 1270 117 1270 117 1370 c 0,15,16
 117 1451 117 1451 468 1494 c 0,17,18
 657 1518 657 1518 847.5 1518 c 128,-1,19
 1038 1518 1038 1518 1208.5 1500.5 c 128,-1,20
 1379 1483 1379 1483 1405 1481 c 1,21,-1
 1448 1384 l 1,22,23
 1411 1327 1411 1327 1317 1165.5 c 128,-1,24
 1223 1004 1223 1004 1141 866 c 128,-1,25
 1059 728 1059 728 935.5 554.5 c 128,-1,26
 812 381 812 381 698 260 c 1,27,28
 708 257 708 257 758 241.5 c 128,-1,29
 808 226 808 226 840.5 216.5 c 128,-1,30
 873 207 873 207 928 190.5 c 128,-1,31
 983 174 983 174 1023.5 163 c 128,-1,32
 1064 152 1064 152 1108 141 c 0,33,34
 1194 119 1194 119 1229 119 c 128,-1,35
 1264 119 1264 119 1298 135 c 0,36,37
 1413 190 1413 190 1503 268 c 1,38,-1
 1503 168 l 1,39,40
 1461 144 1461 144 1360 74.5 c 128,-1,41
 1259 5 1259 5 1189.5 -26 c 128,-1,42
 1120 -57 1120 -57 1044 -57 c 0,43,44
 1039 -57 1039 -57 1031 -53 c 128,-1,45
 1023 -49 1023 -49 1014.5 -45 c 128,-1,46
 1006 -41 1006 -41 989 -33.5 c 128,-1,47
 972 -26 972 -26 950 -17 c 128,-1,48
 928 -8 928 -8 892.5 5.5 c 128,-1,49
 857 19 857 19 814 34 c 0,50,51
 711 72 711 72 573 117 c 1,52,53
 478 54 478 54 379.5 12.5 c 128,-1,54
 281 -29 281 -29 211 -29 c 0,55,56
 192 -29 192 -29 161 -16 c 0,57,58
 102 9 102 9 102 72 c 0,59,60
 102 152 102 152 236 211 c 1,0,-1
EndSplineSet
EndChar

StartChar: bracketleft
Encoding: 91 91 63
Width: 983
GlyphClass: 2
Flags: W
LayerCount: 2
Fore
SplineSet
279 -76 m 1,0,-1
 555 -74 l 1,1,2
 582 -80 582 -80 582 -111 c 128,-1,3
 582 -142 582 -142 520 -180 c 1,4,5
 198 -189 198 -189 86 -190 c 1,6,7
 68 -199 68 -199 58 -199 c 128,-1,8
 48 -199 48 -199 40.5 -187.5 c 128,-1,9
 33 -176 33 -176 33 -157.5 c 128,-1,10
 33 -139 33 -139 35 -133 c 2,11,-1
 438 1479 l 1,12,13
 454 1536 454 1536 518 1536 c 2,14,-1
 944 1536 l 2,15,16
 959 1536 959 1536 968 1520.5 c 128,-1,17
 977 1505 977 1505 977 1487 c 128,-1,18
 977 1469 977 1469 962.5 1451.5 c 128,-1,19
 948 1434 948 1434 928 1430 c 1,20,-1
 653 1421 l 1,21,22
 283 -33 283 -33 279 -76 c 1,0,-1
EndSplineSet
EndChar

StartChar: backslash
Encoding: 92 92 64
Width: 821
GlyphClass: 2
Flags: W
LayerCount: 2
Fore
SplineSet
158 1415 m 0,0,1
 162 1400 162 1400 318 1101 c 0,2,3
 792 188 792 188 860 8 c 0,4,5
 864 -3 864 -3 897 -60.5 c 128,-1,6
 930 -118 930 -118 930 -150 c 128,-1,7
 930 -182 930 -182 907 -182 c 0,8,9
 794 -182 794 -182 746 -76 c 0,10,11
 739 -60 739 -60 729 -36.5 c 128,-1,12
 719 -13 719 -13 713 -2 c 2,13,-1
 -66 1554 l 1,14,15
 -72 1575 -72 1575 -72 1587.5 c 128,-1,16
 -72 1600 -72 1600 -65.5 1610 c 128,-1,17
 -59 1620 -59 1620 -51 1620 c 0,18,19
 40 1620 40 1620 79 1580.5 c 128,-1,20
 118 1541 118 1541 158 1415 c 0,0,1
EndSplineSet
EndChar

StartChar: bracketright
Encoding: 93 93 65
Width: 989
GlyphClass: 2
Flags: W
LayerCount: 2
Fore
SplineSet
710 1423 m 1,0,-1
 433 1421 l 1,1,2
 407 1427 407 1427 407 1457.5 c 128,-1,3
 407 1488 407 1488 468 1528 c 1,4,5
 793 1537 793 1537 902 1538 c 1,6,7
 922 1546 922 1546 931 1546 c 128,-1,8
 940 1546 940 1546 947.5 1534.5 c 128,-1,9
 955 1523 955 1523 955 1505 c 128,-1,10
 955 1487 955 1487 953 1481 c 2,11,-1
 550 -131 l 1,12,13
 550 -136 550 -136 541 -155 c 0,14,15
 519 -197 519 -197 495 -197 c 0,16,17
 485 -197 485 -197 470 -188 c 1,18,19
 367 -187 367 -187 44 -178 c 1,20,21
 12 -149 12 -149 12 -133.5 c 128,-1,22
 12 -118 12 -118 15 -111 c 0,23,24
 33 -77 33 -77 60 -72 c 1,25,26
 79 -72 79 -72 189.5 -73 c 128,-1,27
 300 -74 300 -74 335 -74 c 1,28,29
 334 -74 334 -74 334 -58.5 c 128,-1,30
 334 -43 334 -43 423 306.5 c 128,-1,31
 512 656 512 656 610.5 1031.5 c 128,-1,32
 709 1407 709 1407 710 1423 c 1,0,-1
EndSplineSet
EndChar

StartChar: asciicircum
Encoding: 94 94 66
Width: 1706
GlyphClass: 2
Flags: W
LayerCount: 2
Fore
SplineSet
1120 1214 m 1,0,-1
 664 717 l 1,1,-1
 604 760 l 1,2,3
 650 840 650 840 763 986.5 c 128,-1,4
 876 1133 876 1133 993 1257.5 c 128,-1,5
 1110 1382 1110 1382 1149 1382 c 0,6,7
 1178 1382 1178 1382 1259.5 1223.5 c 128,-1,8
 1341 1065 1341 1065 1406.5 914 c 128,-1,9
 1472 763 1472 763 1475 750 c 1,10,-1
 1403 709 l 1,11,12
 1383 739 1383 739 1263.5 956 c 128,-1,13
 1144 1173 1144 1173 1120 1214 c 1,0,-1
EndSplineSet
EndChar

StartChar: underscore
Encoding: 95 95 67
Width: 930
GlyphClass: 2
Flags: W
LayerCount: 2
Fore
SplineSet
776 -74 m 2,0,-1
 639 -72 l 1,1,2
 500 -72 500 -72 129 -90 c 1,3,4
 72 -90 72 -90 72 -49 c 0,5,6
 72 23 72 23 121 37 c 1,7,8
 165 43 165 43 375.5 53 c 128,-1,9
 586 63 586 63 668 63 c 0,10,11
 877 63 877 63 877 23 c 0,12,13
 877 -7 877 -7 845.5 -40.5 c 128,-1,14
 814 -74 814 -74 776 -74 c 2,0,-1
EndSplineSet
EndChar

StartChar: grave
Encoding: 96 96 68
Width: 1706
GlyphClass: 2
Flags: W
LayerCount: 2
Fore
SplineSet
788 1083 m 2,0,-1
 700 1118 l 1,1,2
 682 1123 682 1123 682 1150 c 128,-1,3
 682 1177 682 1177 718 1213 c 128,-1,4
 754 1249 754 1249 788 1249 c 1,5,6
 863 1245 863 1245 992.5 1160 c 128,-1,7
 1122 1075 1122 1075 1208 995 c 1,8,-1
 1186 940 l 1,9,10
 898 1040 898 1040 788 1083 c 2,0,-1
EndSplineSet
EndChar

StartChar: a
Encoding: 97 97 69
Width: 928
GlyphClass: 2
Flags: W
LayerCount: 2
Fore
SplineSet
150 -29 m 0,0,1
 30 -29 30 -29 2 140 c 0,2,3
 -4 181 -4 181 -4 225 c 0,4,5
 -4 334 -4 334 50 445 c 128,-1,6
 104 556 104 556 192.5 643 c 128,-1,7
 281 730 281 730 404.5 785 c 128,-1,8
 528 840 528 840 657 840 c 0,9,10
 720 840 720 840 825 807 c 1,11,12
 824 800 824 800 805 715.5 c 128,-1,13
 786 631 786 631 767 543 c 0,14,15
 715 302 715 302 715 244 c 128,-1,16
 715 186 715 186 745 186 c 0,17,18
 811 186 811 186 1051 440 c 1,19,-1
 1051 328 l 1,20,21
 899 171 899 171 761.5 71 c 128,-1,22
 624 -29 624 -29 578 -29 c 0,23,24
 502 -29 502 -29 502 102 c 0,25,26
 502 145 502 145 510 199 c 1,27,28
 438 105 438 105 342.5 38 c 128,-1,29
 247 -29 247 -29 150 -29 c 0,0,1
209 281 m 0,30,31
 209 131 209 131 307 131 c 0,32,33
 349 131 349 131 410.5 175 c 128,-1,34
 472 219 472 219 522 272 c 1,35,-1
 637 764 l 1,36,37
 529 764 529 764 428 687 c 128,-1,38
 327 610 327 610 268 498 c 128,-1,39
 209 386 209 386 209 281 c 0,30,31
EndSplineSet
EndChar

StartChar: b
Encoding: 98 98 70
Width: 967
GlyphClass: 2
Flags: W
LayerCount: 2
Fore
SplineSet
430 924 m 1,0,1
 533 990 533 990 639 1147.5 c 128,-1,2
 745 1305 745 1305 745 1399 c 0,3,4
 745 1466 745 1466 678 1466 c 0,5,6
 646 1466 646 1466 584.5 1345.5 c 128,-1,7
 523 1225 523 1225 476.5 1093.5 c 128,-1,8
 430 962 430 962 430 924 c 1,0,1
225.5 891.5 m 128,-1,10
 272 1053 272 1053 290 1117.5 c 128,-1,11
 308 1182 308 1182 351.5 1263 c 128,-1,12
 395 1344 395 1344 454 1416 c 128,-1,13
 513 1488 513 1488 589.5 1534.5 c 128,-1,14
 666 1581 666 1581 741 1581 c 0,15,16
 895 1581 895 1581 895 1450 c 0,17,18
 895 1195 895 1195 395 733 c 1,19,20
 387 701 387 701 364.5 614.5 c 128,-1,21
 342 528 342 528 330 476 c 0,22,23
 293 326 293 326 293 236 c 0,24,25
 293 76 293 76 410 76 c 0,26,27
 480 76 480 76 557.5 133.5 c 128,-1,28
 635 191 635 191 686 276 c 128,-1,29
 737 361 737 361 737 436 c 0,30,31
 737 600 737 600 481 600 c 1,32,33
 495 655 495 655 570.5 715.5 c 128,-1,34
 646 776 646 776 702 776 c 0,35,36
 809 776 809 776 861 714.5 c 128,-1,37
 913 653 913 653 913 545.5 c 128,-1,38
 913 438 913 438 879.5 329 c 128,-1,39
 846 220 846 220 768 156 c 1,40,41
 841 195 841 195 958 310.5 c 128,-1,42
 1075 426 1075 426 1096 446 c 1,43,-1
 1094 332 l 1,44,45
 966 204 966 204 909 163.5 c 128,-1,46
 852 123 852 123 805.5 92 c 128,-1,47
 759 61 759 61 721 43.5 c 128,-1,48
 683 26 683 26 630 4.5 c 128,-1,49
 577 -17 577 -17 526 -29 c 0,50,51
 409 -57 409 -57 316.5 -57 c 128,-1,52
 224 -57 224 -57 179.5 -41.5 c 128,-1,53
 135 -26 135 -26 114 3 c 0,54,55
 78 53 78 53 78 134.5 c 128,-1,56
 78 216 78 216 87 298.5 c 128,-1,57
 96 381 96 381 122.5 495 c 128,-1,58
 149 609 149 609 164 669.5 c 128,-1,9
 179 730 179 730 225.5 891.5 c 128,-1,10
EndSplineSet
EndChar

StartChar: c
Encoding: 99 99 71
Width: 696
GlyphClass: 2
Flags: W
LayerCount: 2
Fore
SplineSet
227 -29 m 0,0,1
 112 -29 112 -29 54 43 c 128,-1,2
 -4 115 -4 115 -4 221.5 c 128,-1,3
 -4 328 -4 328 35 434.5 c 128,-1,4
 74 541 74 541 139.5 631.5 c 128,-1,5
 205 722 205 722 303 781 c 128,-1,6
 401 840 401 840 508 840 c 0,7,8
 650 840 650 840 692 772 c 0,9,10
 707 748 707 748 707 710.5 c 128,-1,11
 707 673 707 673 669.5 644.5 c 128,-1,12
 632 616 632 616 575 616 c 0,13,14
 544 616 544 616 517 680 c 0,15,16
 507 703 507 703 484.5 723 c 128,-1,17
 462 743 462 743 432 743 c 0,18,19
 374 743 374 743 323 678 c 128,-1,20
 272 613 272 613 243.5 520 c 128,-1,21
 215 427 215 427 215 338.5 c 128,-1,22
 215 250 215 250 247 195.5 c 128,-1,23
 279 141 279 141 344 141 c 0,24,25
 518 141 518 141 823 442 c 1,26,-1
 823 330 l 1,27,28
 553 67 553 67 377 0 c 0,29,30
 299 -29 299 -29 227 -29 c 0,0,1
EndSplineSet
EndChar

StartChar: d
Encoding: 100 100 72
Width: 913
GlyphClass: 2
Flags: W
LayerCount: 2
Fore
SplineSet
324 41.5 m 128,-1,1
 215 -29 215 -29 160.5 -29 c 128,-1,2
 106 -29 106 -29 77 -8.5 c 128,-1,3
 48 12 48 12 34 46 c 0,4,5
 10 108 10 108 10 198 c 128,-1,6
 10 288 10 288 59 406.5 c 128,-1,7
 108 525 108 525 184 620 c 128,-1,8
 260 715 260 715 357.5 777.5 c 128,-1,9
 455 840 455 840 530 840 c 128,-1,10
 605 840 605 840 676 819 c 1,11,-1
 809 1294 l 1,12,13
 837 1409 837 1409 864 1428 c 0,14,15
 901 1455 901 1455 939.5 1457.5 c 128,-1,16
 978 1460 978 1460 1022 1460 c 2,17,-1
 1057 1460 l 1,18,19
 1053 1426 1053 1426 1022 1321 c 1,20,21
 960 1136 960 1136 850.5 737.5 c 128,-1,22
 741 339 741 339 741 262 c 0,23,24
 741 225 741 225 748 212 c 128,-1,25
 755 199 755 199 774.5 199 c 128,-1,26
 794 199 794 199 855.5 257 c 128,-1,27
 917 315 917 315 1036 440 c 1,28,-1
 1036 328 l 1,29,30
 1022 314 1022 314 984.5 276 c 128,-1,31
 947 238 947 238 929 220 c 2,32,-1
 876 168 l 1,33,34
 842 133 842 133 821.5 115 c 128,-1,35
 801 97 801 97 771 70 c 128,-1,36
 741 43 741 43 721 28.5 c 128,-1,37
 701 14 701 14 678 -1 c 0,38,39
 635 -29 635 -29 606 -29 c 0,40,41
 524 -29 524 -29 524 104 c 0,42,43
 524 168 524 168 541 238 c 1,44,0
 433 112 433 112 324 41.5 c 128,-1,1
657 731 m 1,45,46
 653 745 653 745 621.5 757.5 c 128,-1,47
 590 770 590 770 563 770 c 0,48,49
 477 770 477 770 396 691 c 128,-1,50
 315 612 315 612 268 499.5 c 128,-1,51
 221 387 221 387 221 285 c 0,52,53
 221 158 221 158 303 158 c 0,54,55
 367 158 367 158 463 230.5 c 128,-1,56
 559 303 559 303 569 344 c 2,57,-1
 657 731 l 1,45,46
EndSplineSet
EndChar

StartChar: e
Encoding: 101 101 73
Width: 731
GlyphClass: 2
Flags: W
LayerCount: 2
Fore
SplineSet
303 565 m 1,0,1
 379 467 379 467 471 467 c 0,2,3
 529 467 529 467 571.5 524 c 128,-1,4
 614 581 614 581 614 644 c 128,-1,5
 614 707 614 707 590.5 728.5 c 128,-1,6
 567 750 567 750 522.5 750 c 128,-1,7
 478 750 478 750 439.5 730 c 128,-1,8
 401 710 401 710 374 680 c 0,9,10
 322 621 322 621 303 565 c 1,0,1
852 438 m 1,11,-1
 852 328 l 1,12,13
 693 153 693 153 568 62 c 128,-1,14
 443 -29 443 -29 330 -29 c 0,15,16
 104 -29 104 -29 48 118 c 1,17,18
 27 176 27 176 27 258 c 0,19,20
 27 404 27 404 88 536.5 c 128,-1,21
 149 669 149 669 263.5 754.5 c 128,-1,22
 378 840 378 840 518 840 c 0,23,24
 754 840 754 840 754 664 c 0,25,26
 754 550 754 550 662 465.5 c 128,-1,27
 570 381 570 381 455 381 c 0,28,29
 409 381 409 381 359 408 c 128,-1,30
 309 435 309 435 274 489 c 1,31,32
 231 399 231 399 231 313 c 0,33,34
 231 82 231 82 399 82 c 0,35,36
 443 82 443 82 507.5 124 c 128,-1,37
 572 166 572 166 621.5 212.5 c 128,-1,38
 671 259 671 259 747 335.5 c 128,-1,39
 823 412 823 412 852 438 c 1,11,-1
EndSplineSet
EndChar

StartChar: f
Encoding: 102 102 74
Width: 453
GlyphClass: 2
Flags: W
LayerCount: 2
Fore
SplineSet
547 1358 m 0,0,1
 501 1358 501 1358 460 1272 c 1,2,3
 413 1170 413 1170 389.5 1084.5 c 128,-1,4
 366 999 366 999 353 950.5 c 128,-1,5
 340 902 340 902 324 826 c 0,6,7
 280 626 280 626 279 615 c 128,-1,8
 278 604 278 604 276.5 597.5 c 128,-1,9
 275 591 275 591 274 586 c 1,10,11
 294 618 294 618 353.5 705.5 c 128,-1,12
 413 793 413 793 448.5 850 c 128,-1,13
 484 907 484 907 528 986 c 0,14,15
 616 1142 616 1142 616 1250 c 128,-1,16
 616 1358 616 1358 547 1358 c 0,0,1
575 440 m 1,17,-1
 575 328 l 1,18,19
 391 131 391 131 306.5 131 c 128,-1,20
 222 131 222 131 199 193 c 1,21,22
 199 177 199 177 151 -64 c 128,-1,23
 103 -305 103 -305 94 -336 c 1,24,-1
 -74 -336 l 1,25,26
 -34 -40 -34 -40 66 401.5 c 128,-1,27
 166 843 166 843 262 1190 c 0,28,29
 289 1287 289 1287 409.5 1376.5 c 128,-1,30
 530 1466 530 1466 649 1466 c 0,31,32
 735 1466 735 1466 742 1363 c 0,33,34
 743 1348 743 1348 743 1325 c 0,35,36
 743 1206 743 1206 689.5 1074.5 c 128,-1,37
 636 943 636 943 560 834.5 c 128,-1,38
 484 726 484 726 408 632.5 c 128,-1,39
 332 539 332 539 278.5 469 c 128,-1,40
 225 399 225 399 225 359.5 c 128,-1,41
 225 320 225 320 256 279 c 128,-1,42
 287 238 287 238 322 238 c 128,-1,43
 357 238 357 238 444.5 312.5 c 128,-1,44
 532 387 532 387 575 440 c 1,17,-1
EndSplineSet
EndChar

StartChar: g
Encoding: 103 103 75
Width: 928
GlyphClass: 2
Flags: W
LayerCount: 2
Fore
SplineSet
424 -507 m 128,-1,1
 356 -547 356 -547 302 -547 c 128,-1,2
 248 -547 248 -547 206.5 -532.5 c 128,-1,3
 165 -518 165 -518 134.5 -484 c 128,-1,4
 104 -450 104 -450 104 -419 c 128,-1,5
 104 -388 104 -388 107.5 -374 c 128,-1,6
 111 -360 111 -360 122 -345 c 128,-1,7
 133 -330 133 -330 139.5 -320.5 c 128,-1,8
 146 -311 146 -311 166 -294 c 128,-1,9
 186 -277 186 -277 193 -271 c 128,-1,10
 200 -265 200 -265 227 -244.5 c 128,-1,11
 254 -224 254 -224 260 -219 c 2,12,-1
 537 -6 l 1,13,-1
 569 164 l 1,14,15
 441 50 441 50 356.5 10.5 c 128,-1,16
 272 -29 272 -29 198 -29 c 128,-1,17
 124 -29 124 -29 87.5 33 c 128,-1,18
 51 95 51 95 51 178.5 c 128,-1,19
 51 262 51 262 77.5 356.5 c 128,-1,20
 104 451 104 451 154.5 537 c 128,-1,21
 205 623 205 623 272 691 c 128,-1,22
 339 759 339 759 428 799.5 c 128,-1,23
 517 840 517 840 609 840 c 128,-1,24
 701 840 701 840 911 801 c 1,25,-1
 758 154 l 1,26,27
 785 179 785 179 839.5 230.5 c 128,-1,28
 894 282 894 282 917 304 c 0,29,30
 977 359 977 359 1051 440 c 1,31,-1
 1051 328 l 1,32,-1
 737 23 l 1,33,34
 690 -236 690 -236 554 -396 c 1,35,0
 492 -467 492 -467 424 -507 c 128,-1,1
524 -117 m 1,36,-1
 360 -256 l 2,37,38
 354 -261 354 -261 336 -275 c 128,-1,39
 318 -289 318 -289 310 -296 c 128,-1,40
 302 -303 302 -303 288 -318 c 128,-1,41
 274 -333 274 -333 268 -346 c 0,42,43
 250 -383 250 -383 250 -422.5 c 128,-1,44
 250 -462 250 -462 267.5 -477 c 128,-1,45
 285 -492 285 -492 324 -492 c 0,46,47
 404 -492 404 -492 454.5 -389 c 128,-1,48
 505 -286 505 -286 524 -117 c 1,36,-1
270 324 m 0,49,50
 270 131 270 131 367 131 c 0,51,52
 453 131 453 131 584 279 c 1,53,-1
 700 766 l 1,54,55
 627 784 627 784 602 784 c 0,56,57
 535 784 535 784 472 740 c 128,-1,58
 409 696 409 696 366 629 c 0,59,60
 270 482 270 482 270 324 c 0,49,50
EndSplineSet
EndChar

StartChar: h
Encoding: 104 104 76
Width: 881
GlyphClass: 2
Flags: W
LayerCount: 2
Fore
SplineSet
596 1458 m 1,0,-1
 334 510 l 1,1,2
 408 647 408 647 528 743.5 c 128,-1,3
 648 840 648 840 762 840 c 0,4,5
 860 840 860 840 860 723 c 0,6,7
 860 681 860 681 795.5 493.5 c 128,-1,8
 731 306 731 306 731 233 c 0,9,10
 731 203 731 203 750 203 c 0,11,12
 763 203 763 203 865.5 306.5 c 128,-1,13
 968 410 968 410 1008 444 c 1,14,-1
 1008 332 l 1,15,16
 693 -29 693 -29 596 -29 c 0,17,18
 532 -29 532 -29 532 47 c 0,19,20
 532 58 532 58 536 85.5 c 128,-1,21
 540 113 540 113 568 208 c 0,22,23
 649 478 649 478 649 598 c 0,24,25
 649 655 649 655 592 655 c 0,26,27
 504 655 504 655 406.5 526.5 c 128,-1,28
 309 398 309 398 274.5 267.5 c 128,-1,29
 240 137 240 137 219 82 c 128,-1,30
 198 27 198 27 166 0 c 1,31,-1
 10 0 l 1,32,33
 27 124 27 124 246 932 c 1,34,-1
 319 1204 l 2,35,36
 366 1381 366 1381 407 1428 c 0,37,38
 431 1456 431 1456 470 1459 c 128,-1,39
 509 1462 509 1462 547.5 1462 c 128,-1,40
 586 1462 586 1462 596 1458 c 1,0,-1
EndSplineSet
EndChar

StartChar: i
Encoding: 105 105 77
Width: 469
GlyphClass: 2
Flags: W
LayerCount: 2
Fore
SplineSet
231 199 m 0,0,1
 231 133 231 133 266 133 c 0,2,3
 288 133 288 133 404.5 247.5 c 128,-1,4
 521 362 521 362 590 438 c 1,5,-1
 590 326 l 1,6,7
 393 132 393 132 326 76 c 0,8,9
 204 -25 204 -25 117 -29 c 1,10,11
 73 -29 73 -29 51 10.5 c 128,-1,12
 29 50 29 50 29 112 c 128,-1,13
 29 174 29 174 85 403 c 128,-1,14
 141 632 141 632 159.5 680 c 128,-1,15
 178 728 178 728 190 747 c 128,-1,16
 202 766 202 766 220 777 c 128,-1,17
 238 788 238 788 251.5 794.5 c 128,-1,18
 265 801 265 801 293 804 c 0,19,20
 332 807 332 807 389 807 c 1,21,22
 231 301 231 301 231 199 c 0,0,1
403 1073 m 0,23,24
 332 1073 332 1073 332 1145 c 0,25,26
 332 1195 332 1195 369.5 1241.5 c 128,-1,27
 407 1288 407 1288 458 1288 c 128,-1,28
 509 1288 509 1288 534 1268 c 128,-1,29
 559 1248 559 1248 559 1207.5 c 128,-1,30
 559 1167 559 1167 511.5 1120 c 128,-1,31
 464 1073 464 1073 403 1073 c 0,23,24
EndSplineSet
EndChar

StartChar: j
Encoding: 106 106 78
Width: 442
GlyphClass: 2
Flags: W
LayerCount: 2
Fore
SplineSet
-18 2 m 1,0,-1
 20 137 l 1,1,2
 43 258 43 258 89 456 c 128,-1,3
 135 654 135 654 148.5 688 c 128,-1,4
 162 722 162 722 170.5 737.5 c 128,-1,5
 179 753 179 753 191 764 c 128,-1,6
 203 775 203 775 212 782.5 c 128,-1,7
 221 790 221 790 239 794.5 c 128,-1,8
 257 799 257 799 266.5 802 c 128,-1,9
 276 805 276 805 300 806 c 128,-1,10
 324 807 324 807 334 807 c 2,11,12
 334 807 334 807 375 807 c 1,13,14
 374 802 374 802 355.5 739.5 c 128,-1,15
 337 677 337 677 324.5 634.5 c 128,-1,16
 312 592 312 592 291 517.5 c 128,-1,17
 270 443 270 443 255 387 c 128,-1,18
 240 331 240 331 225 271 c 0,19,20
 195 151 195 151 195 106 c 1,21,22
 215 114 215 114 333 218 c 128,-1,23
 451 322 451 322 567 440 c 1,24,-1
 567 328 l 1,25,26
 475 234 475 234 420 182 c 0,27,28
 271 38 271 38 158 -16 c 1,29,30
 153 -40 153 -40 142 -93 c 128,-1,31
 131 -146 131 -146 127.5 -160.5 c 128,-1,32
 124 -175 124 -175 116 -214 c 128,-1,33
 108 -253 108 -253 105 -265.5 c 128,-1,34
 102 -278 102 -278 95 -308.5 c 128,-1,35
 88 -339 88 -339 83.5 -355.5 c 128,-1,36
 79 -372 79 -372 72 -400.5 c 128,-1,37
 65 -429 65 -429 57.5 -455 c 128,-1,38
 50 -481 50 -481 41 -514 c 0,39,40
 14 -611 14 -611 -106.5 -701 c 128,-1,41
 -227 -791 -227 -791 -346 -791 c 0,42,43
 -379 -791 -379 -791 -401 -771 c 0,44,45
 -444 -732 -444 -732 -444 -632 c 0,46,47
 -444 -539 -444 -539 -386 -431.5 c 128,-1,48
 -328 -324 -328 -324 -269 -253 c 0,49,50
 -149 -109 -149 -109 -56 -30 c 2,51,-1
 -18 2 l 1,0,-1
-280 -472 m 0,52,53
 -298 -515 -298 -515 -307.5 -554 c 128,-1,54
 -317 -593 -317 -593 -317 -611 c 128,-1,55
 -317 -629 -317 -629 -301.5 -655.5 c 128,-1,56
 -286 -682 -286 -682 -254.5 -682 c 128,-1,57
 -223 -682 -223 -682 -204 -669.5 c 128,-1,58
 -185 -657 -185 -657 -168.5 -631 c 128,-1,59
 -152 -605 -152 -605 -138.5 -577.5 c 128,-1,60
 -125 -550 -125 -550 -111.5 -506 c 128,-1,61
 -98 -462 -98 -462 -88.5 -429 c 128,-1,62
 -79 -396 -79 -396 -68 -344.5 c 128,-1,63
 -57 -293 -57 -293 -51 -264 c 0,64,65
 -35 -184 -35 -184 -23 -117 c 1,66,67
 -235 -367 -235 -367 -280 -472 c 0,52,53
389 1073 m 0,68,69
 317 1073 317 1073 317 1145 c 0,70,71
 317 1194 317 1194 354.5 1241 c 128,-1,72
 392 1288 392 1288 443.5 1288 c 128,-1,73
 495 1288 495 1288 520 1268 c 128,-1,74
 545 1248 545 1248 545 1207.5 c 128,-1,75
 545 1167 545 1167 497.5 1120 c 128,-1,76
 450 1073 450 1073 389 1073 c 0,68,69
EndSplineSet
EndChar

StartChar: k
Encoding: 107 107 79
Width: 905
GlyphClass: 2
Flags: W
LayerCount: 2
Fore
SplineSet
686 262 m 1,0,-1
 684 188 l 1,1,2
 684 121 684 121 702 121 c 0,3,4
 709 121 709 121 714.5 126.5 c 128,-1,5
 720 132 720 132 760 171.5 c 128,-1,6
 800 211 800 211 844 254 c 0,7,8
 979 388 979 388 1028 440 c 1,9,-1
 1028 328 l 1,10,11
 789 92 789 92 723 35 c 0,12,13
 649 -29 649 -29 590 -29 c 0,14,15
 496 -29 496 -29 496 113 c 1,16,-1
 510 303 l 1,17,18
 510 332 510 332 494 349 c 0,19,20
 460 387 460 387 289 387 c 1,21,-1
 283 360 l 2,22,23
 216 60 216 60 145 0 c 1,24,-1
 -10 0 l 1,25,26
 3 109 3 109 226 932 c 1,27,-1
 299 1204 l 2,28,29
 346 1379 346 1379 386 1428 c 0,30,31
 411 1458 411 1458 449.5 1460 c 128,-1,32
 488 1462 488 1462 526.5 1462 c 128,-1,33
 565 1462 565 1462 575 1458 c 1,34,35
 537 1319 537 1319 442.5 998 c 128,-1,36
 348 677 348 677 348 674 c 1,37,-1
 696 840 l 1,38,39
 755 840 755 840 792 799 c 128,-1,40
 829 758 829 758 829 710.5 c 128,-1,41
 829 663 829 663 821 634.5 c 128,-1,42
 813 606 813 606 803 585 c 128,-1,43
 793 564 793 564 769.5 543.5 c 128,-1,44
 746 523 746 523 729 511 c 128,-1,45
 712 499 712 499 675 483 c 0,46,47
 598 450 598 450 567 439.5 c 128,-1,48
 536 429 536 429 531 427 c 128,-1,49
 526 425 526 425 522 424 c 1,50,51
 626 424 626 424 659 372 c 0,52,53
 686 330 686 330 686 262 c 1,0,-1
295 457 m 1,54,-1
 362 457 l 2,55,56
 453 457 453 457 522 490 c 0,57,58
 651 550 651 550 651 645.5 c 128,-1,59
 651 741 651 741 573 741 c 0,60,61
 537 741 537 741 473.5 695.5 c 128,-1,62
 410 650 410 650 355.5 581 c 128,-1,63
 301 512 301 512 295 457 c 1,54,-1
EndSplineSet
EndChar

StartChar: l
Encoding: 108 108 80
Width: 553
GlyphClass: 2
Flags: W
LayerCount: 2
Fore
SplineSet
678 1417 m 0,0,1
 608 1417 608 1417 541.5 1222 c 128,-1,2
 475 1027 475 1027 389 618 c 1,3,4
 464 695 464 695 530 803.5 c 128,-1,5
 596 912 596 912 636 1014 c 0,6,7
 721 1229 721 1229 721 1323 c 128,-1,8
 721 1417 721 1417 678 1417 c 0,0,1
180 -29 m 1,9,10
 145 -29 145 -29 132 -11 c 128,-1,11
 119 7 119 7 112 19.5 c 128,-1,12
 105 32 105 32 101 53 c 128,-1,13
 97 74 97 74 94.5 89 c 128,-1,14
 92 104 92 104 91 129.5 c 128,-1,15
 90 155 90 155 90 168 c 2,16,-1
 90 207 l 2,17,18
 90 400 90 400 143.5 634 c 128,-1,19
 197 868 197 868 280.5 1066 c 128,-1,20
 364 1264 364 1264 476 1398 c 128,-1,21
 588 1532 588 1532 694 1532 c 0,22,23
 759 1532 759 1532 796.5 1487.5 c 128,-1,24
 834 1443 834 1443 834 1355.5 c 128,-1,25
 834 1268 834 1268 807.5 1159.5 c 128,-1,26
 781 1051 781 1051 739 960.5 c 128,-1,27
 697 870 697 870 646 784.5 c 128,-1,28
 595 699 595 699 544 634 c 0,29,30
 440 502 440 502 382 448 c 1,31,-1
 356 422 l 1,32,33
 297 266 297 266 297 191.5 c 128,-1,34
 297 117 297 117 332 117 c 0,35,36
 357 117 357 117 469 227 c 128,-1,37
 581 337 581 337 674 440 c 1,38,-1
 674 328 l 1,39,40
 502 143 502 143 389.5 60.5 c 128,-1,41
 277 -22 277 -22 180 -29 c 1,9,10
EndSplineSet
EndChar

StartChar: m
Encoding: 109 109 81
Width: 1348
GlyphClass: 2
Flags: W
LayerCount: 2
Fore
SplineSet
1022 -31 m 0,0,1
 963 -31 963 -31 963 57 c 0,2,3
 963 174 963 174 1032.5 327.5 c 128,-1,4
 1102 481 1102 481 1102 582 c 0,5,6
 1102 609 1102 609 1083 632 c 128,-1,7
 1064 655 1064 655 1025.5 655 c 128,-1,8
 987 655 987 655 934 599 c 128,-1,9
 881 543 881 543 839 465.5 c 128,-1,10
 797 388 797 388 756 290 c 1,11,12
 693 135 693 135 655 0 c 1,13,-1
 463 0 l 1,14,15
 463 131 463 131 545 398 c 0,16,17
 594 557 594 557 594 592.5 c 128,-1,18
 594 628 594 628 580 643.5 c 128,-1,19
 566 659 566 659 552 659 c 128,-1,20
 538 659 538 659 526 655 c 1,21,22
 461 625 461 625 397.5 537.5 c 128,-1,23
 334 450 334 450 288 342 c 0,24,25
 202 142 202 142 166 0 c 1,26,-1
 -25 0 l 1,27,28
 -17 129 -17 129 44.5 403.5 c 128,-1,29
 106 678 106 678 156 758 c 1,30,31
 174 790 174 790 216.5 798.5 c 128,-1,32
 259 807 259 807 362 807 c 1,33,34
 348 737 348 737 304.5 604 c 128,-1,35
 261 471 261 471 252 440 c 1,36,37
 479 838 479 838 705 838 c 0,38,39
 744 838 744 838 763 794.5 c 128,-1,40
 782 751 782 751 782 682.5 c 128,-1,41
 782 614 782 614 729 440 c 1,42,43
 800 579 800 579 920 703 c 0,44,45
 980 764 980 764 1050 802 c 128,-1,46
 1120 840 1120 840 1184 840 c 0,47,48
 1296 840 1296 840 1296 686 c 0,49,50
 1296 544 1296 544 1218 314 c 0,51,52
 1196 250 1196 250 1196 229.5 c 128,-1,53
 1196 209 1196 209 1205.5 209 c 128,-1,54
 1215 209 1215 209 1226 214.5 c 128,-1,55
 1237 220 1237 220 1252.5 232.5 c 128,-1,56
 1268 245 1268 245 1283 258.5 c 128,-1,57
 1298 272 1298 272 1322 295.5 c 128,-1,58
 1346 319 1346 319 1365 337.5 c 128,-1,59
 1384 356 1384 356 1415 387 c 2,60,-1
 1468 440 l 1,61,-1
 1468 328 l 1,62,63
 1343 199 1343 199 1207 84 c 128,-1,64
 1071 -31 1071 -31 1022 -31 c 0,0,1
EndSplineSet
EndChar

StartChar: n
Encoding: 110 110 82
Width: 838
GlyphClass: 2
Flags: W
LayerCount: 2
Fore
SplineSet
958 436 m 1,0,-1
 958 324 l 1,1,2
 799 162 799 162 676.5 66.5 c 128,-1,3
 554 -29 554 -29 513 -29 c 0,4,5
 438 -29 438 -29 438 55 c 128,-1,6
 438 139 438 139 475.5 255.5 c 128,-1,7
 513 372 513 372 550.5 466.5 c 128,-1,8
 588 561 588 561 588 593 c 128,-1,9
 588 625 588 625 576.5 640 c 128,-1,10
 565 655 565 655 549 655 c 0,11,12
 492 655 492 655 426 575.5 c 128,-1,13
 360 496 360 496 308 383 c 0,14,15
 200 149 200 149 166 0 c 1,16,-1
 -25 0 l 1,17,18
 -24 108 -24 108 36 358 c 128,-1,19
 96 608 96 608 143 727 c 0,20,21
 162 775 162 775 197.5 791 c 128,-1,22
 233 807 233 807 293 807 c 2,23,-1
 360 807 l 1,24,25
 287 555 287 555 252 444 c 1,26,27
 319 569 319 569 446 698 c 0,28,29
 508 760 508 760 581 800 c 128,-1,30
 654 840 654 840 719 840 c 0,31,32
 817 840 817 840 817 723 c 0,33,34
 817 667 817 667 746.5 457.5 c 128,-1,35
 676 248 676 248 676 226.5 c 128,-1,36
 676 205 676 205 688.5 205 c 128,-1,37
 701 205 701 205 721.5 218.5 c 128,-1,38
 742 232 742 232 840 325.5 c 128,-1,39
 938 419 938 419 958 436 c 1,0,-1
EndSplineSet
EndChar

StartChar: o
Encoding: 111 111 83
Width: 907
GlyphClass: 2
Flags: W
LayerCount: 2
Fore
SplineSet
684 827 m 1,0,1
 684 798 684 798 662 784 c 1,2,3
 463 784 463 784 358 670 c 1,4,5
 260 562 260 562 260 427.5 c 128,-1,6
 260 293 260 293 319.5 213 c 128,-1,7
 379 133 379 133 465 133 c 128,-1,8
 551 133 551 133 631 223 c 1,9,10
 556 270 556 270 515.5 347 c 128,-1,11
 475 424 475 424 475 503.5 c 128,-1,12
 475 583 475 583 523 632.5 c 128,-1,13
 571 682 571 682 662 682 c 128,-1,14
 753 682 753 682 794.5 633 c 128,-1,15
 836 584 836 584 836 513 c 0,16,17
 836 367 836 367 743 254 c 1,18,19
 768 244 768 244 786 244 c 128,-1,20
 804 244 804 244 823.5 252.5 c 128,-1,21
 843 261 843 261 868 282.5 c 128,-1,22
 893 304 893 304 912 323 c 128,-1,23
 931 342 931 342 967 380 c 128,-1,24
 1003 418 1003 418 1028 442 c 1,25,-1
 1028 332 l 1,26,27
 945 244 945 244 893.5 207 c 128,-1,28
 842 170 842 170 792.5 170 c 128,-1,29
 743 170 743 170 702 184 c 1,30,31
 625 90 625 90 519.5 30.5 c 128,-1,32
 414 -29 414 -29 301 -29 c 0,33,34
 139 -29 139 -29 70 124 c 0,35,36
 31 210 31 210 31 317 c 0,37,38
 31 560 31 560 203.5 700 c 128,-1,39
 376 840 376 840 662 840 c 0,40,41
 682 840 682 840 684 827 c 1,0,1
741 494 m 0,42,43
 741 586 741 586 659.5 586 c 128,-1,44
 578 586 578 586 578 489 c 0,45,46
 578 438 578 438 605.5 383.5 c 128,-1,47
 633 329 633 329 680 297 c 1,48,49
 700 330 700 330 720.5 388.5 c 128,-1,50
 741 447 741 447 741 494 c 0,42,43
EndSplineSet
EndChar

StartChar: p
Encoding: 112 112 84
Width: 836
GlyphClass: 2
Flags: W
LayerCount: 2
Fore
SplineSet
688 840 m 0,0,1
 817 840 817 840 817 688 c 0,2,3
 817 556 817 556 725.5 383.5 c 128,-1,4
 634 211 634 211 528 145 c 1,5,6
 631 145 631 145 798 292 c 1,7,8
 878 361 878 361 983 469 c 1,9,-1
 983 354 l 1,10,11
 959 331 959 331 915 287.5 c 128,-1,12
 871 244 871 244 851.5 225.5 c 128,-1,13
 832 207 832 207 795 172 c 128,-1,14
 758 137 758 137 739 122 c 128,-1,15
 720 107 720 107 687.5 82 c 128,-1,16
 655 57 655 57 633.5 46.5 c 128,-1,17
 612 36 612 36 580.5 20.5 c 128,-1,18
 549 5 549 5 522 -1 c 0,19,20
 454 -16 454 -16 408 -16 c 128,-1,21
 362 -16 362 -16 349 0 c 128,-1,22
 336 16 336 16 336 35.5 c 128,-1,23
 336 55 336 55 338 62.5 c 128,-1,24
 340 70 340 70 345.5 79 c 128,-1,25
 351 88 351 88 355.5 95 c 128,-1,26
 360 102 360 102 369.5 113.5 c 128,-1,27
 379 125 379 125 384 131 c 128,-1,28
 389 137 389 137 400 150 c 0,29,30
 477 236 477 236 535.5 364 c 128,-1,31
 594 492 594 492 594 573.5 c 128,-1,32
 594 655 594 655 528 655 c 0,33,34
 415 655 415 655 320 472 c 0,35,36
 236 310 236 310 166 84 c 2,37,-1
 139 -2 l 1,38,39
 123 -62 123 -62 43 -389 c 1,40,-1
 -137 -389 l 1,41,42
 -99 -250 -99 -250 -56 -33 c 128,-1,43
 -13 184 -13 184 31.5 379 c 128,-1,44
 76 574 76 574 133 727 c 0,45,46
 153 779 153 779 185.5 793 c 128,-1,47
 218 807 218 807 283 807 c 2,48,-1
 350 807 l 1,49,50
 298 626 298 626 242 444 c 1,51,52
 306 570 306 570 424 696 c 0,53,54
 483 759 483 759 553.5 799.5 c 128,-1,55
 624 840 624 840 688 840 c 0,0,1
EndSplineSet
EndChar

StartChar: q
Encoding: 113 113 85
Width: 897
GlyphClass: 2
Flags: W
LayerCount: 2
Fore
SplineSet
561 -440 m 1,0,-1
 371 -379 l 1,1,-1
 481 -47 l 1,2,3
 432 -55 432 -55 373 -55 c 0,4,5
 55 -55 55 -55 55 258 c 0,6,7
 55 463 55 463 188 645 c 0,8,9
 250 731 250 731 349 785.5 c 128,-1,10
 448 840 448 840 552 840 c 128,-1,11
 656 840 656 840 864 760 c 1,12,-1
 711 123 l 1,13,14
 775 195 775 195 872 285.5 c 128,-1,15
 969 376 969 376 1022 440 c 1,16,-1
 1022 328 l 1,17,-1
 690 18 l 1,18,-1
 690 14 l 1,19,20
 670 -70 670 -70 624 -238.5 c 128,-1,21
 578 -407 578 -407 561 -440 c 1,0,-1
262 291 m 0,22,23
 262 61 262 61 424 61 c 0,24,25
 463 61 463 61 496 72 c 1,26,-1
 653 766 l 1,27,28
 580 784 580 784 555 784 c 0,29,30
 478 784 478 784 408.5 703.5 c 128,-1,31
 339 623 339 623 300.5 509.5 c 128,-1,32
 262 396 262 396 262 291 c 0,22,23
EndSplineSet
EndChar

StartChar: r
Encoding: 114 114 86
Width: 659
GlyphClass: 2
Flags: W
LayerCount: 2
Fore
SplineSet
492 729 m 1,0,-1
 612 743 l 1,1,2
 641 743 641 743 641 729 c 128,-1,3
 641 715 641 715 572 572 c 0,4,5
 414 248 414 248 414 182 c 0,6,7
 414 181 414 181 413.5 174.5 c 128,-1,8
 413 168 413 168 413.5 164.5 c 128,-1,9
 414 161 414 161 415 155 c 128,-1,10
 416 149 416 149 418 146 c 0,11,12
 425 137 425 137 438 137 c 0,13,14
 464 137 464 137 597.5 255.5 c 128,-1,15
 731 374 731 374 780 440 c 1,16,-1
 780 328 l 1,17,18
 423 -29 423 -29 299 -29 c 0,19,20
 255 -29 255 -29 233 10.5 c 128,-1,21
 211 50 211 50 211 88 c 128,-1,22
 211 126 211 126 226 175.5 c 128,-1,23
 241 225 241 225 266.5 289 c 128,-1,24
 292 353 292 353 314 405 c 128,-1,25
 336 457 336 457 362.5 517.5 c 128,-1,26
 389 578 389 578 393 588 c 1,27,28
 336 530 336 530 260.5 461 c 128,-1,29
 185 392 185 392 119 324 c 1,30,-1
 119 436 l 1,31,-1
 322 647 l 1,32,33
 200 677 200 677 164 741 c 0,34,35
 156 754 156 754 156 764 c 0,36,37
 156 834 156 834 209 887 c 128,-1,38
 262 940 262 940 350 940 c 0,39,40
 395 940 395 940 395 887 c 0,41,42
 395 856 395 856 377 819.5 c 128,-1,43
 359 783 359 783 334 770 c 1,44,45
 380 729 380 729 492 729 c 1,0,-1
EndSplineSet
EndChar

StartChar: s
Encoding: 115 115 87
Width: 645
GlyphClass: 2
Flags: W
LayerCount: 2
Fore
SplineSet
265.5 -18 m 128,-1,1
 225 -29 225 -29 184.5 -29 c 128,-1,2
 144 -29 144 -29 99.5 -21 c 128,-1,3
 55 -13 55 -13 12 5 c 0,4,5
 -86 45 -86 45 -86 143 c 0,6,7
 -86 182 -86 182 -57 232 c 128,-1,8
 -28 282 -28 282 6.5 320 c 128,-1,9
 41 358 41 358 88 407 c 128,-1,10
 135 456 135 456 152 477 c 1,11,12
 125 544 125 544 125 623 c 0,13,14
 125 740 125 740 197 816.5 c 128,-1,15
 269 893 269 893 412 893 c 0,16,17
 475 893 475 893 475 858 c 0,18,19
 475 796 475 796 421.5 761.5 c 128,-1,20
 368 727 368 727 307 727 c 1,21,22
 341 624 341 624 422 542 c 1,23,24
 452 510 452 510 480 481 c 0,25,26
 545 415 545 415 545 367 c 0,27,28
 545 293 545 293 475 197 c 1,29,-1
 772 440 l 1,30,-1
 772 330 l 1,31,32
 760 320 760 320 712.5 278 c 128,-1,33
 665 236 665 236 643.5 217.5 c 128,-1,34
 622 199 622 199 573.5 160 c 128,-1,35
 525 121 525 121 495.5 100.5 c 128,-1,36
 466 80 466 80 420 51 c 128,-1,37
 374 22 374 22 340 7.5 c 128,-1,0
 306 -7 306 -7 265.5 -18 c 128,-1,1
195 399 m 1,38,39
 187 390 187 390 134 342 c 0,40,41
 16 237 16 237 16 180.5 c 128,-1,42
 16 124 16 124 74 85.5 c 128,-1,43
 132 47 132 47 199 47 c 128,-1,44
 266 47 266 47 307 69.5 c 128,-1,45
 348 92 348 92 348 127 c 128,-1,46
 348 162 348 162 339 190 c 128,-1,47
 330 218 330 218 310.5 248.5 c 128,-1,48
 291 279 291 279 276.5 298.5 c 128,-1,49
 262 318 262 318 233 352.5 c 128,-1,50
 204 387 204 387 195 399 c 1,38,39
EndSplineSet
EndChar

StartChar: t
Encoding: 116 116 88
Width: 545
GlyphClass: 2
Flags: W
LayerCount: 2
Fore
SplineSet
156 735 m 1,0,1
 142 735 142 735 132.5 735 c 128,-1,2
 123 735 123 735 114 735.5 c 128,-1,3
 105 736 105 736 100 737 c 128,-1,4
 95 738 95 738 88.5 740 c 128,-1,5
 82 742 82 742 78 745 c 128,-1,6
 74 748 74 748 70 752 c 0,7,8
 63 760 63 760 63 773.5 c 128,-1,9
 63 787 63 787 64 791 c 0,10,11
 68 801 68 801 100 805 c 2,12,-1
 184 813 l 1,13,14
 231 969 231 969 250 1011.5 c 128,-1,15
 269 1054 269 1054 286.5 1088 c 128,-1,16
 304 1122 304 1122 320.5 1141 c 128,-1,17
 337 1160 337 1160 359 1182 c 128,-1,18
 381 1204 381 1204 405 1215 c 0,19,20
 462 1241 462 1241 522 1241 c 1,21,-1
 526 1237 l 1,22,23
 526 1233 526 1233 500 1159 c 0,24,25
 414 913 414 913 385 813 c 1,26,-1
 690 827 l 1,27,-1
 668 791 l 1,28,29
 643 745 643 745 369 745 c 0,30,31
 368 745 368 745 338 634 c 0,32,33
 248 303 248 303 248 233 c 0,34,35
 248 162 248 162 264 151.5 c 128,-1,36
 280 141 280 141 297 141 c 0,37,38
 351 141 351 141 678 451 c 1,39,-1
 678 338 l 1,40,41
 644 307 644 307 584 251 c 128,-1,42
 524 195 524 195 489.5 163.5 c 128,-1,43
 455 132 455 132 403.5 90 c 128,-1,44
 352 48 352 48 316 26 c 0,45,46
 224 -29 224 -29 154 -29 c 0,47,48
 35 -29 35 -29 35 137 c 0,49,50
 35 228 35 228 63.5 351.5 c 128,-1,51
 92 475 92 475 112 553.5 c 128,-1,52
 132 632 132 632 156 735 c 1,0,1
EndSplineSet
EndChar

StartChar: u
Encoding: 117 117 89
Width: 993
GlyphClass: 2
Flags: W
LayerCount: 2
Fore
SplineSet
154 -29 m 0,0,1
 37 -29 37 -29 37 139 c 0,2,3
 37 196 37 196 51 250 c 0,4,5
 111 477 111 477 217 782 c 1,6,7
 221 807 221 807 379 807 c 2,8,-1
 414 807 l 1,9,10
 414 805 414 805 373 676 c 0,11,12
 250 289 250 289 250 217 c 128,-1,13
 250 145 250 145 317 145 c 0,14,15
 374 145 374 145 458.5 194 c 128,-1,16
 543 243 543 243 557 272 c 1,17,-1
 666 688 l 2,18,19
 688 773 688 773 726 792 c 0,20,21
 755 807 755 807 819 807 c 2,22,-1
 887 807 l 1,23,24
 760 348 760 348 737 246 c 1,25,26
 729 170 729 170 729 155 c 128,-1,27
 729 140 729 140 733.5 134.5 c 128,-1,28
 738 129 738 129 754 129 c 0,29,30
 805 129 805 129 1114 438 c 1,31,-1
 1114 326 l 1,32,33
 1090 304 1090 304 1031 248.5 c 128,-1,34
 972 193 972 193 941 164.5 c 128,-1,35
 910 136 910 136 857.5 93 c 128,-1,36
 805 50 805 50 770 28 c 0,37,38
 679 -29 679 -29 621 -29 c 0,39,40
 535 -29 535 -29 535 102 c 0,41,42
 535 157 535 157 545 195 c 1,43,44
 314 -29 314 -29 154 -29 c 0,0,1
EndSplineSet
EndChar

StartChar: v
Encoding: 118 118 90
Width: 778
GlyphClass: 2
Flags: W
LayerCount: 2
Fore
SplineSet
627 268 m 1,0,1
 645 234 645 234 647 213 c 1,2,3
 673 213 673 213 710 248 c 128,-1,4
 747 283 747 283 769 305.5 c 128,-1,5
 791 328 791 328 834 372 c 128,-1,6
 877 416 877 416 907 446 c 1,7,-1
 907 334 l 1,8,9
 744 165 744 165 702.5 142 c 128,-1,10
 661 119 661 119 639 119 c 0,11,12
 606 119 606 119 563 211 c 1,13,14
 481 67 481 67 438 32 c 0,15,16
 382 -12 382 -12 335.5 -20.5 c 128,-1,17
 289 -29 289 -29 246 -29 c 0,18,19
 185 -29 185 -29 140 54 c 0,20,21
 55 212 55 212 55 543 c 0,22,23
 55 668 55 668 68 758 c 1,24,25
 74 807 74 807 225 807 c 2,26,-1
 305 807 l 1,27,28
 274 642 274 642 274 489.5 c 128,-1,29
 274 337 274 337 305.5 227 c 128,-1,30
 337 117 337 117 375 117 c 0,31,32
 405 117 405 117 486 254 c 0,33,34
 524 318 524 318 523 318.5 c 128,-1,35
 522 319 522 319 522 370 c 128,-1,36
 522 421 522 421 531.5 502 c 128,-1,37
 541 583 541 583 560 661 c 128,-1,38
 579 739 579 739 612.5 789.5 c 128,-1,39
 646 840 646 840 688 840 c 0,40,41
 739 840 739 840 739 742.5 c 128,-1,42
 739 645 739 645 697 492 c 128,-1,43
 655 339 655 339 627 268 c 1,0,1
EndSplineSet
EndChar

StartChar: w
Encoding: 119 119 91
Width: 1139
GlyphClass: 2
Flags: W
LayerCount: 2
Fore
SplineSet
668 -29 m 0,0,1
 607 -29 607 -29 562.5 0 c 128,-1,2
 518 29 518 29 496 78 c 1,3,4
 382 -29 382 -29 229 -29 c 0,5,6
 142 -29 142 -29 90.5 29.5 c 128,-1,7
 39 88 39 88 39 174 c 0,8,9
 39 324 39 324 174 729 c 0,10,11
 200 807 200 807 332 807 c 2,12,-1
 391 807 l 1,13,14
 386 788 386 788 348 674 c 0,15,16
 254 392 254 392 254 246 c 0,17,18
 254 176 254 176 279.5 138 c 128,-1,19
 305 100 305 100 358 100 c 128,-1,20
 411 100 411 100 477 160 c 1,21,-1
 477 174 l 2,22,23
 477 272 477 272 512 392 c 0,24,25
 580 625 580 625 672 625 c 0,26,27
 723 625 723 625 723 561.5 c 128,-1,28
 723 498 723 498 687 379 c 128,-1,29
 651 260 651 260 651 246 c 0,30,31
 651 176 651 176 677 138 c 128,-1,32
 703 100 703 100 745.5 100 c 128,-1,33
 788 100 788 100 836.5 161 c 128,-1,34
 885 222 885 222 895 297 c 1,35,36
 899 317 899 317 904.5 387.5 c 128,-1,37
 910 458 910 458 918.5 529 c 128,-1,38
 927 600 927 600 943 674 c 0,39,40
 979 840 979 840 1069 840 c 0,41,42
 1091 840 1091 840 1105.5 774.5 c 128,-1,43
 1120 709 1120 709 1120 653 c 0,44,45
 1120 547 1120 547 1050 373 c 1,46,-1
 1026 315 l 1,47,48
 1041 279 1041 279 1065 279 c 128,-1,49
 1089 279 1089 279 1130.5 314.5 c 128,-1,50
 1172 350 1172 350 1262 442 c 1,51,-1
 1262 328 l 1,52,53
 1239 308 1239 308 1203.5 273.5 c 128,-1,54
 1168 239 1168 239 1148 221 c 0,55,56
 1098 174 1098 174 1060.5 174 c 128,-1,57
 1023 174 1023 174 985 229 c 1,58,59
 938 118 938 118 856 44.5 c 128,-1,60
 774 -29 774 -29 668 -29 c 0,0,1
EndSplineSet
EndChar

StartChar: x
Encoding: 120 120 92
Width: 903
GlyphClass: 2
Flags: W
LayerCount: 2
Fore
SplineSet
172 133 m 2,0,-1
 358 356 l 1,1,-1
 209 645 l 2,2,3
 196 670 196 670 180.5 670 c 128,-1,4
 165 670 165 670 97 612.5 c 128,-1,5
 29 555 29 555 -6 516 c 1,6,-1
 -29 571 l 1,7,8
 51 670 51 670 148 754 c 128,-1,9
 245 838 245 838 304 838 c 128,-1,10
 363 838 363 838 387 797 c 0,11,12
 391 789 391 789 409 750 c 0,13,14
 465 631 465 631 510 539 c 1,15,-1
 649 707 l 1,16,17
 749 840 749 840 834 840 c 0,18,19
 862 840 862 840 879.5 821.5 c 128,-1,20
 897 803 897 803 897 780 c 128,-1,21
 897 757 897 757 871 739.5 c 128,-1,22
 845 722 845 722 807.5 698.5 c 128,-1,23
 770 675 770 675 734 628.5 c 128,-1,24
 698 582 698 582 565 428 c 1,25,26
 668 227 668 227 717 176 c 0,27,28
 719 174 719 174 723 174 c 0,29,30
 750 174 750 174 846 262.5 c 128,-1,31
 942 351 942 351 1028 444 c 1,32,-1
 1028 328 l 1,33,34
 982 285 982 285 920.5 224.5 c 128,-1,35
 859 164 859 164 819 125 c 128,-1,36
 779 86 779 86 736 48 c 0,37,38
 649 -29 649 -29 611 -29 c 128,-1,39
 573 -29 573 -29 549 2.5 c 128,-1,40
 525 34 525 34 489 102 c 2,41,-1
 414 248 l 1,42,43
 362 186 362 186 274 78 c 1,44,45
 170 -55 170 -55 90 -55 c 0,46,47
 61 -55 61 -55 44 -37 c 128,-1,48
 27 -19 27 -19 27 3 c 128,-1,49
 27 25 27 25 52.5 43 c 128,-1,50
 78 61 78 61 115.5 85.5 c 128,-1,51
 153 110 153 110 172 133 c 2,0,-1
EndSplineSet
EndChar

StartChar: y
Encoding: 121 121 93
Width: 860
GlyphClass: 2
Flags: W
LayerCount: 2
Fore
SplineSet
506 195 m 1,0,1
 273 -29 273 -29 113 -29 c 0,2,3
 51 -29 51 -29 23.5 19 c 128,-1,4
 -4 67 -4 67 -4 143 c 0,5,6
 -4 270 -4 270 176 782 c 1,7,8
 180 807 180 807 338 807 c 2,9,-1
 373 807 l 1,10,11
 373 805 373 805 332 676 c 0,12,13
 209 289 209 289 209 217 c 128,-1,14
 209 145 209 145 276 145 c 0,15,16
 333 145 333 145 417.5 194 c 128,-1,17
 502 243 502 243 516 272 c 1,18,-1
 625 688 l 2,19,20
 647 773 647 773 685 792 c 0,21,22
 714 807 714 807 778 807 c 2,23,-1
 846 807 l 1,24,25
 823 742 823 742 782.5 593 c 128,-1,26
 742 444 742 444 725 382 c 0,27,28
 688 247 688 247 674 191 c 1,29,-1
 666 164 l 1,30,31
 894 354 894 354 983 440 c 1,32,-1
 983 328 l 1,33,-1
 649 27 l 1,34,-1
 649 23 l 1,35,36
 626 -104 626 -104 576.5 -205 c 128,-1,37
 527 -306 527 -306 465 -366 c 0,38,39
 338 -489 338 -489 205 -489 c 0,40,41
 136 -489 136 -489 76 -445 c 128,-1,42
 16 -401 16 -401 16 -341 c 128,-1,43
 16 -281 16 -281 56.5 -239.5 c 128,-1,44
 97 -198 97 -198 172 -156 c 1,45,-1
 473 35 l 1,46,-1
 506 195 l 1,0,1
461 -88 m 1,47,-1
 276 -205 l 2,48,49
 243 -225 243 -225 223.5 -239.5 c 128,-1,50
 204 -254 204 -254 185 -281 c 128,-1,51
 166 -308 166 -308 166 -338 c 0,52,53
 166 -420 166 -420 240 -420 c 0,54,55
 329 -420 329 -420 384 -329 c 128,-1,56
 439 -238 439 -238 461 -88 c 1,47,-1
EndSplineSet
EndChar

StartChar: z
Encoding: 122 122 94
Width: 737
GlyphClass: 2
Flags: W
LayerCount: 2
Fore
SplineSet
569 729 m 1,0,-1
 688 743 l 1,1,2
 715 743 715 743 715 713 c 0,3,4
 715 702 715 702 713 700 c 2,5,-1
 578 418 l 1,6,7
 554 362 554 362 481 213 c 1,8,9
 509 203 509 203 525 187.5 c 128,-1,10
 541 172 541 172 545 152 c 1,11,12
 626 205 626 205 745.5 325.5 c 128,-1,13
 865 446 865 446 872 453 c 1,14,-1
 913 379 l 1,15,16
 705 167 705 167 608 89 c 1,17,-1
 575 63 l 1,18,19
 555 -187 555 -187 441 -354.5 c 128,-1,20
 327 -522 327 -522 158 -535 c 1,21,22
 44 -535 44 -535 -20 -489.5 c 128,-1,23
 -84 -444 -84 -444 -84 -369 c 0,24,25
 -84 -214 -84 -214 34.5 -110 c 128,-1,26
 153 -6 153 -6 389 70 c 1,27,28
 378 73 378 73 334 82 c 0,29,30
 244 99 244 99 244 111 c 0,31,32
 244 144 244 144 329.5 326 c 128,-1,33
 415 508 415 508 438 561 c 1,34,-1
 377 575 l 1,35,36
 358 556 358 556 262 464.5 c 128,-1,37
 166 373 166 373 115 322 c 1,38,-1
 115 432 l 1,39,-1
 309 637 l 1,40,41
 236 674 236 674 236 770 c 0,42,43
 236 829 236 829 288 884.5 c 128,-1,44
 340 940 340 940 424 940 c 0,45,46
 443 940 443 940 459 928 c 128,-1,47
 475 916 475 916 475 891 c 0,48,49
 475 815 475 815 414 772 c 1,50,51
 456 729 456 729 569 729 c 1,0,-1
451 -4 m 1,52,53
 367 -50 367 -50 296.5 -72 c 128,-1,54
 226 -94 226 -94 190.5 -112.5 c 128,-1,55
 155 -131 155 -131 135 -153 c 0,56,57
 90 -202 90 -202 90 -311 c 0,58,59
 90 -357 90 -357 110 -392.5 c 128,-1,60
 130 -428 130 -428 178 -428 c 128,-1,61
 226 -428 226 -428 290.5 -360.5 c 128,-1,62
 355 -293 355 -293 401.5 -192 c 128,-1,63
 448 -91 448 -91 451 -4 c 1,52,53
EndSplineSet
EndChar

StartChar: braceleft
Encoding: 123 123 95
Width: 813
GlyphClass: 2
Flags: W
LayerCount: 2
Fore
SplineSet
86 319 m 1,0,-1
 88 360 l 2,1,2
 90 403 90 403 104.5 491 c 128,-1,3
 119 579 119 579 120 620 c 128,-1,4
 121 661 121 661 116.5 678 c 128,-1,5
 112 695 112 695 103 700.5 c 128,-1,6
 94 706 94 706 85 706.5 c 128,-1,7
 76 707 76 707 61 707 c 128,-1,8
 46 707 46 707 35 711 c 1,9,-1
 61 887 l 1,10,11
 92 885 92 885 124 885 c 128,-1,12
 156 885 156 885 167.5 892 c 128,-1,13
 179 899 179 899 186.5 916 c 128,-1,14
 194 933 194 933 197.5 948.5 c 128,-1,15
 201 964 201 964 207.5 995 c 128,-1,16
 214 1026 214 1026 232.5 1096.5 c 128,-1,17
 251 1167 251 1167 293 1260.5 c 128,-1,18
 335 1354 335 1354 395 1432 c 0,19,20
 520 1593 520 1593 723 1593 c 0,21,22
 760 1593 760 1593 801 1587 c 1,23,-1
 780 1473 l 1,24,25
 756 1481 756 1481 731 1481 c 0,26,27
 671 1481 671 1481 614 1432.5 c 128,-1,28
 557 1384 557 1384 515 1307 c 0,29,30
 434 1158 434 1158 397 985 c 0,31,32
 371 868 371 868 328 830 c 0,33,34
 289 796 289 796 225 782 c 1,35,36
 278 751 278 751 298.5 718 c 128,-1,37
 319 685 319 685 319 640 c 128,-1,38
 319 595 319 595 305 471 c 128,-1,39
 291 347 291 347 291 269.5 c 128,-1,40
 291 192 291 192 303 125.5 c 128,-1,41
 315 59 315 59 346.5 14 c 128,-1,42
 378 -31 378 -31 418.5 -31 c 128,-1,43
 459 -31 459 -31 481 -20 c 1,44,-1
 469 -115 l 1,45,46
 420 -131 420 -131 369 -131 c 0,47,48
 275 -131 275 -131 210 -67 c 0,49,50
 86 54 86 54 86 319 c 1,0,-1
EndSplineSet
EndChar

StartChar: bar
Encoding: 124 124 96
Width: 739
GlyphClass: 2
Flags: W
LayerCount: 2
Fore
SplineSet
468.5 1417.5 m 128,-1,1
 480 1470 480 1470 491 1491.5 c 128,-1,2
 502 1513 502 1513 528 1515.5 c 128,-1,3
 554 1518 554 1518 599.5 1518 c 128,-1,4
 645 1518 645 1518 645 1513 c 1,5,-1
 268 -43 l 2,6,7
 265 -54 265 -54 261.5 -82 c 128,-1,8
 258 -110 258 -110 254 -126 c 128,-1,9
 250 -142 250 -142 237 -156 c 128,-1,10
 224 -170 224 -170 203 -170 c 2,11,-1
 90 -170 l 1,12,13
 140 69 140 69 298.5 717 c 128,-1,0
 457 1365 457 1365 468.5 1417.5 c 128,-1,1
EndSplineSet
EndChar

StartChar: braceright
Encoding: 125 125 97
Width: 813
GlyphClass: 2
Flags: W
LayerCount: 2
Fore
SplineSet
708.5 971 m 128,-1,1
 694 883 694 883 693 819.5 c 128,-1,2
 692 756 692 756 728 756 c 2,3,-1
 752 756 l 2,4,5
 767 756 767 756 778 752 c 1,6,-1
 752 575 l 1,7,8
 721 578 721 578 689 578 c 128,-1,9
 657 578 657 578 645.5 571 c 128,-1,10
 634 564 634 564 626.5 546.5 c 128,-1,11
 619 529 619 529 615.5 513.5 c 128,-1,12
 612 498 612 498 605.5 467.5 c 128,-1,13
 599 437 599 437 594 416 c 0,14,15
 449 -131 449 -131 90 -131 c 0,16,17
 52 -131 52 -131 12 -125 c 1,18,-1
 33 -10 l 1,19,20
 57 -18 57 -18 82 -18 c 0,21,22
 142 -18 142 -18 199 30.5 c 128,-1,23
 256 79 256 79 298 156 c 1,24,25
 381 313 381 313 416 477 c 0,26,27
 440 593 440 593 485 633 c 0,28,29
 522 665 522 665 588 680 c 1,30,31
 535 711 535 711 514.5 743.5 c 128,-1,32
 494 776 494 776 494 821.5 c 128,-1,33
 494 867 494 867 508 991.5 c 128,-1,34
 522 1116 522 1116 522 1193.5 c 128,-1,35
 522 1271 522 1271 510 1337.5 c 128,-1,36
 498 1404 498 1404 466.5 1448.5 c 128,-1,37
 435 1493 435 1493 394.5 1493 c 128,-1,38
 354 1493 354 1493 332 1483 c 1,39,-1
 344 1577 l 1,40,41
 393 1593 393 1593 444 1593 c 0,42,43
 538 1593 538 1593 603 1529 c 0,44,45
 725 1409 725 1409 725 1143 c 2,46,-1
 725 1102 l 1,47,0
 723 1059 723 1059 708.5 971 c 128,-1,1
EndSplineSet
EndChar

StartChar: asciitilde
Encoding: 126 126 98
Width: 1118
GlyphClass: 2
Flags: W
LayerCount: 2
Fore
SplineSet
246 1188 m 1,0,1
 257 1065 257 1065 328 1065 c 0,2,3
 387 1065 387 1065 481 1094.5 c 128,-1,4
 575 1124 575 1124 672 1153 c 128,-1,5
 769 1182 769 1182 824 1182 c 128,-1,6
 879 1182 879 1182 911.5 1163.5 c 128,-1,7
 944 1145 944 1145 961 1118 c 128,-1,8
 978 1091 978 1091 989.5 1056.5 c 128,-1,9
 1001 1022 1001 1022 1004 995 c 0,10,11
 1012 937 1012 937 1012 920 c 1,12,-1
 887 901 l 1,13,14
 873 1030 873 1030 811 1030 c 0,15,16
 732 1030 732 1030 583 967.5 c 128,-1,17
 434 905 434 905 313 905 c 0,18,19
 228 905 228 905 188 969 c 0,20,21
 153 1024 153 1024 147 1072 c 0,22,23
 137 1150 137 1150 137 1167 c 1,24,-1
 246 1188 l 1,0,1
EndSplineSet
EndChar

StartChar: exclamdown
Encoding: 161 161 99
Width: 608
GlyphClass: 2
Flags: W
LayerCount: 2
Fore
SplineSet
494 1139 m 0,0,1
 517 1149 517 1149 539 1149 c 128,-1,2
 561 1149 561 1149 565 1142 c 128,-1,3
 569 1135 569 1135 569 1115.5 c 128,-1,4
 569 1096 569 1096 567 1083 c 2,5,-1
 416 221 l 1,6,7
 391 41 391 41 360 10 c 0,8,9
 350 0 350 0 338 0 c 2,10,-1
 156 0 l 2,11,12
 123 0 123 0 123 53 c 0,13,14
 123 107 123 107 249 458.5 c 128,-1,15
 375 810 375 810 434.5 974 c 128,-1,16
 494 1138 494 1138 494 1139 c 0,0,1
523 1494.5 m 128,-1,18
 575 1546 575 1546 628 1546 c 0,19,20
 721 1546 721 1546 721 1468 c 0,21,22
 721 1414 721 1414 680 1362.5 c 128,-1,23
 639 1311 639 1311 582.5 1311 c 128,-1,24
 526 1311 526 1311 498.5 1333 c 128,-1,25
 471 1355 471 1355 471 1399 c 128,-1,17
 471 1443 471 1443 523 1494.5 c 128,-1,18
EndSplineSet
EndChar

StartChar: cent
Encoding: 162 162 100
Width: 778
GlyphClass: 2
Flags: W
LayerCount: 2
Fore
SplineSet
543 963 m 1,0,-1
 561 965 l 1,1,2
 703 965 703 965 746 896 c 0,3,4
 760 873 760 873 760 835.5 c 128,-1,5
 760 798 760 798 723 769.5 c 128,-1,6
 686 741 686 741 629 741 c 0,7,8
 600 741 600 741 577 790 c 0,9,10
 552 844 552 844 518 860 c 1,11,-1
 381 266 l 1,12,-1
 397 266 l 2,13,14
 512 266 512 266 698 410 c 1,15,-1
 739 330 l 1,16,17
 512 131 512 131 342 102 c 1,18,-1
 236 -360 l 2,19,20
 232 -376 232 -376 228 -407 c 128,-1,21
 224 -438 224 -438 220.5 -452.5 c 128,-1,22
 217 -467 217 -467 204.5 -480.5 c 128,-1,23
 192 -494 192 -494 170 -494 c 0,24,25
 141 -494 141 -494 141 -465 c 0,26,27
 141 -444 141 -444 152 -389 c 1,28,-1
 160 -336 l 1,29,30
 191 -179 191 -179 256 96 c 1,31,32
 131 103 131 103 69.5 174 c 128,-1,33
 8 245 8 245 8 343.5 c 128,-1,34
 8 442 8 442 41.5 537.5 c 128,-1,35
 75 633 75 633 133.5 717 c 128,-1,36
 192 801 192 801 278.5 865.5 c 128,-1,37
 365 930 365 930 463 952 c 1,38,-1
 541 1270 l 2,39,40
 580 1430 580 1430 589 1448 c 128,-1,41
 598 1466 598 1466 610 1466 c 128,-1,42
 622 1466 622 1466 628 1464 c 0,43,44
 651 1457 651 1457 651 1430 c 1,45,-1
 543 963 l 1,0,-1
324 383 m 1,46,-1
 440 860 l 1,47,48
 381 841 381 841 331 776 c 0,49,50
 227 639 227 639 227 463 c 0,51,52
 227 340 227 340 301 291 c 1,53,54
 309 334 309 334 324 383 c 1,46,-1
EndSplineSet
EndChar

StartChar: sterling
Encoding: 163 163 101
Width: 1368
GlyphClass: 2
Flags: W
LayerCount: 2
Fore
SplineSet
262 117 m 1,0,1
 37 -29 37 -29 -100 -29 c 0,2,3
 -122 -29 -122 -29 -151 -16 c 0,4,5
 -209 11 -209 11 -209 72 c 0,6,7
 -209 108 -209 108 -166 136 c 1,8,9
 -124 162 -124 162 -55 190 c 1,10,-1
 207 309 l 1,11,-1
 238 420 l 1,12,-1
 94 414 l 1,13,14
 37 414 37 414 37 455 c 0,15,16
 37 526 37 526 86 541 c 1,17,18
 116 547 116 547 276 557 c 1,19,-1
 301 647 l 1,20,-1
 135 639 l 1,21,22
 78 639 78 639 78 680 c 0,23,24
 78 752 78 752 127 766 c 1,25,26
 169 774 169 774 340 784 c 1,27,-1
 438 1137 l 2,28,29
 449 1174 449 1174 461.5 1190.5 c 128,-1,30
 474 1207 474 1207 480 1215.5 c 128,-1,31
 486 1224 486 1224 500.5 1236 c 128,-1,32
 515 1248 515 1248 520.5 1252.5 c 128,-1,33
 526 1257 526 1257 545.5 1271 c 128,-1,34
 565 1285 565 1285 594 1306.5 c 128,-1,35
 623 1328 623 1328 688.5 1371.5 c 128,-1,36
 754 1415 754 1415 851 1466.5 c 128,-1,37
 948 1518 948 1518 991 1518 c 0,38,39
 1120 1518 1120 1518 1224.5 1413 c 128,-1,40
 1329 1308 1329 1308 1329 1178 c 0,41,42
 1329 1120 1329 1120 1284 1097.5 c 128,-1,43
 1239 1075 1239 1075 1062 978 c 1,44,45
 814 840 814 840 794 840 c 0,46,47
 756 840 756 840 756 881 c 0,48,49
 756 929 756 929 932 1006 c 0,50,51
 997 1034 997 1034 1053 1073 c 128,-1,52
 1109 1112 1109 1112 1110 1147 c 1,53,-1
 1104 1175 l 1,54,55
 1074 1330 1074 1330 1009 1389 c 0,56,57
 978 1417 978 1417 940 1417 c 1,58,59
 892 1411 892 1411 823 1342 c 128,-1,60
 754 1273 754 1273 702 1192.5 c 128,-1,61
 650 1112 650 1112 641 1067 c 0,62,63
 619 961 619 961 580 793 c 1,64,-1
 612 793 l 2,65,66
 821 793 821 793 821 752 c 0,67,68
 821 722 821 722 789.5 688.5 c 128,-1,69
 758 655 758 655 721 655 c 2,70,-1
 584 657 l 1,71,-1
 543 657 l 1,72,73
 530 609 530 609 516 565 c 1,74,75
 549 567 549 567 612 567 c 0,76,77
 821 567 821 567 821 526 c 0,78,79
 821 496 821 496 790 463 c 128,-1,80
 759 430 759 430 721 430 c 2,81,-1
 584 432 l 2,82,83
 526 432 526 432 471 430 c 1,84,85
 464 408 464 408 408 266 c 1,86,87
 421 262 421 262 447 253 c 128,-1,88
 473 244 473 244 485 241 c 128,-1,89
 497 238 497 238 598 205 c 0,90,91
 861 119 861 119 907 119 c 128,-1,92
 953 119 953 119 986 135 c 0,93,94
 1098 188 1098 188 1192 268 c 1,95,-1
 1192 168 l 1,96,97
 1150 144 1150 144 1049 74.5 c 128,-1,98
 948 5 948 5 878.5 -26 c 128,-1,99
 809 -57 809 -57 733 -57 c 0,100,101
 728 -57 728 -57 720 -53 c 128,-1,102
 712 -49 712 -49 703.5 -45 c 128,-1,103
 695 -41 695 -41 678 -33.5 c 128,-1,104
 661 -26 661 -26 639 -17 c 128,-1,105
 617 -8 617 -8 581.5 5.5 c 128,-1,106
 546 19 546 19 503 34 c 0,107,108
 400 72 400 72 262 117 c 1,0,1
EndSplineSet
EndChar

StartChar: currency
Encoding: 164 164 102
Width: 1176
GlyphClass: 2
Flags: W
LayerCount: 2
Fore
SplineSet
152 819 m 0,0,1
 152 1004 152 1004 270 1130 c 1,2,-1
 174 1257 l 1,3,4
 154 1270 154 1270 134.5 1303.5 c 128,-1,5
 115 1337 115 1337 115 1359 c 128,-1,6
 115 1381 115 1381 132.5 1406.5 c 128,-1,7
 150 1432 150 1432 178 1432 c 128,-1,8
 206 1432 206 1432 253 1382 c 128,-1,9
 300 1332 300 1332 387 1217 c 1,10,11
 486 1264 486 1264 590.5 1264 c 128,-1,12
 695 1264 695 1264 784 1217 c 1,13,14
 800 1235 800 1235 852 1302.5 c 128,-1,15
 904 1370 904 1370 909 1378 c 1,16,-1
 907 1376 l 1,17,18
 907 1379 907 1379 917 1392 c 0,19,20
 949 1432 949 1432 994 1432 c 128,-1,21
 1039 1432 1039 1432 1090 1384 c 1,22,23
 1085 1362 1085 1362 1077 1354 c 2,24,-1
 885 1126 l 1,25,26
 956 1031 956 1031 956 901 c 0,27,28
 956 706 956 706 829 584 c 1,29,30
 892 501 892 501 939 445 c 0,31,32
 1024 344 1024 344 1024 324 c 128,-1,33
 1024 304 1024 304 1000.5 287 c 128,-1,34
 977 270 977 270 937 270 c 128,-1,35
 897 270 897 270 864 313 c 2,36,-1
 719 504 l 1,37,38
 622 457 622 457 515.5 457 c 128,-1,39
 409 457 409 457 326 502 c 1,40,-1
 250 412 l 1,41,42
 176 322 176 322 151.5 308.5 c 128,-1,43
 127 295 127 295 110.5 295 c 128,-1,44
 94 295 94 295 68.5 310 c 128,-1,45
 43 325 43 325 43 348.5 c 128,-1,46
 43 372 43 372 50.5 386.5 c 128,-1,47
 58 401 58 401 77 420 c 128,-1,48
 96 439 96 439 118.5 472.5 c 128,-1,49
 141 506 141 506 215 598 c 1,50,51
 152 687 152 687 152 819 c 0,0,1
738 1050.5 m 128,-1,53
 688 1112 688 1112 577.5 1112 c 128,-1,54
 467 1112 467 1112 397.5 1023.5 c 128,-1,55
 328 935 328 935 328 834 c 128,-1,56
 328 733 328 733 375.5 670.5 c 128,-1,57
 423 608 423 608 532 608 c 128,-1,58
 641 608 641 608 714.5 696 c 128,-1,59
 788 784 788 784 788 886.5 c 128,-1,52
 788 989 788 989 738 1050.5 c 128,-1,53
EndSplineSet
EndChar

StartChar: yen
Encoding: 165 165 103
Width: 1546
GlyphClass: 2
Flags: W
LayerCount: 2
Fore
SplineSet
979 -20 m 2,0,-1
 842 -18 l 1,1,-1
 743 -18 l 1,2,-1
 702 -215 l 1,3,4
 670 -358 670 -358 649 -396.5 c 128,-1,5
 628 -435 628 -435 608 -436 c 1,6,-1
 430 -436 l 2,7,8
 403 -436 403 -436 403 -391 c 128,-1,9
 403 -346 403 -346 430 -225 c 1,10,11
 435 -181 435 -181 463 -27 c 1,12,-1
 250 -37 l 1,13,14
 193 -37 193 -37 193 4 c 0,15,16
 193 76 193 76 242 90 c 1,17,18
 280 96 280 96 492 106 c 1,19,-1
 510 197 l 1,20,-1
 291 188 l 1,21,22
 233 188 233 188 233 229 c 0,23,24
 233 301 233 301 283 315 c 1,25,26
 308 320 308 320 479 330 c 1,27,28
 471 364 471 364 448.5 448 c 128,-1,29
 426 532 426 532 414 583 c 0,30,31
 376 735 376 735 362 840 c 1,32,33
 348 908 348 908 323 1057.5 c 128,-1,34
 298 1207 298 1207 287 1251 c 1,35,-1
 256 1233 l 2,36,37
 237 1221 237 1221 188 1192 c 1,38,-1
 188 1303 l 1,39,40
 286 1376 286 1376 351.5 1429 c 128,-1,41
 417 1482 417 1482 442 1500 c 0,42,43
 481 1530 481 1530 506.5 1530 c 128,-1,44
 532 1530 532 1530 532 1509 c 1,45,-1
 538 1472 l 1,46,47
 599 1057 599 1057 645 848 c 1,48,49
 681 608 681 608 724 442 c 1,50,-1
 739 387 l 1,51,52
 1008 624 1008 624 1161 826 c 0,53,54
 1223 907 1223 907 1245 963 c 1,55,56
 1174 974 1174 974 1080 1048 c 0,57,58
 1032 1085 1032 1085 999.5 1148 c 128,-1,59
 967 1211 967 1211 967 1271.5 c 128,-1,60
 967 1332 967 1332 979 1377.5 c 128,-1,61
 991 1423 991 1423 1015 1465 c 0,62,63
 1069 1559 1069 1559 1182 1559 c 0,64,65
 1384 1559 1384 1559 1384 1063 c 1,66,67
 1430 1070 1430 1070 1506.5 1109.5 c 128,-1,68
 1583 1149 1583 1149 1640 1200 c 1,69,-1
 1640 1085 l 1,70,71
 1502 982 1502 982 1372 958 c 1,72,73
 1320 743 1320 743 897 342 c 1,74,-1
 911 342 l 2,75,76
 1120 342 1120 342 1120 301 c 0,77,78
 1120 271 1120 271 1089 238 c 128,-1,79
 1058 205 1058 205 1020 205 c 2,80,-1
 883 207 l 1,81,-1
 793 207 l 1,82,-1
 772 115 l 1,83,-1
 870 117 l 1,84,85
 1079 117 1079 117 1079 76 c 0,86,87
 1079 46 1079 46 1048 13 c 128,-1,88
 1017 -20 1017 -20 979 -20 c 2,0,-1
1255 1069 m 1,89,-1
 1257 1108 l 1,90,91
 1257 1208 1257 1208 1226.5 1294 c 128,-1,92
 1196 1380 1196 1380 1147 1380 c 0,93,94
 1092 1380 1092 1380 1092 1297 c 128,-1,95
 1092 1214 1092 1214 1139.5 1148.5 c 128,-1,96
 1187 1083 1187 1083 1255 1069 c 1,89,-1
EndSplineSet
EndChar

StartChar: brokenbar
Encoding: 166 166 104
Width: 739
GlyphClass: 2
Flags: W
LayerCount: 2
Fore
SplineSet
96 -145 m 1,0,-1
 262 571 l 2,1,2
 268 600 268 600 304.5 600 c 128,-1,3
 341 600 341 600 377.5 589 c 128,-1,4
 414 578 414 578 416 571 c 1,5,-1
 268 -43 l 2,6,7
 245 -137 245 -137 230 -153.5 c 128,-1,8
 215 -170 215 -170 203 -170 c 0,9,10
 96 -170 96 -170 96 -145 c 1,0,-1
645 1513 m 1,11,-1
 492 881 l 2,12,13
 487 858 487 858 467 858 c 0,14,15
 362 858 362 858 350 866 c 128,-1,16
 338 874 338 874 338 881 c 1,17,-1
 459 1374 l 2,18,19
 463 1389 463 1389 468 1412 c 2,20,-1
 475 1443 l 2,21,22
 488 1501 488 1501 510 1509 c 0,23,24
 534 1518 534 1518 589.5 1518 c 128,-1,25
 645 1518 645 1518 645 1513 c 1,11,-1
EndSplineSet
EndChar

StartChar: section
Encoding: 167 167 105
Width: 1069
GlyphClass: 2
Flags: W
LayerCount: 2
Fore
SplineSet
768 461 m 1,0,1
 838 387 838 387 838 298.5 c 128,-1,2
 838 210 838 210 791 141.5 c 128,-1,3
 744 73 744 73 671 31 c 0,4,5
 518 -57 518 -57 356 -57 c 0,6,7
 207 -57 207 -57 124 34 c 0,8,9
 80 83 80 83 80 144.5 c 128,-1,10
 80 206 80 206 121.5 240 c 128,-1,11
 163 274 163 274 223 276 c 1,12,-1
 260 279 l 1,13,14
 256 233 256 233 256 201 c 128,-1,15
 256 169 256 169 256.5 157 c 128,-1,16
 257 145 257 145 259.5 122.5 c 128,-1,17
 262 100 262 100 268 89.5 c 128,-1,18
 274 79 274 79 286 63.5 c 128,-1,19
 298 48 298 48 315.5 41 c 128,-1,20
 333 34 333 34 360 28.5 c 128,-1,21
 387 23 387 23 422 23 c 128,-1,22
 457 23 457 23 499 38 c 128,-1,23
 541 53 541 53 579.5 79.5 c 128,-1,24
 618 106 618 106 644 148 c 128,-1,25
 670 190 670 190 670 243.5 c 128,-1,26
 670 297 670 297 621.5 352 c 128,-1,27
 573 407 573 407 504 449.5 c 128,-1,28
 435 492 435 492 366 532 c 1,29,30
 199 626 199 626 199 700 c 0,31,32
 199 803 199 803 253.5 886 c 128,-1,33
 308 969 308 969 401 1026 c 1,34,35
 301 1109 301 1109 301 1185 c 128,-1,36
 301 1261 301 1261 336.5 1324 c 128,-1,37
 372 1387 372 1387 430 1430.5 c 128,-1,38
 488 1474 488 1474 560 1506 c 0,39,40
 702 1567 702 1567 850 1567 c 0,41,42
 990 1567 990 1567 1076 1488 c 0,43,44
 1145 1425 1145 1425 1145 1317 c 0,45,46
 1145 1299 1145 1299 975 1200 c 128,-1,47
 805 1101 805 1101 760 1085 c 1,48,-1
 760 1169 l 1,49,50
 768 1174 768 1174 838 1207 c 0,51,52
 989 1279 989 1279 989 1315 c 0,53,54
 989 1485 989 1485 809 1485 c 0,55,56
 645 1485 645 1485 540 1380 c 0,57,58
 487 1327 487 1327 487 1274.5 c 128,-1,59
 487 1222 487 1222 513 1187.5 c 128,-1,60
 539 1153 539 1153 580 1125 c 128,-1,61
 621 1097 621 1097 671 1069 c 128,-1,62
 721 1041 721 1041 771.5 1011 c 128,-1,63
 822 981 822 981 863 949 c 0,64,65
 956 876 956 876 956 784 c 0,66,67
 956 586 956 586 768 461 c 1,0,1
614 880 m 0,68,69
 591 896 591 896 545.5 925.5 c 128,-1,70
 500 955 500 955 479 969 c 1,71,72
 385 892 385 892 385 788 c 0,73,74
 385 730 385 730 456 676 c 0,75,76
 499 644 499 644 579.5 596 c 128,-1,77
 660 548 660 548 692 526 c 1,78,79
 768 599 768 599 768 687 c 128,-1,80
 768 775 768 775 614 880 c 0,68,69
EndSplineSet
EndChar

StartChar: dieresis
Encoding: 168 168 106
Width: 1706
GlyphClass: 2
Flags: W
LayerCount: 2
Fore
SplineSet
569 1036 m 128,-1,1
 516 984 516 984 464 984 c 0,2,3
 372 984 372 984 372 1062 c 0,4,5
 372 1117 372 1117 412.5 1168.5 c 128,-1,6
 453 1220 453 1220 509.5 1220 c 128,-1,7
 566 1220 566 1220 594 1197.5 c 128,-1,8
 622 1175 622 1175 622 1131.5 c 128,-1,0
 622 1088 622 1088 569 1036 c 128,-1,1
1052 1035.5 m 128,-1,10
 1000 984 1000 984 946 984 c 0,11,12
 854 984 854 984 854 1062 c 0,13,14
 854 1117 854 1117 895 1168.5 c 128,-1,15
 936 1220 936 1220 992.5 1220 c 128,-1,16
 1049 1220 1049 1220 1076.5 1198 c 128,-1,17
 1104 1176 1104 1176 1104 1131.5 c 128,-1,9
 1104 1087 1104 1087 1052 1035.5 c 128,-1,10
EndSplineSet
EndChar

StartChar: copyright
Encoding: 169 169 107
Width: 1819
GlyphClass: 2
Flags: W
LayerCount: 2
Fore
SplineSet
909 831 m 0,0,1
 881 831 881 831 881 859.5 c 128,-1,2
 881 888 881 888 916 912 c 128,-1,3
 951 936 951 936 992 954 c 0,4,5
 1104 1001 1104 1001 1104 1036 c 0,6,7
 1104 1076 1104 1076 1073.5 1136 c 128,-1,8
 1043 1196 1043 1196 1006 1196 c 0,9,10
 924 1196 924 1196 850 1152 c 128,-1,11
 776 1108 776 1108 726 1039 c 0,12,13
 618 890 618 890 618 727 c 0,14,15
 618 592 618 592 680 498 c 0,16,17
 745 399 745 399 885 399 c 0,18,19
 1090 399 1090 399 1313 616 c 1,20,-1
 1313 522 l 1,21,22
 1045 266 1045 266 811 266 c 0,23,24
 702 266 702 266 622 322 c 0,25,26
 467 432 467 432 467 664 c 0,27,28
 467 823 467 823 536 961.5 c 128,-1,29
 605 1100 605 1100 734 1186 c 128,-1,30
 863 1272 863 1272 1024 1272 c 0,31,32
 1115 1272 1115 1272 1186 1207.5 c 128,-1,33
 1257 1143 1257 1143 1257 1053 c 0,34,35
 1257 1013 1257 1013 1227.5 993 c 128,-1,36
 1198 973 1198 973 1058.5 902 c 128,-1,37
 919 831 919 831 909 831 c 0,0,1
1585 758 m 1,38,39
 1579 976 1579 976 1472 1144 c 1,40,41
 1360 1322 1360 1322 1171 1389 c 0,42,43
 1070 1425 1070 1425 945 1425 c 128,-1,44
 820 1425 820 1425 689.5 1375.5 c 128,-1,45
 559 1326 559 1326 454.5 1238.5 c 128,-1,46
 350 1151 350 1151 285.5 1017.5 c 128,-1,47
 221 884 221 884 221 736.5 c 128,-1,48
 221 589 221 589 259 471.5 c 128,-1,49
 297 354 297 354 360 275 c 128,-1,50
 423 196 423 196 506 142 c 0,51,52
 667 37 667 37 862 37 c 0,53,54
 1002 37 1002 37 1132.5 88.5 c 128,-1,55
 1263 140 1263 140 1363.5 231.5 c 128,-1,56
 1464 323 1464 323 1524.5 460.5 c 128,-1,57
 1585 598 1585 598 1585 758 c 1,38,39
665.5 1470.5 m 128,-1,59
 804 1518 804 1518 953.5 1518 c 128,-1,60
 1103 1518 1103 1518 1225 1475.5 c 128,-1,61
 1347 1433 1347 1433 1434.5 1359.5 c 128,-1,62
 1522 1286 1522 1286 1584 1188 c 0,63,64
 1708 994 1708 994 1708 752 c 0,65,66
 1708 495 1708 495 1574 294 c 0,67,68
 1425 72 1425 72 1164 -12 c 0,69,70
 1021 -57 1021 -57 883.5 -57 c 128,-1,71
 746 -57 746 -57 643 -30 c 128,-1,72
 540 -3 540 -3 443 57 c 128,-1,73
 346 117 346 117 272.5 204.5 c 128,-1,74
 199 292 199 292 155 422.5 c 128,-1,75
 111 553 111 553 111 689.5 c 128,-1,76
 111 826 111 826 147 940.5 c 128,-1,77
 183 1055 183 1055 255.5 1159 c 128,-1,78
 328 1263 328 1263 427.5 1343 c 128,-1,58
 527 1423 527 1423 665.5 1470.5 c 128,-1,59
EndSplineSet
EndChar

StartChar: ordfeminine
Encoding: 170 170 108
Width: 885
GlyphClass: 2
Flags: W
LayerCount: 2
Fore
SplineSet
615 1138.5 m 128,-1,1
 596 1043 596 1043 596 1006 c 128,-1,2
 596 969 596 969 621 969 c 0,3,4
 671 969 671 969 850 1159 c 1,5,-1
 850 1075 l 1,6,7
 781 1001 781 1001 661.5 903 c 128,-1,8
 542 805 542 805 492 805 c 0,9,10
 434 805 434 805 434 905 c 0,11,12
 434 920 434 920 440 977 c 1,13,14
 388 907 388 907 314.5 856 c 128,-1,15
 241 805 241 805 168 805 c 0,16,17
 79 805 79 805 58 933 c 0,18,19
 53 964 53 964 53 1022 c 128,-1,20
 53 1080 53 1080 93.5 1164 c 128,-1,21
 134 1248 134 1248 201 1313.5 c 128,-1,22
 268 1379 268 1379 361.5 1420.5 c 128,-1,23
 455 1462 455 1462 529 1462 c 128,-1,24
 603 1462 603 1462 680 1438 c 0,25,26
 680 1437 680 1437 657 1335.5 c 128,-1,0
 634 1234 634 1234 615 1138.5 c 128,-1,1
213 1040 m 0,27,28
 213 926 213 926 289 926 c 0,29,30
 320 926 320 926 367 960 c 128,-1,31
 414 994 414 994 449 1032 c 1,32,-1
 539 1405 l 1,33,34
 457 1405 457 1405 379.5 1346.5 c 128,-1,35
 302 1288 302 1288 257.5 1203.5 c 128,-1,36
 213 1119 213 1119 213 1040 c 0,27,28
EndSplineSet
EndChar

StartChar: guillemotleft
Encoding: 171 171 109
Width: 1122
GlyphClass: 2
Flags: W
LayerCount: 2
Fore
SplineSet
367 438 m 1,0,-1
 459 313 l 1,1,2
 586 157 586 157 586 96 c 0,3,4
 586 72 586 72 565 53.5 c 128,-1,5
 544 35 544 35 501 35 c 128,-1,6
 458 35 458 35 387 123 c 0,7,8
 55 536 55 536 55 616 c 0,9,10
 55 652 55 652 102 703 c 0,11,12
 114 716 114 716 139 743 c 128,-1,13
 164 770 164 770 182 791 c 2,14,-1
 338 965 l 2,15,16
 351 980 351 980 384.5 1023 c 128,-1,17
 418 1066 418 1066 441 1092 c 128,-1,18
 464 1118 464 1118 502.5 1141.5 c 128,-1,19
 541 1165 541 1165 580 1165 c 0,20,21
 635 1165 635 1165 635 1112 c 0,22,23
 635 1093 635 1093 600 1060 c 0,24,25
 445 917 445 917 381 829 c 1,26,-1
 227 649 l 1,27,-1
 367 438 l 1,0,-1
621 649 m 1,28,-1
 831 354 l 1,29,30
 958 198 958 198 958 137 c 0,31,32
 958 113 958 113 937.5 94.5 c 128,-1,33
 917 76 917 76 874 76 c 128,-1,34
 831 76 831 76 760 164 c 0,35,36
 449 543 449 543 449 616 c 0,37,38
 449 652 449 652 496 703 c 0,39,40
 546 757 546 757 575 791 c 1,41,-1
 731 965 l 2,42,43
 745 980 745 980 778 1022.5 c 128,-1,44
 811 1065 811 1065 834.5 1091.5 c 128,-1,45
 858 1118 858 1118 896 1141.5 c 128,-1,46
 934 1165 934 1165 973 1165 c 0,47,48
 1028 1165 1028 1165 1028 1112 c 0,49,50
 1028 1093 1028 1093 993 1060 c 0,51,52
 838 917 838 917 774 829 c 1,53,-1
 621 649 l 1,28,-1
EndSplineSet
EndChar

StartChar: uni00AD
Encoding: 173 173 110
Width: 1038
GlyphClass: 2
Flags: W
LayerCount: 2
Fore
SplineSet
754 979 m 2,0,-1
 616 981 l 1,1,2
 526 981 526 981 270 963 c 1,3,4
 213 963 213 963 213 1004 c 0,5,6
 213 1074 213 1074 262 1090 c 1,7,8
 288 1097 288 1097 408.5 1106.5 c 128,-1,9
 529 1116 529 1116 645 1116 c 0,10,11
 854 1116 854 1116 854 1075 c 0,12,13
 854 1045 854 1045 823 1012 c 128,-1,14
 792 979 792 979 754 979 c 2,0,-1
EndSplineSet
EndChar

StartChar: registered
Encoding: 174 174 111
Width: 1819
GlyphClass: 2
Flags: W
LayerCount: 2
Fore
SplineSet
553 1008 m 0,0,1
 553 948 553 948 653 909 c 1,2,3
 653 841 653 841 635 795 c 1,4,5
 553 819 553 819 495.5 871 c 128,-1,6
 438 923 438 923 438 991.5 c 128,-1,7
 438 1060 438 1060 476.5 1110 c 128,-1,8
 515 1160 515 1160 573 1190.5 c 128,-1,9
 631 1221 631 1221 702 1242 c 0,10,11
 832 1280 832 1280 922 1280 c 128,-1,12
 1012 1280 1012 1280 1079.5 1265 c 128,-1,13
 1147 1250 1147 1250 1211 1220.5 c 128,-1,14
 1275 1191 1275 1191 1316.5 1137.5 c 128,-1,15
 1358 1084 1358 1084 1358 1024 c 128,-1,16
 1358 964 1358 964 1336 920.5 c 128,-1,17
 1314 877 1314 877 1283 849.5 c 128,-1,18
 1252 822 1252 822 1203 798 c 0,19,20
 1137 767 1137 767 1024 737 c 1,21,22
 1090 680 1090 680 1156 527 c 0,23,24
 1186 458 1186 458 1200 433 c 128,-1,25
 1214 408 1214 408 1221 408 c 0,26,27
 1244 408 1244 408 1298.5 457.5 c 128,-1,28
 1353 507 1353 507 1382 534.5 c 128,-1,29
 1411 562 1411 562 1442 593 c 128,-1,30
 1473 624 1473 624 1479 629 c 1,31,-1
 1479 545 l 1,32,33
 1274 297 1274 297 1159 297 c 0,34,35
 1104 297 1104 297 1056.5 345 c 128,-1,36
 1009 393 1009 393 981.5 452 c 128,-1,37
 954 511 954 511 920.5 586.5 c 128,-1,38
 887 662 887 662 866 692 c 1,39,40
 820 526 820 526 794 479.5 c 128,-1,41
 768 433 768 433 742.5 398.5 c 128,-1,42
 717 364 717 364 688 344 c 0,43,44
 620 297 620 297 536 297 c 128,-1,45
 452 297 452 297 388 342 c 128,-1,46
 324 387 324 387 324 467 c 0,47,48
 324 528 324 528 422 544 c 0,49,50
 444 547 444 547 465 547 c 1,51,-1
 485 545 l 1,52,53
 479 494 479 494 479 485 c 0,54,55
 479 381 479 381 549 381 c 0,56,57
 665 381 665 381 762 961 c 0,58,59
 764 976 764 976 767 1000.5 c 128,-1,60
 770 1025 770 1025 772 1036 c 128,-1,61
 774 1047 774 1047 778.5 1063.5 c 128,-1,62
 783 1080 783 1080 790.5 1087 c 128,-1,63
 798 1094 798 1094 811 1102 c 0,64,65
 834 1116 834 1116 889 1116 c 2,66,-1
 938 1116 l 1,67,68
 923 989 923 989 881 772 c 1,69,70
 946 773 946 773 1013.5 801 c 128,-1,71
 1081 829 1081 829 1130.5 884.5 c 128,-1,72
 1180 940 1180 940 1180 1002 c 128,-1,73
 1180 1064 1180 1064 1140 1107 c 0,74,75
 1063 1188 1063 1188 936 1188 c 0,76,77
 838 1188 838 1188 740 1160 c 0,78,79
 553 1108 553 1108 553 1008 c 0,0,1
1585 758 m 1,80,81
 1579 976 1579 976 1472 1144 c 1,82,83
 1360 1322 1360 1322 1171 1389 c 0,84,85
 1070 1425 1070 1425 945 1425 c 128,-1,86
 820 1425 820 1425 689.5 1375.5 c 128,-1,87
 559 1326 559 1326 454.5 1238.5 c 128,-1,88
 350 1151 350 1151 285.5 1017.5 c 128,-1,89
 221 884 221 884 221 736.5 c 128,-1,90
 221 589 221 589 259 471.5 c 128,-1,91
 297 354 297 354 360 275 c 128,-1,92
 423 196 423 196 506 142 c 0,93,94
 667 37 667 37 862 37 c 0,95,96
 1002 37 1002 37 1132.5 88.5 c 128,-1,97
 1263 140 1263 140 1363.5 231.5 c 128,-1,98
 1464 323 1464 323 1524.5 460.5 c 128,-1,99
 1585 598 1585 598 1585 758 c 1,80,81
665.5 1470.5 m 128,-1,101
 804 1518 804 1518 953.5 1518 c 128,-1,102
 1103 1518 1103 1518 1225 1475.5 c 128,-1,103
 1347 1433 1347 1433 1434.5 1359.5 c 128,-1,104
 1522 1286 1522 1286 1584 1188 c 0,105,106
 1708 994 1708 994 1708 752 c 0,107,108
 1708 495 1708 495 1574 294 c 0,109,110
 1425 72 1425 72 1164 -12 c 0,111,112
 1021 -57 1021 -57 883.5 -57 c 128,-1,113
 746 -57 746 -57 643 -30 c 128,-1,114
 540 -3 540 -3 443 57 c 128,-1,115
 346 117 346 117 272.5 204.5 c 128,-1,116
 199 292 199 292 155 422.5 c 128,-1,117
 111 553 111 553 111 689.5 c 128,-1,118
 111 826 111 826 147 940.5 c 128,-1,119
 183 1055 183 1055 255.5 1159 c 128,-1,120
 328 1263 328 1263 427.5 1343 c 128,-1,100
 527 1423 527 1423 665.5 1470.5 c 128,-1,101
EndSplineSet
EndChar

StartChar: macron
Encoding: 175 175 112
Width: 1038
GlyphClass: 2
Flags: W
LayerCount: 2
Fore
SplineSet
754 979 m 2,0,-1
 616 981 l 1,1,2
 526 981 526 981 270 963 c 1,3,4
 213 963 213 963 213 1004 c 0,5,6
 213 1074 213 1074 262 1090 c 1,7,8
 288 1097 288 1097 408.5 1106.5 c 128,-1,9
 529 1116 529 1116 645 1116 c 0,10,11
 854 1116 854 1116 854 1075 c 0,12,13
 854 1045 854 1045 823 1012 c 128,-1,14
 792 979 792 979 754 979 c 2,0,-1
EndSplineSet
EndChar

StartChar: degree
Encoding: 176 176 113
Width: 682
GlyphClass: 2
Flags: W
LayerCount: 2
Fore
SplineSet
470.5 1388.5 m 128,-1,1
 435 1432 435 1432 357.5 1432 c 128,-1,2
 280 1432 280 1432 231 1369.5 c 128,-1,3
 182 1307 182 1307 182 1237 c 128,-1,4
 182 1167 182 1167 215.5 1123 c 128,-1,5
 249 1079 249 1079 325.5 1079 c 128,-1,6
 402 1079 402 1079 454 1140.5 c 128,-1,7
 506 1202 506 1202 506 1273.5 c 128,-1,0
 506 1345 506 1345 470.5 1388.5 c 128,-1,1
556.5 1464 m 128,-1,9
 623 1390 623 1390 623 1267 c 128,-1,10
 623 1144 623 1144 530.5 1058.5 c 128,-1,11
 438 973 438 973 324.5 973 c 128,-1,12
 211 973 211 973 135 1038.5 c 128,-1,13
 59 1104 59 1104 59 1227 c 0,14,15
 59 1401 59 1401 198 1491 c 0,16,17
 271 1538 271 1538 380.5 1538 c 128,-1,8
 490 1538 490 1538 556.5 1464 c 128,-1,9
EndSplineSet
EndChar

StartChar: plusminus
Encoding: 177 177 114
Width: 1120
GlyphClass: 2
Flags: W
LayerCount: 2
Fore
SplineSet
799 416 m 2,0,-1
 662 418 l 1,1,-1
 584 418 l 1,2,-1
 530 203 l 2,3,4
 526 184 526 184 502 169 c 128,-1,5
 478 154 478 154 439.5 154 c 128,-1,6
 401 154 401 154 401 186 c 0,7,8
 401 204 401 204 406 211 c 1,9,-1
 453 412 l 1,10,-1
 209 399 l 1,11,12
 160 399 160 399 160 426 c 128,-1,13
 160 453 160 453 168 472.5 c 128,-1,14
 176 492 176 492 188 502 c 0,15,16
 211 522 211 522 229 526 c 1,17,18
 308 539 308 539 483 547 c 1,19,-1
 498 602 l 1,20,21
 504 634 504 634 519 700 c 128,-1,22
 534 766 534 766 541 801 c 0,23,24
 544 815 544 815 578 827.5 c 128,-1,25
 612 840 612 840 641 840 c 0,26,27
 662 840 662 840 662 784 c 128,-1,28
 662 728 662 728 639 631 c 1,29,-1
 618 551 l 1,30,31
 651 553 651 553 719 553 c 0,32,33
 920 553 920 553 920 516 c 0,34,35
 920 487 920 487 878 451.5 c 128,-1,36
 836 416 836 416 799 416 c 2,0,-1
639 -57 m 2,37,-1
 502 -55 l 1,38,39
 424 -55 424 -55 197 -74 c 1,40,41
 139 -74 139 -74 139 -33 c 0,42,43
 139 38 139 38 188 53 c 1,44,45
 218 59 218 59 349 69.5 c 128,-1,46
 480 80 480 80 530 80 c 0,47,48
 739 80 739 80 739 39 c 0,49,50
 739 9 739 9 708 -24 c 128,-1,51
 677 -57 677 -57 639 -57 c 2,37,-1
EndSplineSet
EndChar

StartChar: twosuperior
Encoding: 178 178 115
Width: 817
GlyphClass: 2
Flags: W
LayerCount: 2
Fore
SplineSet
391 -2 m 1,0,-1
 94 -20 l 1,1,2
 47 -20 47 -20 47 6 c 128,-1,3
 47 32 47 32 84 67 c 128,-1,4
 121 102 121 102 192.5 167.5 c 128,-1,5
 264 233 264 233 308 275 c 128,-1,6
 352 317 352 317 414.5 387.5 c 128,-1,7
 477 458 477 458 514 515 c 0,8,9
 604 656 604 656 604 772 c 128,-1,10
 604 888 604 888 574 937.5 c 128,-1,11
 544 987 544 987 479 987 c 0,12,13
 404 987 404 987 329 918 c 0,14,15
 293 885 293 885 269.5 827.5 c 128,-1,16
 246 770 246 770 246 700 c 1,17,18
 275 658 275 658 301 645 c 1,19,20
 348 624 348 624 348 596 c 0,21,22
 348 585 348 585 339 574 c 128,-1,23
 330 563 330 563 310.5 563 c 128,-1,24
 291 563 291 563 202 625.5 c 128,-1,25
 113 688 113 688 113 705 c 0,26,27
 113 871 113 871 211.5 967 c 128,-1,28
 310 1063 310 1063 455 1063 c 0,29,30
 533 1063 533 1063 592.5 1040.5 c 128,-1,31
 652 1018 652 1018 683.5 986.5 c 128,-1,32
 715 955 715 955 735 915 c 0,33,34
 766 853 766 853 766 792 c 128,-1,35
 766 731 766 731 740.5 661 c 128,-1,36
 715 591 715 591 679 532.5 c 128,-1,37
 643 474 643 474 587 409.5 c 128,-1,38
 531 345 531 345 487.5 302.5 c 128,-1,39
 444 260 444 260 385 210 c 0,40,41
 306 144 306 144 274 121 c 128,-1,42
 242 98 242 98 240 96 c 1,43,44
 274 102 274 102 338 116 c 0,45,46
 488 150 488 150 557 150 c 0,47,48
 659 150 659 150 659 102 c 0,49,50
 659 70 659 70 639 25 c 128,-1,51
 619 -20 619 -20 594 -20 c 1,52,-1
 391 -2 l 1,0,-1
EndSplineSet
EndChar

StartChar: threesuperior
Encoding: 179 179 116
Width: 842
GlyphClass: 2
Flags: W
LayerCount: 2
Fore
SplineSet
383 721 m 1,0,1
 383 684 383 684 356 684 c 0,2,3
 338 684 338 684 256 738 c 128,-1,4
 174 792 174 792 174 805 c 0,5,6
 174 900 174 900 274.5 981.5 c 128,-1,7
 375 1063 375 1063 498 1063 c 0,8,9
 793 1063 793 1063 793 850 c 0,10,11
 793 749 793 749 722.5 669 c 128,-1,12
 652 589 652 589 555 549 c 1,13,14
 628 529 628 529 674.5 468 c 128,-1,15
 721 407 721 407 721 321.5 c 128,-1,16
 721 236 721 236 659 152.5 c 128,-1,17
 597 69 597 69 503.5 24.5 c 128,-1,18
 410 -20 410 -20 332.5 -20 c 128,-1,19
 255 -20 255 -20 194.5 -0.5 c 128,-1,20
 134 19 134 19 86.5 63.5 c 128,-1,21
 39 108 39 108 39 159.5 c 128,-1,22
 39 211 39 211 70.5 241.5 c 128,-1,23
 102 272 102 272 137.5 272 c 128,-1,24
 173 272 173 272 187.5 249.5 c 128,-1,25
 202 227 202 227 209 194.5 c 128,-1,26
 216 162 216 162 225 130 c 0,27,28
 247 53 247 53 330.5 53 c 128,-1,29
 414 53 414 53 481.5 148 c 128,-1,30
 549 243 549 243 549 346 c 0,31,32
 549 410 549 410 517 449.5 c 128,-1,33
 485 489 485 489 418 489 c 2,34,-1
 389 489 l 2,35,36
 368 489 368 489 357 497 c 128,-1,37
 346 505 346 505 346 526 c 128,-1,38
 346 547 346 547 355 557 c 128,-1,39
 364 567 364 567 373 568.5 c 128,-1,40
 382 570 382 570 400 570 c 0,41,42
 502 570 502 570 568.5 671.5 c 128,-1,43
 635 773 635 773 635 850 c 0,44,45
 635 1001 635 1001 516 1001 c 0,46,47
 465 1001 465 1001 383 928.5 c 128,-1,48
 301 856 301 856 301 801 c 1,49,50
 309 788 309 788 343 757.5 c 128,-1,51
 377 727 377 727 383 721 c 1,0,1
EndSplineSet
EndChar

StartChar: acute
Encoding: 180 180 117
Width: 1706
GlyphClass: 2
Flags: W
LayerCount: 2
Fore
SplineSet
1380 1118 m 1,0,-1
 1292 1083 l 2,1,2
 1181 1039 1181 1039 895 940 c 1,3,-1
 872 995 l 1,4,5
 960 1076 960 1076 1089 1160.5 c 128,-1,6
 1218 1245 1218 1245 1292 1249 c 1,7,8
 1326 1249 1326 1249 1362.5 1213 c 128,-1,9
 1399 1177 1399 1177 1399 1150 c 128,-1,10
 1399 1123 1399 1123 1380 1118 c 1,0,-1
EndSplineSet
EndChar

StartChar: mu
Encoding: 181 181 118
Width: 993
GlyphClass: 2
Flags: W
LayerCount: 2
Fore
SplineSet
754 129 m 0,0,1
 805 129 805 129 1114 438 c 1,2,-1
 1114 326 l 1,3,4
 1090 304 1090 304 1031 248.5 c 128,-1,5
 972 193 972 193 941 164.5 c 128,-1,6
 910 136 910 136 857.5 93 c 128,-1,7
 805 50 805 50 770 28 c 0,8,9
 679 -29 679 -29 621 -29 c 0,10,11
 535 -29 535 -29 535 102 c 0,12,13
 535 133 535 133 545 195 c 1,14,15
 496 119 496 119 399.5 45 c 128,-1,16
 303 -29 303 -29 225.5 -29 c 128,-1,17
 148 -29 148 -29 104 23 c 1,18,-1
 82 -193 l 1,19,20
 76 -242 76 -242 45.5 -268.5 c 128,-1,21
 15 -295 15 -295 -21 -295 c 128,-1,22
 -57 -295 -57 -295 -78.5 -276.5 c 128,-1,23
 -100 -258 -100 -258 -100 -231.5 c 128,-1,24
 -100 -205 -100 -205 -96 -192.5 c 128,-1,25
 -92 -180 -92 -180 -66 -100 c 0,26,27
 31 189 31 189 79.5 355.5 c 128,-1,28
 128 522 128 522 217 782 c 1,29,30
 221 807 221 807 379 807 c 2,31,-1
 414 807 l 1,32,33
 414 805 414 805 373 676 c 0,34,35
 250 289 250 289 250 217 c 128,-1,36
 250 145 250 145 317 145 c 0,37,38
 374 145 374 145 458.5 194 c 128,-1,39
 543 243 543 243 557 272 c 1,40,-1
 666 688 l 2,41,42
 688 773 688 773 726 792 c 0,43,44
 755 807 755 807 819 807 c 2,45,-1
 887 807 l 1,46,47
 760 348 760 348 737 246 c 1,48,49
 729 170 729 170 729 155 c 128,-1,50
 729 140 729 140 733.5 134.5 c 128,-1,51
 738 129 738 129 754 129 c 0,0,1
EndSplineSet
EndChar

StartChar: paragraph
Encoding: 182 182 119
Width: 1217
GlyphClass: 2
Flags: W
LayerCount: 2
Fore
SplineSet
479 -29 m 1,0,1
 504 98 504 98 637 659.5 c 128,-1,2
 770 1221 770 1221 823 1391 c 1,3,4
 783 1389 783 1389 705 1376 c 1,5,6
 647 1141 647 1141 354 -29 c 1,7,-1
 186 -29 l 1,8,9
 211 87 211 87 375 760 c 1,10,11
 248 781 248 781 169 865 c 128,-1,12
 90 949 90 949 90 1052 c 128,-1,13
 90 1155 90 1155 138.5 1236.5 c 128,-1,14
 187 1318 187 1318 281 1382 c 0,15,16
 483 1518 483 1518 881 1518 c 0,17,18
 1049 1518 1049 1518 1192 1507 c 1,19,-1
 1155 1391 l 1,20,21
 1096 1393 1096 1393 922 1393 c 1,22,23
 950 1383 950 1383 964.5 1371.5 c 128,-1,24
 979 1360 979 1360 979 1339 c 1,25,-1
 805 614 l 1,26,27
 744 402 744 402 643 -29 c 1,28,-1
 479 -29 l 1,0,1
EndSplineSet
EndChar

StartChar: periodcentered
Encoding: 183 183 120
Width: 422
GlyphClass: 2
Flags: W
LayerCount: 2
Fore
SplineSet
276 620.5 m 128,-1,1
 224 569 224 569 170 569 c 0,2,3
 78 569 78 569 78 647 c 0,4,5
 78 702 78 702 119 753.5 c 128,-1,6
 160 805 160 805 216.5 805 c 128,-1,7
 273 805 273 805 300.5 783 c 128,-1,8
 328 761 328 761 328 716.5 c 128,-1,0
 328 672 328 672 276 620.5 c 128,-1,1
EndSplineSet
EndChar

StartChar: cedilla
Encoding: 184 184 121
Width: 709
GlyphClass: 2
Flags: W
LayerCount: 2
Fore
SplineSet
360 0 m 0,0,1
 465 0 465 0 465 -117 c 0,2,3
 465 -196 465 -196 425 -290 c 0,4,5
 349 -468 349 -468 231 -492 c 1,6,-1
 215 -430 l 1,7,8
 268 -377 268 -377 290 -268 c 0,9,10
 299 -223 299 -223 299 -174 c 1,11,12
 261 -163 261 -163 241 -139.5 c 128,-1,13
 221 -116 221 -116 221 -85 c 128,-1,14
 221 -54 221 -54 258 -27 c 128,-1,15
 295 0 295 0 360 0 c 0,0,1
EndSplineSet
EndChar

StartChar: onesuperior
Encoding: 185 185 122
Width: 502
GlyphClass: 2
Flags: W
LayerCount: 2
Fore
SplineSet
61 834 m 0,0,1
 291 982 291 982 369.5 1022.5 c 128,-1,2
 448 1063 448 1063 457 1063 c 0,3,4
 473 1063 473 1063 473 1036 c 2,5,-1
 473 1016 l 1,6,-1
 279 156 l 2,7,8
 278 150 278 150 276.5 136.5 c 128,-1,9
 275 123 275 123 274 114.5 c 128,-1,10
 273 106 273 106 271 92 c 128,-1,11
 269 78 269 78 267 68.5 c 128,-1,12
 265 59 265 59 262 47.5 c 128,-1,13
 259 36 259 36 256 28.5 c 128,-1,14
 253 21 253 21 249 14 c 0,15,16
 241 0 241 0 229 0 c 2,17,-1
 88 0 l 2,18,19
 70 0 70 0 70 33 c 128,-1,20
 70 66 70 66 87 144.5 c 128,-1,21
 104 223 104 223 142.5 365.5 c 128,-1,22
 181 508 181 508 195.5 564.5 c 128,-1,23
 210 621 210 621 229 694.5 c 128,-1,24
 248 768 248 768 257.5 805 c 128,-1,25
 267 842 267 842 274 870 c 0,26,27
 285 914 285 914 287 920 c 1,28,29
 227 871 227 871 145.5 815.5 c 128,-1,30
 64 760 64 760 37 760 c 1,31,32
 18 765 18 765 18 785.5 c 128,-1,33
 18 806 18 806 61 834 c 0,0,1
EndSplineSet
EndChar

StartChar: ordmasculine
Encoding: 186 186 123
Width: 838
GlyphClass: 2
Flags: W
LayerCount: 2
Fore
SplineSet
670 1208 m 0,0,1
 670 1106 670 1106 600 1018 c 1,2,3
 620 1010 620 1010 633 1010 c 128,-1,4
 646 1010 646 1010 660.5 1016.5 c 128,-1,5
 675 1023 675 1023 694.5 1040 c 128,-1,6
 714 1057 714 1057 728 1070 c 0,7,8
 747 1089 747 1089 815 1161 c 1,9,-1
 815 1075 l 1,10,11
 768 1028 768 1028 747 1009 c 0,12,13
 686 954 686 954 640.5 954 c 128,-1,14
 595 954 595 954 567 965 c 1,15,16
 511 893 511 893 430.5 848 c 128,-1,17
 350 803 350 803 272 803 c 128,-1,18
 194 803 194 803 145 844 c 0,19,20
 57 916 57 916 57 1065 c 0,21,22
 57 1249 57 1249 188 1355.5 c 128,-1,23
 319 1462 319 1462 537 1462 c 0,24,25
 552 1462 552 1462 555 1454 c 1,26,27
 555 1431 555 1431 537 1419 c 1,28,29
 390 1419 390 1419 311.5 1337 c 128,-1,30
 233 1255 233 1255 233 1151 c 128,-1,31
 233 1047 233 1047 278 986.5 c 128,-1,32
 323 926 323 926 389.5 926 c 128,-1,33
 456 926 456 926 514 993 c 1,34,35
 456 1030 456 1030 425.5 1088 c 128,-1,36
 395 1146 395 1146 395 1206.5 c 128,-1,37
 395 1267 395 1267 431 1304 c 128,-1,38
 467 1341 467 1341 536.5 1341 c 128,-1,39
 606 1341 606 1341 638 1304.5 c 128,-1,40
 670 1268 670 1268 670 1208 c 0,0,1
551 1049 m 1,41,42
 566 1073 566 1073 581 1118.5 c 128,-1,43
 596 1164 596 1164 596 1200 c 0,44,45
 596 1270 596 1270 535 1270 c 0,46,47
 505 1270 505 1270 489 1249 c 128,-1,48
 473 1228 473 1228 473 1193 c 128,-1,49
 473 1158 473 1158 494 1116.5 c 128,-1,50
 515 1075 515 1075 551 1049 c 1,41,42
EndSplineSet
EndChar

StartChar: guillemotright
Encoding: 187 187 124
Width: 1544
GlyphClass: 2
Flags: W
LayerCount: 2
Fore
SplineSet
826 1176 m 0,0,1
 826 1196 826 1196 882 1196 c 128,-1,2
 938 1196 938 1196 998 1108 c 1,3,4
 1289 703 1289 703 1289 618 c 0,5,6
 1289 589 1289 589 1245 548 c 0,7,8
 1233 538 1233 538 1211.5 517.5 c 128,-1,9
 1190 497 1190 497 1173 481 c 2,10,-1
 1000 307 l 2,11,12
 987 293 987 293 949.5 249 c 128,-1,13
 912 205 912 205 887 179.5 c 128,-1,14
 862 154 862 154 821.5 130 c 128,-1,15
 781 106 781 106 751 106 c 0,16,17
 689 106 689 106 691 160 c 1,18,19
 693 185 693 185 753 233 c 0,20,21
 881 334 881 334 970 442 c 1,22,-1
 1138 623 l 1,23,-1
 1017 834 l 1,24,-1
 935 958 l 1,25,26
 826 1109 826 1109 826 1171 c 0,27,28
 826 1173 826 1173 826 1176 c 0,0,1
734 653 m 1,29,-1
 548 948 l 1,30,31
 439 1098 439 1098 439 1160 c 0,32,33
 439 1162 439 1162 439 1165 c 0,34,35
 439 1186 439 1186 493 1186 c 128,-1,36
 547 1186 547 1186 611 1098 c 0,37,38
 884 727 884 727 884 649 c 0,39,40
 884 621 884 621 840 580 c 0,41,42
 830 570 830 570 806.5 548.5 c 128,-1,43
 783 527 783 527 767 512 c 2,44,-1
 597 338 l 2,45,46
 582 323 582 323 544.5 279.5 c 128,-1,47
 507 236 507 236 482 210 c 128,-1,48
 457 184 457 184 416.5 160.5 c 128,-1,49
 376 137 376 137 337 137 c 0,50,51
 288 137 288 137 288 181 c 0,52,53
 288 186 288 186 288.5 197.5 c 128,-1,54
 289 209 289 209 326 242 c 128,-1,55
 363 275 363 275 434.5 338.5 c 128,-1,56
 506 402 506 402 564 473 c 1,57,-1
 734 653 l 1,29,-1
EndSplineSet
EndChar

StartChar: onequarter
Encoding: 188 188 125
Width: 1630
GlyphClass: 2
Flags: W
LayerCount: 2
Fore
SplineSet
244 49 m 1,0,1
 854 1210 854 1210 923 1334 c 128,-1,2
 992 1458 992 1458 998.5 1470.5 c 128,-1,3
 1005 1483 1005 1483 1018 1504 c 128,-1,4
 1031 1525 1031 1525 1037 1531.5 c 128,-1,5
 1043 1538 1043 1538 1055.5 1550 c 128,-1,6
 1068 1562 1068 1562 1077.5 1565 c 128,-1,7
 1087 1568 1087 1568 1103 1572 c 0,8,9
 1126 1579 1126 1579 1176 1579 c 0,10,11
 1184 1579 1184 1579 1190 1569 c 128,-1,12
 1196 1559 1196 1559 1196 1546.5 c 128,-1,13
 1196 1534 1196 1534 1190 1513 c 1,14,-1
 350 39 l 1,15,16
 317 -27 317 -27 284 -72.5 c 128,-1,17
 251 -118 251 -118 233 -129.5 c 128,-1,18
 215 -141 215 -141 197 -141 c 0,19,20
 172 -141 172 -141 172 -117 c 0,21,22
 172 -69 172 -69 244 49 c 1,0,1
96 1307 m 0,23,24
 326 1455 326 1455 404.5 1495.5 c 128,-1,25
 483 1536 483 1536 492 1536 c 0,26,27
 508 1536 508 1536 508 1509 c 2,28,-1
 508 1489 l 1,29,-1
 314 629 l 2,30,31
 313 623 313 623 311.5 609.5 c 128,-1,32
 310 596 310 596 309 587.5 c 128,-1,33
 308 579 308 579 306 565 c 128,-1,34
 304 551 304 551 302 541.5 c 128,-1,35
 300 532 300 532 297 520.5 c 128,-1,36
 294 509 294 509 291 501.5 c 128,-1,37
 288 494 288 494 284 487 c 0,38,39
 276 473 276 473 264 473 c 2,40,-1
 123 473 l 2,41,42
 105 473 105 473 105 506 c 128,-1,43
 105 539 105 539 122 617.5 c 128,-1,44
 139 696 139 696 177.5 838.5 c 128,-1,45
 216 981 216 981 230.5 1037.5 c 128,-1,46
 245 1094 245 1094 264 1167.5 c 128,-1,47
 283 1241 283 1241 292.5 1278 c 128,-1,48
 302 1315 302 1315 309 1343 c 0,49,50
 320 1387 320 1387 322 1393 c 1,51,52
 262 1344 262 1344 180.5 1288.5 c 128,-1,53
 99 1233 99 1233 72 1233 c 1,54,55
 53 1238 53 1238 53 1258.5 c 128,-1,56
 53 1279 53 1279 96 1307 c 0,23,24
1120 203 m 1,57,-1
 921 238 l 1,58,59
 863 207 863 207 839 207 c 128,-1,60
 815 207 815 207 800 211.5 c 128,-1,61
 785 216 785 216 767 233.5 c 128,-1,62
 749 251 749 251 749 279.5 c 128,-1,63
 749 308 749 308 763.5 320.5 c 128,-1,64
 778 333 778 333 809 342 c 1,65,-1
 885 371 l 1,66,-1
 1091 846 l 1,67,68
 1137 978 1137 978 1153 997 c 128,-1,69
 1169 1016 1169 1016 1183.5 1030.5 c 128,-1,70
 1198 1045 1198 1045 1216 1050 c 0,71,72
 1255 1063 1255 1063 1294.5 1063 c 128,-1,73
 1334 1063 1334 1063 1341 1049 c 1,74,75
 1239 819 1239 819 1018 346 c 1,76,77
 1084 325 1084 325 1161 311 c 1,78,79
 1233 491 1233 491 1263 567 c 1,80,81
 1276 586 1276 586 1337 586 c 2,82,-1
 1401 586 l 1,83,84
 1393 548 1393 548 1294 299 c 1,85,86
 1385 299 1385 299 1440 330 c 1,87,88
 1449 332 1449 332 1494.5 360 c 128,-1,89
 1540 388 1540 388 1573 416 c 1,90,-1
 1607 356 l 1,91,92
 1566 327 1566 327 1520 287 c 128,-1,93
 1474 247 1474 247 1452 230 c 0,94,95
 1397 188 1397 188 1296 188 c 0,96,97
 1268 188 1268 188 1251 190 c 1,98,-1
 1200 68 l 1,99,100
 1182 0 1182 0 1161 0 c 2,101,-1
 1052 0 l 1,102,-1
 1048 14 l 1,103,104
 1096 144 1096 144 1120 203 c 1,57,-1
EndSplineSet
EndChar

StartChar: onehalf
Encoding: 189 189 126
Width: 1640
GlyphClass: 2
Flags: W
LayerCount: 2
Fore
SplineSet
891 1319 m 128,-1,1
 933 1395 933 1395 950 1426.5 c 128,-1,2
 967 1458 967 1458 974 1470.5 c 128,-1,3
 981 1483 981 1483 994 1504 c 128,-1,4
 1007 1525 1007 1525 1013 1531.5 c 128,-1,5
 1019 1538 1019 1538 1031.5 1550 c 128,-1,6
 1044 1562 1044 1562 1053.5 1565 c 128,-1,7
 1063 1568 1063 1568 1078 1572 c 0,8,9
 1101 1579 1101 1579 1151 1579 c 0,10,11
 1159 1579 1159 1579 1165 1569 c 128,-1,12
 1171 1559 1171 1559 1171 1546.5 c 128,-1,13
 1171 1534 1171 1534 1165 1513 c 1,14,-1
 326 39 l 1,15,16
 291 -30 291 -30 258.5 -74 c 128,-1,17
 226 -118 226 -118 208 -129.5 c 128,-1,18
 190 -141 190 -141 172 -141 c 0,19,20
 147 -141 147 -141 147 -117 c 0,21,22
 147 -75 147 -75 196 9 c 0,23,24
 211 34 211 34 530 638.5 c 128,-1,0
 849 1243 849 1243 891 1319 c 128,-1,1
98 1307 m 0,25,26
 328 1455 328 1455 406.5 1495.5 c 128,-1,27
 485 1536 485 1536 494 1536 c 0,28,29
 510 1536 510 1536 510 1509 c 2,30,-1
 510 1489 l 1,31,-1
 316 629 l 2,32,33
 315 623 315 623 313.5 609.5 c 128,-1,34
 312 596 312 596 311 587.5 c 128,-1,35
 310 579 310 579 308 565 c 128,-1,36
 306 551 306 551 304 541.5 c 128,-1,37
 302 532 302 532 299 520.5 c 128,-1,38
 296 509 296 509 293 501.5 c 128,-1,39
 290 494 290 494 286 487 c 0,40,41
 278 473 278 473 266 473 c 2,42,-1
 125 473 l 2,43,44
 107 473 107 473 107 506 c 128,-1,45
 107 539 107 539 124 617.5 c 128,-1,46
 141 696 141 696 179.5 838.5 c 128,-1,47
 218 981 218 981 232.5 1037.5 c 128,-1,48
 247 1094 247 1094 266 1167.5 c 128,-1,49
 285 1241 285 1241 294.5 1278 c 128,-1,50
 304 1315 304 1315 311 1343 c 0,51,52
 322 1387 322 1387 324 1393 c 1,53,54
 264 1344 264 1344 182.5 1288.5 c 128,-1,55
 101 1233 101 1233 74 1233 c 1,56,57
 55 1238 55 1238 55 1258.5 c 128,-1,58
 55 1279 55 1279 98 1307 c 0,25,26
1229 -2 m 1,59,-1
 932 -20 l 1,60,61
 885 -20 885 -20 885 6 c 128,-1,62
 885 32 885 32 922 67 c 128,-1,63
 959 102 959 102 1030.5 167.5 c 128,-1,64
 1102 233 1102 233 1146 275 c 128,-1,65
 1190 317 1190 317 1252.5 387.5 c 128,-1,66
 1315 458 1315 458 1352 515 c 0,67,68
 1442 656 1442 656 1442 772 c 128,-1,69
 1442 888 1442 888 1412 937.5 c 128,-1,70
 1382 987 1382 987 1317 987 c 0,71,72
 1242 987 1242 987 1167 918 c 0,73,74
 1131 885 1131 885 1107.5 827.5 c 128,-1,75
 1084 770 1084 770 1084 700 c 1,76,77
 1113 658 1113 658 1139 645 c 1,78,79
 1186 624 1186 624 1186 596 c 0,80,81
 1186 585 1186 585 1177 574 c 128,-1,82
 1168 563 1168 563 1148.5 563 c 128,-1,83
 1129 563 1129 563 1040 625.5 c 128,-1,84
 951 688 951 688 951 705 c 0,85,86
 951 871 951 871 1049.5 967 c 128,-1,87
 1148 1063 1148 1063 1293 1063 c 0,88,89
 1371 1063 1371 1063 1430.5 1040.5 c 128,-1,90
 1490 1018 1490 1018 1521.5 986.5 c 128,-1,91
 1553 955 1553 955 1573 915 c 0,92,93
 1604 853 1604 853 1604 792 c 128,-1,94
 1604 731 1604 731 1578.5 661 c 128,-1,95
 1553 591 1553 591 1517 532.5 c 128,-1,96
 1481 474 1481 474 1425 409.5 c 128,-1,97
 1369 345 1369 345 1325.5 302.5 c 128,-1,98
 1282 260 1282 260 1223 210 c 0,99,100
 1144 144 1144 144 1112 121 c 128,-1,101
 1080 98 1080 98 1078 96 c 1,102,103
 1112 102 1112 102 1176 116 c 0,104,105
 1326 150 1326 150 1395 150 c 0,106,107
 1497 150 1497 150 1497 102 c 0,108,109
 1497 70 1497 70 1477 25 c 128,-1,110
 1457 -20 1457 -20 1432 -20 c 1,111,-1
 1229 -2 l 1,59,-1
EndSplineSet
EndChar

StartChar: threequarters
Encoding: 190 190 127
Width: 1833
GlyphClass: 2
Flags: W
LayerCount: 2
Fore
SplineSet
1112 1194.5 m 128,-1,1
 1254 1458 1254 1458 1261 1470.5 c 128,-1,2
 1268 1483 1268 1483 1280.5 1504 c 128,-1,3
 1293 1525 1293 1525 1299.5 1532 c 128,-1,4
 1306 1539 1306 1539 1318.5 1550.5 c 128,-1,5
 1331 1562 1331 1562 1340.5 1565 c 128,-1,6
 1350 1568 1350 1568 1366 1572 c 1,7,8
 1388 1579 1388 1579 1438 1579 c 0,9,10
 1446 1579 1446 1579 1452 1569 c 128,-1,11
 1458 1559 1458 1559 1458 1546.5 c 128,-1,12
 1458 1534 1458 1534 1452 1513 c 1,13,-1
 612 39 l 1,14,15
 567 -51 567 -51 546 -76 c 128,-1,16
 525 -101 525 -101 512 -114 c 0,17,18
 486 -141 486 -141 460 -141 c 128,-1,19
 434 -141 434 -141 434 -117 c 0,20,21
 434 -75 434 -75 483 9 c 0,22,23
 498 35 498 35 734 483 c 128,-1,0
 970 931 970 931 1112 1194.5 c 128,-1,1
383 1194 m 1,24,25
 383 1157 383 1157 356 1157 c 0,26,27
 338 1157 338 1157 256 1211 c 128,-1,28
 174 1265 174 1265 174 1278 c 0,29,30
 174 1373 174 1373 274.5 1454.5 c 128,-1,31
 375 1536 375 1536 498 1536 c 0,32,33
 793 1536 793 1536 793 1323 c 0,34,35
 793 1222 793 1222 722.5 1142 c 128,-1,36
 652 1062 652 1062 555 1022 c 1,37,38
 628 1002 628 1002 674.5 941 c 128,-1,39
 721 880 721 880 721 794.5 c 128,-1,40
 721 709 721 709 659 625.5 c 128,-1,41
 597 542 597 542 503.5 497.5 c 128,-1,42
 410 453 410 453 332.5 453 c 128,-1,43
 255 453 255 453 194.5 472.5 c 128,-1,44
 134 492 134 492 86.5 536.5 c 128,-1,45
 39 581 39 581 39 632.5 c 128,-1,46
 39 684 39 684 70.5 714.5 c 128,-1,47
 102 745 102 745 137.5 745 c 128,-1,48
 173 745 173 745 187.5 722.5 c 128,-1,49
 202 700 202 700 209 667.5 c 128,-1,50
 216 635 216 635 225 603 c 0,51,52
 247 526 247 526 330.5 526 c 128,-1,53
 414 526 414 526 481.5 621 c 128,-1,54
 549 716 549 716 549 819 c 0,55,56
 549 883 549 883 517 922.5 c 128,-1,57
 485 962 485 962 418 962 c 2,58,-1
 389 962 l 2,59,60
 368 962 368 962 357 970 c 128,-1,61
 346 978 346 978 346 999 c 128,-1,62
 346 1020 346 1020 355 1030 c 128,-1,63
 364 1040 364 1040 373 1041.5 c 128,-1,64
 382 1043 382 1043 400 1043 c 0,65,66
 502 1043 502 1043 568.5 1144.5 c 128,-1,67
 635 1246 635 1246 635 1324 c 0,68,69
 635 1474 635 1474 516 1474 c 0,70,71
 465 1474 465 1474 383 1401.5 c 128,-1,72
 301 1329 301 1329 301 1274 c 1,73,74
 309 1261 309 1261 343 1230.5 c 128,-1,75
 377 1200 377 1200 383 1194 c 1,24,25
1317 203 m 1,76,-1
 1118 238 l 1,77,78
 1060 207 1060 207 1036 207 c 128,-1,79
 1012 207 1012 207 997 211.5 c 128,-1,80
 982 216 982 216 964 233.5 c 128,-1,81
 946 251 946 251 946 279.5 c 128,-1,82
 946 308 946 308 960.5 320.5 c 128,-1,83
 975 333 975 333 1006 342 c 1,84,-1
 1082 371 l 1,85,-1
 1288 846 l 1,86,87
 1334 978 1334 978 1350 997 c 128,-1,88
 1366 1016 1366 1016 1380.5 1030.5 c 128,-1,89
 1395 1045 1395 1045 1412 1050 c 0,90,91
 1452 1063 1452 1063 1491.5 1063 c 128,-1,92
 1531 1063 1531 1063 1538 1049 c 1,93,94
 1436 819 1436 819 1215 346 c 1,95,96
 1281 325 1281 325 1358 311 c 1,97,98
 1430 491 1430 491 1460 567 c 1,99,100
 1473 586 1473 586 1534 586 c 2,101,-1
 1598 586 l 1,102,103
 1590 548 1590 548 1491 299 c 1,104,105
 1582 299 1582 299 1637 330 c 1,106,107
 1646 332 1646 332 1691.5 360 c 128,-1,108
 1737 388 1737 388 1770 416 c 1,109,-1
 1804 356 l 1,110,111
 1763 327 1763 327 1717 287 c 128,-1,112
 1671 247 1671 247 1650 230 c 1,113,114
 1594 188 1594 188 1493 188 c 0,115,116
 1465 188 1465 188 1448 190 c 1,117,-1
 1397 68 l 1,118,119
 1379 0 1379 0 1358 0 c 2,120,-1
 1249 0 l 1,121,-1
 1245 14 l 1,122,123
 1293 144 1293 144 1317 203 c 1,76,-1
EndSplineSet
EndChar

StartChar: questiondown
Encoding: 191 191 128
Width: 999
GlyphClass: 2
Flags: W
LayerCount: 2
Fore
SplineSet
674 1065 m 0,0,1
 750 1065 750 1065 750 1024 c 0,2,3
 750 904 750 904 646 788 c 0,4,5
 584 718 584 718 480 628 c 128,-1,6
 376 538 376 538 330 490 c 0,7,8
 226 383 226 383 226 283 c 0,9,10
 226 216 226 216 270 164 c 0,11,12
 354 64 354 64 506 64 c 0,13,14
 590 64 590 64 626.5 82 c 128,-1,15
 663 100 663 100 683 112.5 c 128,-1,16
 703 125 703 125 719 147 c 128,-1,17
 735 169 735 169 746 185 c 128,-1,18
 757 201 757 201 767 229 c 128,-1,19
 777 257 777 257 782.5 272.5 c 128,-1,20
 788 288 788 288 796.5 318.5 c 128,-1,21
 805 349 805 349 809 361 c 1,22,-1
 852 359 l 2,23,24
 971 354 971 354 971 262 c 0,25,26
 971 234 971 234 961 211 c 1,27,28
 931 133 931 133 858 76 c 0,29,30
 722 -29 722 -29 547 -29 c 0,31,32
 347 -29 347 -29 196 60 c 0,33,34
 124 102 124 102 80.5 171.5 c 128,-1,35
 37 241 37 241 37 322 c 128,-1,36
 37 403 37 403 67 470 c 128,-1,37
 97 537 97 537 145 584.5 c 128,-1,38
 193 632 193 632 252 674 c 128,-1,39
 311 716 311 716 371 752.5 c 128,-1,40
 431 789 431 789 482 824 c 0,41,42
 596 903 596 903 607 991 c 1,43,44
 617 1028 617 1028 636 1046.5 c 128,-1,45
 655 1065 655 1065 674 1065 c 0,0,1
605 1466.5 m 128,-1,47
 657 1518 657 1518 710 1518 c 0,48,49
 803 1518 803 1518 803 1440 c 0,50,51
 803 1385 803 1385 762 1333.5 c 128,-1,52
 721 1282 721 1282 664.5 1282 c 128,-1,53
 608 1282 608 1282 580.5 1304 c 128,-1,54
 553 1326 553 1326 553 1370.5 c 128,-1,46
 553 1415 553 1415 605 1466.5 c 128,-1,47
EndSplineSet
EndChar

StartChar: Aacute
Encoding: 193 193 130
Width: 1391
GlyphClass: 2
Flags: W
LayerCount: 2
Fore
SplineSet
1319 1272 m 0,0,1
 1346 1272 1346 1272 1346 1239 c 0,2,3
 1346 1227 1346 1227 1343 1223 c 1,4,5
 1255 987 1255 987 1130 329 c 0,6,7
 1105 198 1105 198 1134 174 c 0,8,9
 1143 166 1143 166 1157 166 c 0,10,11
 1211 166 1211 166 1253 198 c 0,12,13
 1320 249 1320 249 1513 442 c 1,14,-1
 1513 330 l 1,15,16
 1483 299 1483 299 1433.5 245.5 c 128,-1,17
 1384 192 1384 192 1356.5 163 c 128,-1,18
 1329 134 1329 134 1288 93.5 c 128,-1,19
 1247 53 1247 53 1218 30.5 c 128,-1,20
 1189 8 1189 8 1154 -15 c 0,21,22
 1090 -57 1090 -57 1034 -57 c 128,-1,23
 978 -57 978 -57 949 -36 c 0,24,25
 891 4 891 4 891 135 c 0,26,27
 891 164 891 164 895 193 c 1,28,29
 787 81 787 81 657 12 c 128,-1,30
 527 -57 527 -57 422 -57 c 0,31,32
 244 -57 244 -57 162 39.5 c 128,-1,33
 80 136 80 136 80 328 c 0,34,35
 80 466 80 466 131.5 612.5 c 128,-1,36
 183 759 183 759 271 889 c 128,-1,37
 359 1019 359 1019 480 1135.5 c 128,-1,38
 601 1252 601 1252 736 1336 c 0,39,40
 1028 1518 1028 1518 1313 1518 c 0,41,42
 1414 1518 1414 1518 1518 1486 c 0,43,44
 1716 1426 1716 1426 1716 1321 c 0,45,46
 1716 1279 1716 1279 1652.5 1221 c 128,-1,47
 1589 1163 1589 1163 1544 1151 c 1,48,49
 1486 1421 1486 1421 1253 1421 c 0,50,51
 1075 1421 1075 1421 854 1268 c 0,52,53
 643 1122 643 1122 494 903 c 0,54,55
 338 672 338 672 338 463 c 0,56,57
 338 304 338 304 414.5 219.5 c 128,-1,58
 491 135 491 135 625 135 c 0,59,60
 714 135 714 135 806 208.5 c 128,-1,61
 898 282 898 282 918.5 390 c 128,-1,62
 939 498 939 498 1013.5 818 c 128,-1,63
 1088 1138 1088 1138 1109.5 1205 c 128,-1,64
 1131 1272 1131 1272 1319 1272 c 0,0,1
1640 1831 m 1,65,-1
 1552 1796 l 2,66,67
 1441 1752 1441 1752 1155 1653 c 1,68,-1
 1132 1708 l 1,69,70
 1220 1789 1220 1789 1349 1873.5 c 128,-1,71
 1478 1958 1478 1958 1552 1962 c 1,72,73
 1586 1962 1586 1962 1622.5 1926 c 128,-1,74
 1659 1890 1659 1890 1659 1863 c 128,-1,75
 1659 1836 1659 1836 1640 1831 c 1,65,-1
EndSplineSet
EndChar

StartChar: Aring
Encoding: 197 197 134
Width: 1391
GlyphClass: 2
Flags: W
LayerCount: 2
Fore
SplineSet
1319 1272 m 0,0,1
 1346 1272 1346 1272 1346 1239 c 0,2,3
 1346 1227 1346 1227 1343 1223 c 1,4,5
 1255 987 1255 987 1130 329 c 0,6,7
 1105 198 1105 198 1134 174 c 0,8,9
 1143 166 1143 166 1157 166 c 0,10,11
 1211 166 1211 166 1253 198 c 0,12,13
 1320 249 1320 249 1513 442 c 1,14,-1
 1513 330 l 1,15,16
 1483 299 1483 299 1433.5 245.5 c 128,-1,17
 1384 192 1384 192 1356.5 163 c 128,-1,18
 1329 134 1329 134 1288 93.5 c 128,-1,19
 1247 53 1247 53 1218 30.5 c 128,-1,20
 1189 8 1189 8 1154 -15 c 0,21,22
 1090 -57 1090 -57 1034 -57 c 128,-1,23
 978 -57 978 -57 949 -36 c 0,24,25
 891 4 891 4 891 135 c 0,26,27
 891 164 891 164 895 193 c 1,28,29
 787 81 787 81 657 12 c 128,-1,30
 527 -57 527 -57 422 -57 c 0,31,32
 244 -57 244 -57 162 39.5 c 128,-1,33
 80 136 80 136 80 328 c 0,34,35
 80 466 80 466 131.5 612.5 c 128,-1,36
 183 759 183 759 271 889 c 128,-1,37
 359 1019 359 1019 480 1135.5 c 128,-1,38
 601 1252 601 1252 736 1336 c 0,39,40
 1028 1518 1028 1518 1313 1518 c 0,41,42
 1414 1518 1414 1518 1518 1486 c 0,43,44
 1716 1426 1716 1426 1716 1321 c 0,45,46
 1716 1279 1716 1279 1652.5 1221 c 128,-1,47
 1589 1163 1589 1163 1544 1151 c 1,48,49
 1486 1421 1486 1421 1253 1421 c 0,50,51
 1075 1421 1075 1421 854 1268 c 0,52,53
 643 1122 643 1122 494 903 c 0,54,55
 338 672 338 672 338 463 c 0,56,57
 338 304 338 304 414.5 219.5 c 128,-1,58
 491 135 491 135 625 135 c 0,59,60
 714 135 714 135 806 208.5 c 128,-1,61
 898 282 898 282 918.5 390 c 128,-1,62
 939 498 939 498 1013.5 818 c 128,-1,63
 1088 1138 1088 1138 1109.5 1205 c 128,-1,64
 1131 1272 1131 1272 1319 1272 c 0,0,1
1471 1835 m 0,65,66
 1471 1932 1471 1932 1381 1932 c 0,67,68
 1329 1932 1329 1932 1298.5 1893.5 c 128,-1,69
 1268 1855 1268 1855 1268 1810 c 0,70,71
 1268 1710 1268 1710 1354 1710 c 0,72,73
 1406 1710 1406 1710 1438.5 1748.5 c 128,-1,74
 1471 1787 1471 1787 1471 1835 c 0,65,66
1502.5 1952 m 128,-1,76
 1545 1905 1545 1905 1545 1828 c 128,-1,77
 1545 1751 1545 1751 1486.5 1697 c 128,-1,78
 1428 1643 1428 1643 1356.5 1643 c 128,-1,79
 1285 1643 1285 1643 1237.5 1684 c 128,-1,80
 1190 1725 1190 1725 1190 1803 c 128,-1,81
 1190 1881 1190 1881 1242 1940 c 128,-1,82
 1294 1999 1294 1999 1377 1999 c 128,-1,75
 1460 1999 1460 1999 1502.5 1952 c 128,-1,76
EndSplineSet
EndChar

StartChar: AE
Encoding: 198 198 135
Width: 1878
GlyphClass: 2
Flags: W
LayerCount: 2
Fore
SplineSet
1092 240 m 1,0,-1
 1149 238 l 2,1,2
 1174 238 1174 238 1186 240 c 1,3,4
 1193 238 1193 238 1280 205 c 0,5,6
 1505 119 1505 119 1554 119 c 0,7,8
 1648 119 1648 119 1842 287 c 0,9,10
 1916 351 1916 351 1999 438 c 1,11,-1
 1999 328 l 1,12,13
 1968 300 1968 300 1911 248.5 c 128,-1,14
 1854 197 1854 197 1827 173 c 128,-1,15
 1800 149 1800 149 1752.5 109.5 c 128,-1,16
 1705 70 1705 70 1676.5 51.5 c 128,-1,17
 1648 33 1648 33 1605.5 7.5 c 128,-1,18
 1563 -18 1563 -18 1529 -29 c 0,19,20
 1442 -57 1442 -57 1368 -57 c 0,21,22
 1363 -57 1363 -57 1349 -49 c 128,-1,23
 1335 -41 1335 -41 1319.5 -33 c 128,-1,24
 1304 -25 1304 -25 1271 -11.5 c 128,-1,25
 1238 2 1238 2 1194 18 c 1,26,27
 1109 51 1109 51 918 109 c 1,28,-1
 897 195 l 1,29,30
 784 83 784 83 654 13 c 128,-1,31
 524 -57 524 -57 422 -57 c 0,32,33
 244 -57 244 -57 162 39.5 c 128,-1,34
 80 136 80 136 80 328 c 0,35,36
 80 610 80 610 265 889 c 0,37,38
 445 1160 445 1160 750 1336 c 0,39,40
 1066 1518 1066 1518 1423 1518 c 0,41,42
 2044 1518 2044 1518 2044 1491 c 0,43,44
 2044 1479 2044 1479 2025 1460 c 1,45,-1
 1925 1346 l 1,46,47
 1873 1311 1873 1311 1820.5 1311 c 128,-1,48
 1768 1311 1768 1311 1633.5 1332 c 128,-1,49
 1499 1353 1499 1353 1438 1356 c 1,50,51
 1430 1329 1430 1329 1376 1121 c 128,-1,52
 1322 913 1322 913 1284 795 c 1,53,54
 1414 805 1414 805 1522 805 c 128,-1,55
 1630 805 1630 805 1747 799 c 1,56,57
 1784 799 1784 799 1784 767.5 c 128,-1,58
 1784 736 1784 736 1752.5 703 c 128,-1,59
 1721 670 1721 670 1683 670 c 0,60,61
 1389 670 1389 670 1249 659 c 1,62,-1
 1249 657 l 1,63,64
 1196 464 1196 464 1059 238 c 1,65,-1
 1092 240 l 1,0,-1
989 631 m 1,66,67
 897 618 897 618 799 594 c 1,68,69
 750 594 750 594 750 637 c 0,70,71
 750 686 750 686 809 709 c 0,72,73
 864 730 864 730 935.5 743 c 128,-1,74
 1007 756 1007 756 1026 760 c 1,75,76
 1141 1165 1141 1165 1212 1262 c 0,77,78
 1249 1314 1249 1314 1317 1360 c 1,79,-1
 1358 1421 l 1,80,81
 1128 1419 1128 1419 885 1266 c 0,82,83
 650 1118 650 1118 498 901 c 0,84,85
 338 673 338 673 338 463 c 0,86,87
 338 304 338 304 414.5 219.5 c 128,-1,88
 491 135 491 135 625 135 c 0,89,90
 684 135 684 135 754.5 175 c 128,-1,91
 825 215 825 215 877 276 c 1,92,-1
 877 279 l 1,93,94
 902 317 902 317 989 631 c 1,66,67
EndSplineSet
EndChar

StartChar: Ccedilla
Encoding: 199 199 136
Width: 1268
GlyphClass: 2
Flags: W
LayerCount: 2
Fore
SplineSet
926 1417 m 1,0,1
 1042 1417 1042 1417 1096 1149 c 1,2,3
 1096 1114 1096 1114 1040.5 1075 c 128,-1,4
 985 1036 985 1036 918 1007 c 0,5,6
 741 930 741 930 741 881 c 0,7,8
 741 864 741 864 750.5 852 c 128,-1,9
 760 840 760 840 773.5 840 c 128,-1,10
 787 840 787 840 829.5 860 c 128,-1,11
 872 880 872 880 1048.5 977.5 c 128,-1,12
 1225 1075 1225 1075 1270 1097.5 c 128,-1,13
 1315 1120 1315 1120 1315 1178 c 0,14,15
 1315 1312 1315 1312 1210 1415 c 128,-1,16
 1105 1518 1105 1518 968.5 1518 c 128,-1,17
 832 1518 832 1518 720 1486 c 128,-1,18
 608 1454 608 1454 521 1398 c 128,-1,19
 434 1342 434 1342 361 1266.5 c 128,-1,20
 288 1191 288 1191 237 1104.5 c 128,-1,21
 186 1018 186 1018 150 924 c 0,22,23
 82 744 82 744 82 561 c 0,24,25
 82 365 82 365 164 210 c 1,26,27
 308 -57 308 -57 616 -57 c 0,28,29
 983 -57 983 -57 1403 340 c 1,30,-1
 1403 451 l 1,31,32
 1238 292 1238 292 1064 208.5 c 128,-1,33
 890 125 890 125 735 125 c 0,34,35
 538 125 538 125 417.5 261.5 c 128,-1,36
 297 398 297 398 297 659 c 0,37,38
 297 876 297 876 410 1071 c 0,39,40
 530 1279 530 1279 716 1366 c 0,41,42
 816 1413 816 1413 926 1417 c 1,0,1
616 0 m 0,43,44
 721 0 721 0 721 -117 c 0,45,46
 721 -196 721 -196 681 -290 c 0,47,48
 605 -468 605 -468 487 -492 c 1,49,-1
 471 -430 l 1,50,51
 524 -377 524 -377 546 -268 c 0,52,53
 555 -223 555 -223 555 -174 c 1,54,55
 517 -163 517 -163 497 -139.5 c 128,-1,56
 477 -116 477 -116 477 -85 c 128,-1,57
 477 -54 477 -54 514 -27 c 128,-1,58
 551 0 551 0 616 0 c 0,43,44
EndSplineSet
EndChar

StartChar: Eacute
Encoding: 201 201 138
Width: 1403
GlyphClass: 2
Flags: W
LayerCount: 2
Fore
SplineSet
616 240 m 1,0,-1
 674 238 l 2,1,2
 698 238 698 238 711 240 c 1,3,4
 718 238 718 238 804 205 c 0,5,6
 1030 119 1030 119 1071 119 c 128,-1,7
 1112 119 1112 119 1163 145 c 1,8,9
 1189 149 1189 149 1309.5 244.5 c 128,-1,10
 1430 340 1430 340 1524 438 c 1,11,-1
 1524 328 l 1,12,13
 1494 301 1494 301 1436 248.5 c 128,-1,14
 1378 196 1378 196 1351.5 173 c 128,-1,15
 1325 150 1325 150 1277 110 c 128,-1,16
 1229 70 1229 70 1201 51.5 c 128,-1,17
 1173 33 1173 33 1130 7.5 c 128,-1,18
 1087 -18 1087 -18 1054 -29 c 0,19,20
 968 -57 968 -57 893 -57 c 0,21,22
 887 -57 887 -57 873.5 -49 c 128,-1,23
 860 -41 860 -41 844 -33 c 128,-1,24
 828 -25 828 -25 795 -11.5 c 128,-1,25
 762 2 762 2 718 18 c 0,26,27
 640 48 640 48 442 109 c 1,28,29
 351 37 351 37 258.5 -10 c 128,-1,30
 166 -57 166 -57 100 -57 c 0,31,32
 77 -57 77 -57 49 -44 c 0,33,34
 -8 -18 -8 -18 -8 43 c 0,35,36
 -8 96 -8 96 114 148 c 0,37,38
 139 159 139 159 145 162 c 2,39,-1
 401 279 l 1,40,41
 427 317 427 317 514 631 c 1,42,43
 447 622 447 622 387 609 c 128,-1,44
 327 596 327 596 314 595.5 c 128,-1,45
 301 595 301 595 287.5 606 c 128,-1,46
 274 617 274 617 274 644 c 0,47,48
 274 689 274 689 326 702 c 1,49,50
 393 728 393 728 551 760 c 1,51,52
 666 1165 666 1165 737 1262 c 0,53,54
 774 1314 774 1314 842 1360 c 1,55,56
 741 1368 741 1368 635 1368 c 0,57,58
 385 1368 385 1368 267.5 1308 c 128,-1,59
 150 1248 150 1248 150 1143 c 0,60,61
 150 1087 150 1087 201 1037 c 128,-1,62
 252 987 252 987 346 952 c 1,63,64
 346 917 346 917 337 875.5 c 128,-1,65
 328 834 328 834 317 825 c 1,66,67
 163 879 163 879 82.5 957.5 c 128,-1,68
 2 1036 2 1036 2 1120 c 0,69,70
 2 1299 2 1299 178 1408.5 c 128,-1,71
 354 1518 354 1518 657 1518 c 2,72,-1
 948 1518 l 2,73,74
 1569 1518 1569 1518 1569 1491 c 0,75,76
 1569 1479 1569 1479 1550 1460 c 1,77,-1
 1450 1346 l 1,78,79
 1398 1311 1398 1311 1345.5 1311 c 128,-1,80
 1293 1311 1293 1311 1158.5 1332 c 128,-1,81
 1024 1353 1024 1353 963 1356 c 1,82,83
 955 1326 955 1326 900.5 1119.5 c 128,-1,84
 846 913 846 913 809 795 c 1,85,86
 939 805 939 805 1047 805 c 128,-1,87
 1155 805 1155 805 1272 799 c 1,88,89
 1309 799 1309 799 1309 767.5 c 128,-1,90
 1309 736 1309 736 1277.5 703 c 128,-1,91
 1246 670 1246 670 1208 670 c 0,92,93
 913 670 913 670 774 659 c 1,94,-1
 774 657 l 1,95,96
 723 470 723 470 584 238 c 1,97,-1
 616 240 l 1,0,-1
1276 1831 m 1,98,-1
 1188 1796 l 2,99,100
 1077 1752 1077 1752 791 1653 c 1,101,-1
 768 1708 l 1,102,103
 856 1789 856 1789 985 1873.5 c 128,-1,104
 1114 1958 1114 1958 1188 1962 c 1,105,106
 1222 1962 1222 1962 1258.5 1926 c 128,-1,107
 1295 1890 1295 1890 1295 1863 c 128,-1,108
 1295 1836 1295 1836 1276 1831 c 1,98,-1
EndSplineSet
EndChar

